<?xml version="1.0" encoding="UTF-8" standalone="no"?>
<!-- Created with Inkscape (http://www.inkscape.org/) -->

<svg
   width="1298.3524"
   height="1126.4413"
   viewBox="0 0 1298.3524 1126.4413"
   version="1.1"
   id="SVGRoot"
   sodipodi:docname="pollo1.svg"
   inkscape:version="1.1.1 (3bf5ae0d25, 2021-09-20)"
   xmlns:inkscape="http://www.inkscape.org/namespaces/inkscape"
   xmlns:sodipodi="http://sodipodi.sourceforge.net/DTD/sodipodi-0.dtd"
   xmlns="http://www.w3.org/2000/svg"
   xmlns:svg="http://www.w3.org/2000/svg">
  <sodipodi:namedview
     id="namedview3081"
     pagecolor="#ffffff"
     bordercolor="#666666"
     borderopacity="1.0"
     inkscape:pageshadow="2"
     inkscape:pageopacity="0.0"
     inkscape:pagecheckerboard="0"
     inkscape:document-units="px"
     showgrid="false"
     inkscape:zoom="0.097102974"
     inkscape:cx="5895.8029"
     inkscape:cy="-355.29293"
     inkscape:window-width="1920"
     inkscape:window-height="1057"
     inkscape:window-x="-8"
     inkscape:window-y="-8"
     inkscape:window-maximized="1"
     inkscape:current-layer="layer1"
     fit-margin-top="0"
     fit-margin-left="0"
     fit-margin-right="0"
     fit-margin-bottom="0" />
  <defs
     id="defs3076" />
  <g
     inkscape:label="Capa 1"
     inkscape:groupmode="layer"
     id="layer1"
     transform="translate(-2301.2998,-1326.5258)">
    <g
       id="g435"
       transform="matrix(1.3333333,0,0,-1.3333333,2564.3159,1901.0383)">
      <path
         d="m 0,0 c 0,0 25.031,-81.85 92.407,-184.72 1.076,-1.643 -23.387,-42.486 -23.387,-42.486 0,0 43.988,12.198 45.064,10.599 24.106,-35.833 39.545,-54.012 73.992,-91.041 l -7.261,15.798 -20.678,59.463 c 0,0 86.994,-36.41 137.687,-36.41 50.693,0 132.937,18.39 132.937,18.39 0,0 -24.241,-43.527 -44.569,-74.612 0,0 142.568,109.501 255.808,300.72 0,0 6.954,-19.797 26.204,-19.797 19.25,0 19.845,24.996 19.845,24.996 0,0 10.077,-17.191 41.204,-17.191 31.128,0 41.455,29.856 41.455,47.461 0,0 -65.349,8.408 -106.589,85.613 -41.24,77.204 -58.852,153.74 -127.472,196.11 -68.619,42.37 -95.117,47.601 -130.379,51.732 0,0 12.328,12.774 11.985,21.625 0,0 -83.343,32.081 -227.535,-37.363 C 46.526,259.444 -13.669,189.819 -13.669,189.819 l -62.828,-70.198 -47.097,-47.119 c 0,0 -37.491,-20.459 -54.803,-24.383 -17.312,-3.924 -17.673,-68.577 46.546,-68.577 37.233,0 49.656,15.606 49.656,15.606 0,0 15.011,-19.384 42.845,-19.384 C -11.517,-24.236 0,0 0,0"
         style="fill:#ffeb41;fill-opacity:1;fill-rule:nonzero;stroke:none"
         id="path437" />
    </g>
    <g
       id="g439"
       transform="matrix(1.3333333,0,0,-1.3333333,3430.7384,1735.1034)">
      <path
         d="m 0,0 c -5.5,12.456 -9.573,16.596 -11.402,31.217 -9.897,25.776 -22.675,50.061 -38.369,72.87 -6.12,8.003 -8.485,9.232 -12.813,17.105 -7.807,9.898 -9.922,9.62 -16.962,17.91 -0.084,0.063 -0.169,0.119 -0.253,0.188 -9.035,7.417 -15.858,16.68 -23.805,25.156 -8.919,9.513 -20.491,15.819 -31.834,22.038 -12.349,6.771 -25.581,11.866 -38.742,16.826 -12.906,4.865 -26.039,9.206 -39.565,11.99 -2.022,0.416 -3.227,1.538 -3.774,2.925 -12.74,-0.254 -25.686,-0.836 -38.805,-1.135 1.609,5.431 21.342,1.646 24.761,24.709 0.642,4.33 -53.328,9.541 -91.543,4.315 -9.01,25.747 19.228,48.147 -5.866,47.217 -23.131,-1.285 -35.939,-7.985 -53.93,-23.406 0,10.281 2.57,21.846 -5.14,29.556 -7.71,6.426 -16.706,8.996 -25.702,5.141 -16.706,-5.141 -28.271,-23.131 -33.411,-41.122 -2.571,11.565 -11.566,25.701 -25.702,19.276 -21.846,-11.566 -21.846,-37.267 -20.561,-57.828 -3.855,6.425 -10.28,11.565 -17.991,12.85 -11.565,1.285 -20.561,-6.425 -25.701,-15.421 -7.71,-17.99 -6.426,-37.267 0,-55.257 -20.561,7.71 -47.454,12.78 -62.969,-7.711 -8.012,-10.583 -11.812,-27.736 -8.389,-45.5 -18.779,-15.424 -32.636,-25.676 -43.013,-40.599 -17.991,-29.557 11.565,-52.688 35.654,-62.914 -17.678,-12.907 -42.08,-23.186 -43.364,-46.317 -2.571,-32.127 39.837,-37.267 64.359,-43.553 -20.812,-26.685 -24.701,-47.577 -13.642,-60.463 11.059,-12.887 37.066,-17.768 76.05,-12.431 -13.555,-61.396 24.794,-81.92 92.568,-49.147 17.393,-61.139 64.211,-68.983 113.355,-18.021 49.145,-50.962 95.962,-43.118 113.356,18.021 67.773,-32.773 106.123,-12.249 92.567,49.147 38.984,-5.337 64.991,-0.456 76.05,12.431 11.06,12.886 7.171,33.778 -13.639,60.481 38.821,6.831 60.721,19.472 64.827,35.244 C 10.747,-28.412 7.859,-18.16 0,0"
         style="fill:#ffff4b;fill-opacity:1;fill-rule:nonzero;stroke:none"
         id="path441" />
    </g>
    <g
       id="g443"
       transform="matrix(1.3333333,0,0,-1.3333333,3070.1492,1763.6705)">
      <path
         d="m 0,0 c 0.008,7.187 -5.708,13.376 -12.325,16.18 -6.616,2.805 -14.016,2.923 -21.202,2.999 -4.897,0.051 -10.058,0.037 -14.31,-2.393 -2.656,-1.519 -4.731,-3.867 -6.627,-6.269 -22.757,-28.829 -24.635,-72.371 -4.445,-103.054 8.996,-13.67 22.738,-25.14 38.947,-27.39 9.607,-1.333 19.37,0.622 28.684,3.326 14.757,4.286 29.299,10.71 40.24,21.5 3.972,3.917 7.405,8.346 11.297,12.342 8.706,8.939 19.709,15.621 31.655,19.224 C 56.346,-52.54 24.021,-28.443 0,0"
         style="fill:#ffff8c;fill-opacity:1;fill-rule:nonzero;stroke:none"
         id="path445" />
    </g>
    <g
       id="g447"
       transform="matrix(1.3333333,0,0,-1.3333333,3024.6786,2130.0417)">
      <path
         d="M 0,0 C 0.547,1.079 1.081,2.186 1.583,3.327 0.911,2.278 0.397,1.154 0,0"
         style="fill:#ffd437;fill-opacity:1;fill-rule:nonzero;stroke:none"
         id="path449" />
    </g>
    <g
       id="g451"
       transform="matrix(1.3333333,0,0,-1.3333333,2762.6506,2069.7467)">
      <path
         d="M 0,0 C -0.293,1.251 -0.725,2.491 -1.307,3.694 -0.912,2.465 -0.46,1.238 0,0"
         style="fill:#ffd437;fill-opacity:1;fill-rule:nonzero;stroke:none"
         id="path453" />
    </g>
    <g
       id="g455"
       transform="matrix(1.3333333,0,0,-1.3333333,3350.4767,2031.6614)">
      <path
         d="m 0,0 c -18.145,-20.398 -45.131,-53.811 -72.118,-39.675 -3.855,2.571 1.285,11.566 0,17.991 -1.284,-5.14 -2.57,-8.995 -4.334,-14.618 -2.091,-4.657 -4.661,-9.156 -7.231,-13.653 -1.928,-2.57 -4.176,-5.14 -6.667,-7.409 -2.489,-2.273 -5.22,-4.243 -8.123,-5.642 -3.528,-1.185 -7.541,-2.099 -10.993,-2.074 -3.452,0.025 -6.345,0.988 -7.639,3.546 0.01,3.868 2.58,6.439 1.295,10.294 -4.283,-16.278 -17.705,-35.411 -33.412,-42.17 -3.926,-1.689 -7.995,-2.605 -12.101,-2.512 -14.885,-1.58 -20.025,13.84 -16.17,26.691 -1.285,-2.998 -2.892,-5.75 -4.765,-8.27 -9.371,-13.576 -26.076,-20.001 -41.497,-21.287 -3.213,0 -6.426,0.723 -9.357,2.028 -2.932,1.305 -5.588,3.176 -7.683,5.458 -3.521,5.365 -6.092,11.79 -3.521,18.216 -7.711,-19.276 -28.272,-28.272 -47.548,-25.702 -19.276,2.57 -21.846,23.132 -19.276,38.552 -1.285,-2.248 -2.49,-4.738 -3.755,-7.248 -1.31,-4.292 -3.417,-7.752 -6.063,-10.468 -13.313,-11.84 -33.875,-10.555 -48.01,-1.56 -8.995,7.711 -15.421,16.706 -16.706,28.272 -2.57,-12.851 -14.136,-26.987 -28.271,-17.991 -15.421,8.995 -20.561,25.701 -26.987,41.122 0,-7.71 0,-17.991 -8.995,-19.276 -3.213,-1.285 -6.176,-1.749 -8.919,-1.565 -13.713,0.923 -21.923,18.057 -28.348,29.837 2.57,-10.281 1.285,-26.987 -10.407,-30.896 -4.913,-0.793 -9.614,2.024 -13.739,4.877 -7.46,5.16 -14.567,10.829 -21.269,16.941 10.207,-18.364 21.956,-38.043 35.395,-58.562 1.076,-1.643 -23.387,-42.486 -23.387,-42.486 0,0 43.989,12.198 45.064,10.599 24.107,-35.833 39.545,-54.012 73.993,-91.041 l -7.261,15.798 -20.679,59.464 c 0,0 86.994,-36.411 137.687,-36.411 50.693,0 132.938,18.391 132.938,18.391 0,0 -24.242,-43.527 -44.569,-74.612 0,0 69.121,53.1 149.334,149.903 2.37,2.859 4.747,5.752 7.172,8.697 15.927,18.496 28.777,36.487 45.484,53.193 h -5.141 c 1.285,2.57 1.285,5.14 2.735,8.158 1.122,2.635 2.399,5.002 3.844,7.1"
         style="fill:#ffd437;fill-opacity:1;fill-rule:nonzero;stroke:none"
         id="path457" />
    </g>
    <g
       id="g459"
       transform="matrix(1.3333333,0,0,-1.3333333,3106.2951,1866.1646)">
      <path
         d="M 0,0 C 13.854,-1.858 28.13,-0.494 41.381,3.955 39.791,3.421 34.053,-7.2 31.778,-9.216 27.807,-12.737 22.44,-17.268 17.094,-18.369 6.457,-20.559 -2.868,-7.67 -8.292,-0.195 -5.588,0.833 -2.879,0.386 0,0"
         style="fill:#ffda6e;fill-opacity:1;fill-rule:nonzero;stroke:none"
         id="path461" />
    </g>
    <g
       id="g463"
       transform="matrix(1.3333333,0,0,-1.3333333,2952.5862,1722.9889)">
      <path
         d="m 0,0 c -2.669,3.539 -5.624,6.835 -8.963,9.692 -3.278,2.916 -6.868,5.467 -10.685,7.583 -3.832,2.083 -7.803,3.913 -11.962,5.188 -4.147,1.294 -8.435,2.11 -12.747,2.409 -4.308,0.372 -8.67,0.22 -12.967,-0.421 -4.305,-0.624 -8.512,-1.816 -12.618,-3.287 -4.098,-1.506 -8.036,-3.477 -11.723,-5.854 -3.738,-2.311 -7.164,-5.116 -10.343,-8.204 l -1.908,1.723 c -0.124,1.674 -0.028,3.242 0.103,4.853 0.216,1.524 0.486,3.078 0.873,4.577 0.386,1.496 0.918,2.898 1.45,4.366 0.58,1.405 1.277,2.727 1.965,4.123 2.939,5.323 7.053,9.955 11.917,13.635 9.711,7.419 22.45,11.079 35.23,10.11 12.783,-0.954 24.821,-6.532 33.291,-15.346 C -4.841,30.765 -1.487,25.546 0.6,19.83 1.065,18.342 1.542,16.92 1.904,15.446 2.199,13.907 2.512,12.441 2.659,10.898 2.808,9.354 2.833,7.774 2.809,6.232 2.685,4.615 2.537,3.049 2.149,1.409 Z"
         style="fill:#c7742f;fill-opacity:1;fill-rule:nonzero;stroke:none"
         id="path465" />
    </g>
    <g
       id="g467"
       transform="matrix(1.3333333,0,0,-1.3333333,3128.1806,1726.3423)">
      <path
         d="m 0,0 c -0.209,1.669 -0.19,3.238 -0.143,4.854 0.137,1.531 0.326,3.093 0.631,4.607 0.304,1.513 0.762,2.933 1.209,4.425 0.506,1.423 1.119,2.782 1.727,4.207 2.628,5.447 6.439,10.278 11.039,14.209 9.184,7.913 21.524,12.335 34.186,12.23 12.66,-0.09 24.936,-4.647 34.018,-12.673 4.549,-3.984 8.305,-8.849 10.871,-14.319 0.592,-1.43 1.197,-2.786 1.682,-4.219 0.436,-1.49 0.875,-2.916 1.166,-4.427 0.292,-1.513 0.465,-3.075 0.588,-4.604 0.034,-1.611 0.038,-3.177 -0.183,-4.838 l -2,-1.614 c -2.996,3.25 -6.239,6.245 -9.816,8.78 -3.522,2.596 -7.31,4.818 -11.284,6.598 -3.985,1.747 -8.084,3.235 -12.32,4.18 -4.227,0.961 -8.553,1.454 -12.868,1.44 C 44.189,18.894 39.858,18.454 35.621,17.54 31.374,16.646 27.261,15.198 23.256,13.498 19.262,11.763 15.448,9.587 11.898,7.029 8.292,4.536 5.015,1.579 1.981,-1.637 Z"
         style="fill:#c7742f;fill-opacity:1;fill-rule:nonzero;stroke:none"
         id="path469" />
    </g>
    <g
       id="g471"
       transform="matrix(1.3333333,0,0,-1.3333333,3053.7964,1728.9739)">
      <path
         d="m 0,0 c 5.456,-11.927 12.406,-22.969 20.781,-32.72 8.332,-9.775 17.92,-18.361 28.423,-25.51 10.493,-7.159 21.893,-12.895 33.819,-16.955 11.925,-4.048 24.387,-6.418 36.896,-6.768 l 0.18,-0.005 c 2.809,-0.079 5.023,-2.419 4.944,-5.229 -0.056,-1.999 -1.263,-3.697 -2.962,-4.482 l -9.387,-4.311 -9.656,-3.64 -9.886,-2.92 -10.047,-2.243 c -13.491,-2.493 -27.28,-3.197 -40.873,-2.031 -13.589,1.151 -26.993,4.093 -39.674,8.825 -12.648,4.784 -24.665,11.188 -35.168,19.447 11.751,-6.312 24.032,-11.304 36.714,-14.604 12.655,-3.359 25.623,-5.222 38.583,-5.561 12.958,-0.32 25.912,0.802 38.502,3.517 l 9.371,2.297 9.189,2.895 8.983,3.449 8.72,4.047 2.161,-9.716 c -13.637,0.426 -27.143,3.17 -39.843,7.898 -12.708,4.716 -24.628,11.389 -35.283,19.604 -10.642,8.229 -20.048,18.001 -27.658,28.957 C 9.263,-24.792 3.343,-12.706 0,0"
         style="fill:#c7742f;fill-opacity:1;fill-rule:nonzero;stroke:none"
         id="path473" />
    </g>
    <g
       id="g475"
       transform="matrix(1.3333333,0,0,-1.3333333,3169.4638,1868.8405)">
      <path
         d="m 0,0 c -25.145,-21.727 -54.918,-37.4 -86.263,-45.794 30.285,11.652 57.509,30.096 79.149,53.215 1.943,2.076 5.2,2.184 7.276,0.241 C 2.238,5.719 2.345,2.461 0.403,0.386 0.278,0.253 0.149,0.129 0.015,0.012 Z"
         style="fill:#c7742f;fill-opacity:1;fill-rule:nonzero;stroke:none"
         id="path477" />
    </g>
    <g
       id="g479"
       transform="matrix(1.3333333,0,0,-1.3333333,3085.1531,1441.638)">
      <path
         d="m 0,0 c 5.939,0.105 11.632,2.938 15.704,7.113 2.042,2.086 3.691,4.511 4.808,7.077 1.121,2.565 1.696,5.266 1.668,7.873 l 4.056,-5.641 v 0 c -16.884,5.01 -34.595,7.415 -52.361,7.687 -17.788,0.312 -35.604,-1.75 -53.172,-4.956 -35.203,-6.441 -69.315,-18.442 -102.529,-32.126 -16.641,-6.806 -32.865,-14.582 -48.926,-22.646 -4.013,-2.023 -7.929,-4.232 -11.895,-6.344 l -5.932,-3.201 c -1.973,-1.074 -3.97,-2.105 -5.895,-3.266 l -11.643,-6.794 -5.821,-3.395 c -1.92,-1.167 -3.809,-2.384 -5.714,-3.573 -30.55,-18.933 -59.65,-40.183 -86.966,-63.508 -27.24,-23.416 -52.613,-48.973 -75.871,-76.302 -11.734,-13.548 -22.711,-28 -34.915,-41.731 -12.089,-13.771 -25.492,-26.945 -41.298,-37.426 -7.906,-5.211 -16.518,-9.519 -25.549,-12.727 -2.265,-0.765 -4.539,-1.632 -6.799,-2.24 l -6.516,-1.833 c -4.195,-1.203 -8.076,-2.528 -11.224,-4.353 -1.568,-0.912 -2.963,-1.919 -4.106,-3.086 -0.554,-0.597 -1.113,-1.188 -1.534,-1.862 -0.224,-0.328 -0.478,-0.637 -0.694,-0.969 l -0.543,-1.056 c -1.476,-2.793 -1.918,-6.21 -1.567,-9.793 0.679,-7.206 4.573,-14.753 9.787,-20.466 5.446,-5.89 12.374,-10.605 19.93,-13.795 7.573,-3.215 15.811,-4.945 24.092,-5.304 16.557,-0.701 33.46,4.212 46.25,14.811 l 0.001,10e-4 c 1.674,1.921 4.588,2.121 6.508,0.447 0.158,-0.138 0.304,-0.284 0.439,-0.437 l 0.849,-0.98 c 4.739,-5.472 10.542,-9.765 16.934,-12.632 6.397,-2.828 13.332,-4.233 20.063,-3.861 6.732,0.353 13.476,2.493 19.533,5.991 6.048,3.535 11.357,8.427 15.482,14.375 l 0.085,0.123 c 1.627,2.346 4.848,2.929 7.194,1.302 1.99,-1.381 2.709,-3.913 1.888,-6.08 -3.262,-8.607 -9.426,-16.066 -17.03,-21.417 -7.589,-5.396 -16.779,-8.759 -26.346,-9.279 -9.568,-0.51 -19.065,1.848 -27.19,6.399 -8.133,4.505 -15.063,11.259 -19.228,19.467 l 7.794,-0.971 -0.002,-10e-4 c -6.913,-7.011 -15.543,-12.291 -24.786,-15.615 -9.256,-3.325 -19.126,-4.802 -28.919,-4.453 -9.798,0.324 -19.548,2.46 -28.628,6.347 -9.081,3.895 -17.453,9.579 -24.272,17.016 -3.465,3.828 -6.336,8.087 -8.589,12.72 -2.251,4.624 -3.823,9.699 -4.34,15.126 -0.053,0.681 -0.14,1.352 -0.155,2.042 l 0.012,2.085 0.014,1.041 c 0.024,0.35 0.071,0.704 0.107,1.055 l 0.248,2.111 c 0.086,0.703 0.295,1.408 0.446,2.109 0.185,0.699 0.292,1.41 0.557,2.094 0.527,1.364 0.932,2.775 1.683,4.052 l 1.046,1.943 c 0.393,0.618 0.835,1.205 1.259,1.802 0.827,1.221 1.809,2.294 2.814,3.334 2.044,2.055 4.368,3.699 6.712,5.044 4.721,2.683 9.522,4.186 14.01,5.47 l 6.557,1.815 c 2.115,0.558 4.071,1.317 6.097,1.986 8.02,2.814 15.739,6.606 22.967,11.326 7.221,4.734 14.029,10.207 20.507,16.134 6.493,5.912 12.582,12.375 18.551,18.994 11.957,13.235 23.014,27.554 35.078,41.281 23.871,27.613 49.855,53.381 77.699,76.942 55.853,46.901 118.744,85.434 186.193,113.072 l 12.651,5.164 12.817,4.739 c 4.28,1.559 8.52,3.217 12.857,4.633 l 6.475,2.2 6.521,2.076 c 8.687,2.791 17.493,5.237 26.333,7.552 l 6.669,1.605 c 2.23,0.509 4.437,1.105 6.684,1.543 l 6.722,1.398 c 1.122,0.227 2.237,0.479 3.364,0.685 l 3.384,0.593 6.768,1.187 c 2.261,0.368 4.538,0.653 6.806,0.982 2.275,0.295 4.532,0.694 6.82,0.901 l 6.847,0.714 c 1.142,0.115 2.28,0.262 3.425,0.35 l 3.438,0.234 6.877,0.465 c 2.295,0.112 4.597,0.131 6.896,0.22 l 3.449,0.107 1.725,0.052 1.727,-0.023 c 18.415,-0.011 36.914,-1.839 55.092,-5.887 v -0.001 l 0.391,-0.115 c 2.44,-0.718 3.946,-3.084 3.665,-5.527 C 32.592,17.13 31.172,13.156 29.127,9.685 27.082,6.206 24.427,3.2 21.382,0.747 18.334,-1.703 14.882,-3.607 11.191,-4.817 7.506,-6.029 3.566,-6.523 -0.291,-6.138 c -1.691,0.169 -2.925,1.676 -2.756,3.367 0.157,1.569 1.467,2.745 3.006,2.771 z"
         style="fill:#c7742f;fill-opacity:1;fill-rule:nonzero;stroke:none"
         id="path481" />
    </g>
    <g
       id="g483"
       transform="matrix(1.3333333,0,0,-1.3333333,3103.1018,1436.4277)">
      <path
         d="m 0,0 c 2.859,0.766 5.608,0.319 8.35,-0.048 2.735,-0.426 5.484,-0.778 8.21,-1.268 5.455,-0.945 10.891,-2.014 16.274,-3.299 10.778,-2.531 21.396,-5.718 31.79,-9.513 20.793,-7.577 40.671,-17.629 59.141,-29.828 18.466,-12.198 35.558,-26.535 50.614,-42.828 7.515,-8.155 14.521,-16.792 20.923,-25.867 6.409,-9.09 12.1,-18.62 17.357,-28.309 10.51,-19.407 19.147,-39.539 27.998,-59.332 8.851,-19.771 17.961,-39.375 29.177,-57.454 5.628,-9.024 11.855,-17.664 18.717,-25.728 6.858,-8.061 14.339,-15.569 22.499,-22.182 8.163,-6.596 17.006,-12.298 26.437,-16.649 9.421,-4.357 19.432,-7.326 29.671,-8.6 2.106,0 3.863,-1.497 4.263,-3.486 l 0.233,-1.158 c 1.151,-5.697 0.935,-11.661 -0.259,-17.384 -1.25,-5.717 -3.478,-11.232 -6.601,-16.228 -3.125,-4.99 -7.092,-9.506 -11.798,-13.225 -4.691,-3.729 -10.136,-6.657 -16.019,-8.432 -5.886,-1.776 -12.045,-2.328 -18.02,-1.818 -5.977,0.533 -11.79,2.079 -17.145,4.548 -5.369,2.443 -10.26,5.84 -14.455,9.928 -4.136,4.14 -7.601,9.005 -9.748,14.411 l 9.131,4.722 c 2.146,-3.605 3.162,-7.836 3.186,-11.947 0.011,-4.125 -0.883,-8.18 -2.562,-11.888 -1.659,-3.719 -4.1,-7.124 -7.267,-9.923 -3.136,-2.819 -7.131,-4.924 -11.472,-5.875 -4.345,-0.982 -8.855,-0.606 -12.889,0.614 -4.047,1.252 -7.674,3.375 -10.727,6.082 -1.52,1.364 -2.903,2.874 -4.124,4.514 -1.206,1.652 -2.242,3.437 -3.078,5.328 -1.644,3.78 -2.438,8.073 -1.902,12.24 0.363,2.825 2.947,4.82 5.772,4.457 2.427,-0.312 4.241,-2.264 4.474,-4.598 l 0.026,-0.273 c 0.464,-4.642 3.19,-8.966 7.039,-11.933 3.836,-2.978 8.649,-4.322 12.64,-3.458 2.024,0.399 3.962,1.4 5.744,2.815 1.766,1.434 3.3,3.337 4.466,5.464 2.324,4.292 3.014,9.413 1.467,13.807 -0.952,2.704 0.468,5.666 3.171,6.618 2.206,0.777 4.584,-0.025 5.902,-1.815 l 0.058,-0.081 c 5.308,-7.224 12.706,-12.502 20.869,-15.41 8.144,-2.912 17.005,-3.405 24.809,-1.074 7.812,2.311 14.969,7.592 20.168,14.519 5.242,6.916 8.493,15.431 8.905,24.378 l 4.496,-4.644 c -11.353,1.382 -22.436,4.652 -32.752,9.396 -10.331,4.737 -19.906,10.898 -28.664,17.941 -8.754,7.061 -16.699,15.007 -23.945,23.484 -7.25,8.48 -13.788,17.515 -19.687,26.923 -23.383,37.875 -37.009,79.715 -57.423,117.423 -5.102,9.421 -10.575,18.591 -16.688,27.281 -6.099,8.712 -12.788,17.021 -19.978,24.881 -14.406,15.701 -30.819,29.574 -48.587,41.403 -17.771,11.829 -36.93,21.604 -56.969,28.986 -10.016,3.697 -20.248,6.808 -30.628,9.285 -5.185,1.258 -10.419,2.305 -15.671,3.235 -2.623,0.482 -5.268,0.828 -7.901,1.249 -1.315,0.22 -2.649,0.294 -3.958,0.571 -1.31,0.28 -2.606,0.666 -3.875,1.386 l -0.154,0.087 c -1.983,1.125 -2.678,3.645 -1.553,5.628 C -1.957,-0.954 -1.026,-0.278 0,0"
         style="fill:#c7742f;fill-opacity:1;fill-rule:nonzero;stroke:none"
         id="path485" />
    </g>
    <g
       id="g487"
       transform="matrix(1.3333333,0,0,-1.3333333,3429.3172,1931.6887)">
      <path
         d="m 0,0 c -4.644,-7.156 -9.006,-14.473 -13.374,-21.792 l -13.488,-21.719 -13.964,-21.421 -14.433,-21.114 c -19.568,-27.93 -40.241,-55.108 -62.133,-81.296 -21.911,-26.169 -44.965,-51.401 -69.134,-75.535 l -18.357,-17.868 -18.768,-17.44 -19.173,-16.995 -9.771,-8.286 c -1.649,-1.357 -3.19,-2.843 -5.017,-3.986 -1.841,-1.126 -3.816,-2.09 -6.32,-2.404 -3.336,-0.419 -6.379,1.945 -6.797,5.28 -0.109,0.868 -0.03,1.716 0.206,2.503 l 0.045,0.144 c 0.738,2.423 2.003,4.196 3.404,5.807 1.414,1.595 3.115,2.846 4.707,4.227 l 9.678,8.139 18.991,16.702 18.648,17.087 18.293,17.471 c 24.182,23.515 47.396,48.044 69.503,73.554 22.127,25.49 43.223,51.905 63.007,79.29 l 14.627,20.691 14.172,21.009 13.71,21.319 c 4.381,7.224 8.766,14.449 12.87,21.835 L -8.813,5.3 c 1.38,2.484 4.512,3.378 6.996,1.998 C 0.667,5.918 1.562,2.786 0.181,0.302 0.126,0.203 0.061,0.094 0,0"
         style="fill:#c7742f;fill-opacity:1;fill-rule:nonzero;stroke:none"
         id="path489" />
    </g>
    <g
       id="g491"
       transform="matrix(1.3333333,0,0,-1.3333333,3069.3198,2333.9986)">
      <path
         d="m 0,0 c 4.875,6.23 9.864,12.136 14.688,18.121 4.825,5.971 9.514,11.976 13.814,18.136 4.292,6.152 8.223,12.479 11.218,18.95 2.979,6.432 4.973,13.143 4.704,19.025 v 0.003 L 54.17,67.044 C 31.545,59.299 8.02,54.962 -15.556,52.654 c -11.797,-1.187 -23.638,-1.71 -35.474,-1.892 -11.838,-0.068 -23.677,0.257 -35.486,1.113 -23.605,1.77 -47.123,5.305 -70.15,11.222 -11.516,2.931 -22.892,6.505 -34.043,10.758 -11.131,4.301 -22.058,9.271 -32.456,15.29 l 10.68,6.855 c 0.228,-7.638 0.774,-15.22 1.905,-22.625 1.148,-7.398 2.913,-14.589 5.576,-21.43 2.657,-6.847 6.262,-13.333 10.449,-19.759 4.174,-6.426 8.79,-12.853 13.179,-19.519 l 0.006,-0.009 c 1.562,-2.371 0.905,-5.56 -1.466,-7.121 -2.303,-1.516 -5.383,-0.932 -6.989,1.273 -4.555,6.276 -9.414,12.416 -14.121,18.976 -4.704,6.538 -9.148,13.668 -12.544,21.357 -3.408,7.682 -5.775,15.765 -7.409,23.842 -1.621,8.09 -2.57,16.196 -3.184,24.263 -0.398,3.894 2.435,7.375 6.329,7.774 1.298,0.133 2.55,-0.093 3.658,-0.598 l 0.694,-0.321 c 20.355,-9.36 42.001,-16.024 64.057,-20.905 11.044,-2.393 22.186,-4.424 33.411,-5.962 11.223,-1.549 22.503,-2.778 33.823,-3.52 11.316,-0.789 22.662,-1.215 34.005,-1.193 11.345,-0.085 22.683,0.351 33.989,1.066 22.6,1.545 45.086,4.645 66.963,9.994 l 0.736,0.18 c 3.909,0.956 7.852,-1.438 8.808,-5.346 0.163,-0.667 0.225,-1.371 0.202,-2.024 V 74.389 C 59.522,69.572 58.604,65.022 57.26,60.823 55.913,56.615 54.161,52.709 52.213,49.007 48.296,41.615 43.63,34.99 38.735,28.694 33.831,22.404 28.658,16.462 23.439,10.656 18.23,4.85 12.921,-0.808 7.946,-6.522 L 7.927,-6.545 C 6.062,-8.687 2.814,-8.911 0.673,-7.046 -1.397,-5.244 -1.667,-2.139 0,0"
         style="fill:#c7742f;fill-opacity:1;fill-rule:nonzero;stroke:none"
         id="path493" />
    </g>
    <g
       id="g495"
       transform="matrix(1.3333333,0,0,-1.3333333,2570.7534,1898.6867)">
      <path
         d="m 0,0 c 2.553,-7.236 5.383,-14.372 8.195,-21.509 l 8.979,-21.192 9.512,-20.95 10.038,-20.697 c 13.737,-27.419 28.956,-54.068 45.4,-79.9 l 12.525,-19.247 13.001,-18.919 13.47,-18.581 13.871,-18.275 14.288,-17.943 14.683,-17.618 15.106,-17.252 3.886,-4.214 c 1.309,-1.393 2.582,-2.817 3.734,-4.353 1.159,-1.531 2.214,-3.158 3.136,-4.913 0.911,-1.765 1.743,-3.608 2.243,-5.771 l 0.032,-0.141 c 0.73,-3.158 -1.24,-6.31 -4.398,-7.039 -1.063,-0.246 -2.149,-0.177 -3.119,0.132 -2.109,0.679 -3.886,1.679 -5.583,2.757 -1.687,1.087 -3.24,2.302 -4.69,3.614 -1.456,1.306 -2.791,2.725 -4.092,4.175 l -3.94,4.314 -15.316,17.647 -14.842,18.045 -14.322,18.457 -13.812,18.836 -13.268,19.216 -12.776,19.539 -12.276,19.847 c -15.968,26.707 -30.519,54.227 -43.745,82.341 l -9.656,21.204 -9.113,21.436 -8.562,21.655 c -2.668,7.29 -5.318,14.581 -8.245,21.772 -1.072,2.631 0.193,5.631 2.823,6.702 2.631,1.071 5.632,-0.194 6.703,-2.824 0.028,-0.07 0.055,-0.14 0.08,-0.21 z"
         style="fill:#c7742f;fill-opacity:1;fill-rule:nonzero;stroke:none"
         id="path497" />
    </g>
    <g
       id="g499"
       transform="matrix(1.3333333,0,0,-1.3333333,2686.5555,2150.7421)">
      <path
         d="m 0,0 c -8.791,-13.476 -17.582,-26.952 -26.373,-40.427 15.637,1.982 31.094,5.374 46.124,10.121"
         style="fill:none;stroke:#c7742f;stroke-width:10.281;stroke-linecap:round;stroke-linejoin:round;stroke-miterlimit:10;stroke-dasharray:none;stroke-opacity:1"
         id="path501" />
    </g>
    <g
       id="g503"
       transform="matrix(1.3333333,0,0,-1.3333333,2806.1831,2280.1874)">
      <path
         d="m 0,0 c -9.123,-34.261 -1.467,-72.578 20.12,-100.703 12.979,28.935 7.999,65.075 -12.321,89.422 z"
         style="fill:#c7742f;fill-opacity:1;fill-rule:nonzero;stroke:none"
         id="path505" />
    </g>
    <g
       id="g507"
       transform="matrix(1.3333333,0,0,-1.3333333,3092.0112,2312.1217)">
      <path
         d="m 0,0 c -18.532,-8.316 -31.28,-26.341 -37.856,-45.559 -6.576,-19.218 -7.781,-39.795 -8.93,-60.075 26.35,27.19 43.332,63.295 47.473,100.93 z"
         style="fill:#c7742f;fill-opacity:1;fill-rule:nonzero;stroke:none"
         id="path509" />
    </g>
    <g
       id="g511"
       transform="matrix(1.3333333,0,0,-1.3333333,2673.6135,2125.6054)">
      <path
         d="m 0,0 -49.297,90.463 c 0,0 55.242,-173.138 276.274,-173.138 221.032,0 280.67,146.347 280.67,146.347 0,0 -105.714,-143.486 -185.938,-208.341 l 24.934,46.495 -8.135,11.695 -71.495,-12.883 -112.913,9.778 -73.586,22.864 25.589,-67.569 -47.071,50.138 z"
         style="fill:#c7742f;fill-opacity:1;fill-rule:nonzero;stroke:none"
         id="path513" />
    </g>
    <g
       id="g515"
       transform="matrix(1.3333333,0,0,-1.3333333,2815.0842,2304.6569)">
      <path
         d="M 0,0 C 0,0 23.581,-9.224 32.148,-26.167 32.148,-26.167 9.372,-24.745 0,0"
         style="fill:#c7742f;fill-opacity:1;fill-rule:nonzero;stroke:none"
         id="path517" />
    </g>
    <g
       id="g519"
       transform="matrix(1.3333333,0,0,-1.3333333,3078.0288,2326.2102)">
      <path
         d="m 0,0 c 0,0 -17.381,-18.413 -36.299,-20.015 0,0 9.845,20.588 36.299,20.015"
         style="fill:#c7742f;fill-opacity:1;fill-rule:nonzero;stroke:none"
         id="path521" />
    </g>
    <g
       id="g523"
       transform="matrix(1.3333333,0,0,-1.3333333,3086.187,2342.2043)">
      <path
         d="m 0,0 c 0,0 8.151,-23.973 0.722,-41.444 0,0 -13.597,18.327 -0.722,41.444"
         style="fill:#c7742f;fill-opacity:1;fill-rule:nonzero;stroke:none"
         id="path525" />
    </g>
    <g
       id="g527"
       transform="matrix(1.3333333,0,0,-1.3333333,2806.9735,2325.263)">
      <path
         d="m 0,0 c 0,0 7.588,-24.157 -0.247,-41.451 0,0 -13.165,18.641 0.247,41.451"
         style="fill:#c7742f;fill-opacity:1;fill-rule:nonzero;stroke:none"
         id="path529" />
    </g>
  </g>
</svg>
