<?xml version="1.0" encoding="UTF-8" standalone="no"?>
<!-- Created with Inkscape (http://www.inkscape.org/) -->

<svg
   width="1124.1191"
   height="1068.7739"
   viewBox="0 0 1124.1191 1068.7739"
   version="1.1"
   id="SVGRoot"
   sodipodi:docname="pollo2.svg"
   inkscape:version="1.1.1 (3bf5ae0d25, 2021-09-20)"
   xmlns:inkscape="http://www.inkscape.org/namespaces/inkscape"
   xmlns:sodipodi="http://sodipodi.sourceforge.net/DTD/sodipodi-0.dtd"
   xmlns="http://www.w3.org/2000/svg"
   xmlns:svg="http://www.w3.org/2000/svg">
  <sodipodi:namedview
     id="namedview6683"
     pagecolor="#ffffff"
     bordercolor="#666666"
     borderopacity="1.0"
     inkscape:pageshadow="2"
     inkscape:pageopacity="0.0"
     inkscape:pagecheckerboard="0"
     inkscape:document-units="px"
     showgrid="false"
     inkscape:zoom="0.19420595"
     inkscape:cx="-1830.531"
     inkscape:cy="1804.7851"
     inkscape:window-width="1920"
     inkscape:window-height="1057"
     inkscape:window-x="-8"
     inkscape:window-y="-8"
     inkscape:window-maximized="1"
     inkscape:current-layer="layer1"
     fit-margin-top="0"
     fit-margin-left="0"
     fit-margin-right="0"
     fit-margin-bottom="0" />
  <defs
     id="defs6678" />
  <g
     inkscape:label="Capa 1"
     inkscape:groupmode="layer"
     id="layer1"
     transform="translate(-560.46017,-351.27071)">
    <g
       id="g731"
       transform="matrix(1.3333333,0,0,-1.3333333,623.66434,644.0467)">
      <path
         d="m 0,0 c 0,0 -42.618,-25.323 -42.618,-78.768 0,-53.444 44.289,-77.625 53.905,-82.148 0,0 -15.052,-37.283 27.932,-52.412 v -7.108 c 0,0 -10.545,-28.787 29.931,-44.982 40.477,-16.196 56.638,-14.957 72.633,-51.597 15.994,-36.639 28.561,-64.674 28.561,-64.674 l 52.5,-46.258 c 0,0 53.386,-36.726 150.094,-36.726 96.708,0 181.794,45.83 181.794,45.83 l 36.355,35.355 c 0,0 33.68,46.759 52.895,99.081 l 13.05,4.392 c 0,0 58.379,14.877 56.429,78.762 0,0 70.877,27.651 51.38,114.171 0,0 56.254,67.628 4.804,113.891 0,0 -60.993,-75.432 -115.228,-75.432 -32.849,6.926 -49.548,88.06 -159.211,121.394 0,0 -4.012,-62.556 -33.923,-62.556 -29.911,0 -97.584,69.508 -175.459,69.508 -61.548,0 -53.814,-32.075 -53.814,-32.075 0,0 -46.452,-20.103 -46.452,-35.798 0,-7.144 6.9,-8.33 6.9,-8.33 0,0 -40.652,-58.947 -92.211,-58.947 C 48.688,-55.427 0,0 0,0"
         style="fill:#fff1c9;fill-opacity:1;fill-rule:nonzero;stroke:none"
         id="path733" />
    </g>
    <g
       id="g735"
       transform="matrix(1.3333333,0,0,-1.3333333,1451.7046,669.5363)">
      <path
         d="m 0,0 c -4.087,1.007 -8.443,1.912 -13.087,2.701 1.809,2.516 3.486,4.978 5.033,7.385 -22.329,27.593 -54.648,62.615 -117.77,81.803 0,0 -4.012,-62.557 -33.923,-62.557 -29.911,0 -97.584,69.508 -175.459,69.508 -61.548,0 -53.815,-32.074 -53.815,-32.074 0,0 -46.452,-20.104 -46.452,-35.799 0,-7.144 6.902,-8.33 6.902,-8.33 0,0 -31.537,-45.718 -74.283,-56.624 -0.635,-14.365 12.042,-31.273 38.641,-48.557 -58.037,-37.713 -49.844,-73.641 18.451,-85.246 -38.659,-53.75 -17.217,-83.178 50.318,-69.613 -14.544,-62.993 17.006,-82.993 74.63,-46.934 12.442,-63.703 50.959,-71.346 91.389,-17.21 40.431,-54.136 78.948,-46.493 91.391,17.21 57.624,-36.059 89.173,-16.059 74.63,46.934 67.534,-13.565 88.976,15.863 50.317,69.613 68.294,11.605 76.488,47.533 18.451,85.246 29.923,19.444 42.24,38.414 37.791,53.819 -3.27,-0.504 -6.532,-0.781 -9.768,-0.781 C 21.843,-27.071 12.29,-15.468 0,0"
         style="fill:#ffffff;fill-opacity:1;fill-rule:nonzero;stroke:none"
         id="path737" />
    </g>
    <g
       id="g739"
       transform="matrix(1.3333333,0,0,-1.3333333,1228.8322,813.37483)">
      <path
         d="m 0,0 c 0,0 -12.573,12.161 -25.559,6.051 -12.985,-6.111 -82.425,-81.101 12.78,-137.491 38.365,-22.724 69.333,25.978 69.333,25.978 l 24.362,1.062 c 0,0 -39.697,78.49 -80.916,104.4"
         style="fill:#ffff8c;fill-opacity:1;fill-rule:nonzero;stroke:none"
         id="path741" />
    </g>
    <g
       id="g743"
       transform="matrix(1.3333333,0,0,-1.3333333,1209.9026,924.9751)">
      <path
         d="m 0,0 c 0,0 57.633,-36.685 39.415,-49.564 0,0 20.434,6.607 34.335,28.801 z"
         style="fill:#ffda6e;fill-opacity:1;fill-rule:nonzero;stroke:none"
         id="path745" />
    </g>
    <g
       id="g747"
       transform="matrix(1.3333333,0,0,-1.3333333,1103.9338,713.03897)">
      <path
         d="m 0,0 c -15.16,11.107 -35.158,14.56 -53.686,11.407 -10.429,-1.773 -20.723,-5.65 -28.678,-12.624 -9.814,-8.603 -15.29,-21.186 -18.413,-33.858 -7.404,-30.034 -0.824,-66.099 24.653,-83.643 7.469,-5.143 16.062,-8.394 24.692,-11.178 8.295,-2.674 16.862,-4.983 25.576,-4.8 17.79,0.372 34.399,11.633 43.369,27.002 C 35.672,-76.586 30.239,-22.152 0,0"
         style="fill:#ffffff;fill-opacity:1;fill-rule:nonzero;stroke:none"
         id="path749" />
    </g>
    <g
       id="g751"
       transform="matrix(1.3333333,0,0,-1.3333333,1412.4065,720.37363)">
      <path
         d="m 0,0 c -12.059,7.235 -26.229,10.027 -40.175,11.825 -8.677,1.119 -17.774,1.855 -25.929,-1.314 -12.714,-4.943 -20.166,-18.149 -24.598,-31.05 -5.901,-17.174 -8.284,-35.547 -6.963,-53.658 0.594,-8.125 1.97,-16.337 5.61,-23.625 5.548,-11.102 15.906,-19.118 26.971,-24.738 13.873,-7.045 29.724,-10.909 45.12,-8.664 15.398,2.246 30.172,11.157 37.459,24.905 4.32,8.151 5.865,17.469 6.786,26.649 C 27.225,-50.36 28.89,-17.334 0,0"
         style="fill:#ffffff;fill-opacity:1;fill-rule:nonzero;stroke:none"
         id="path753" />
    </g>
    <g
       id="g755"
       transform="matrix(1.3333333,0,0,-1.3333333,812.16687,1065.5324)">
      <path
         d="M 0,0 C -2.684,6.037 -5.38,11.025 -8.197,15.22 -9.155,7.452 -8.191,0.529 0,0"
         style="fill:#ffd1aa;fill-opacity:1;fill-rule:nonzero;stroke:none"
         id="path757" />
    </g>
    <g
       id="g759"
       transform="matrix(1.3333333,0,0,-1.3333333,1447.8387,1076.216)">
      <path
         d="m 0,0 c -14.895,-4.583 -20.623,12.604 -30.936,19.479 5.73,-9.166 14.896,-19.479 8.006,-29.793 -3.423,-5.726 -10.297,-8.018 -16.025,-4.581 -4.103,2.051 -7.788,4.518 -10.344,7.872 4.196,-13.589 2.236,-29.331 -9.135,-38.807 -13.749,-10.312 -36.664,-8.021 -45.83,8.02 8.021,-19.478 -5.728,-42.393 -26.352,-45.83 -18.332,-3.437 -29.79,12.603 -35.519,27.498 -2.292,-16.041 -10.311,-32.081 -26.352,-37.81 -19.478,-5.729 -28.644,16.041 -28.644,32.081 -12.603,-10.312 -20.624,-29.789 -38.956,-30.936 -22.915,0 -33.227,24.062 -40.101,42.394 -9.166,-17.187 -30.936,-33.227 -49.294,-19.482 -11.432,10.316 -12.578,27.502 -16.695,41.811 -15.02,-15.083 -25.871,-19.456 -31.689,-14.257 -8.358,11.627 -3.737,28.691 -3.603,43.278 -7.931,-4.754 -14.778,-16.246 -24.924,-12.013 -14.748,5.427 -7.864,24.879 -8.992,37.444 -5.727,-6.878 -8.03,-27.469 -19.481,-18.347 -8.021,5.728 -4.583,17.186 -1.146,26.352 -6.875,-8.02 -5.729,-25.207 -18.332,-26.352 -0.87,-0.062 -1.664,-0.057 -2.41,-0.008 0.135,-0.305 0.271,-0.591 0.406,-0.901 15.994,-36.639 28.561,-64.675 28.561,-64.675 l 52.5,-46.257 c 0,0 53.387,-36.726 150.095,-36.726 96.708,0 181.794,45.83 181.794,45.83 l 36.354,35.355 c 0,0 25.292,35.116 44.545,78.537 C 10.694,9.166 4.583,2.292 0,0"
         style="fill:#ffd1aa;fill-opacity:1;fill-rule:nonzero;stroke:none"
         id="path761" />
    </g>
    <g
       id="g763"
       transform="matrix(1.3333333,0,0,-1.3333333,1065.0485,468.87484)">
      <path
         d="M 0,0 C 0,0 -6.416,5.704 -19.638,3.105 -32.86,0.507 -44.674,-10.712 -41.345,-24.58 c 3.328,-13.869 8.159,-22.831 29.519,-31.097 21.359,-8.265 36.697,-9.375 83.526,-37.268 46.83,-27.895 39.189,-28.219 58.545,-28.219 19.357,0 33.923,31.475 33.923,69.508 0,38.032 -24.496,134.716 -76.055,134.716 -37.81,0 -37.671,-52.373 -37.671,-52.373 0,0 -3.937,20.465 -22.28,20.465 C 9.819,51.152 -4.854,29.664 0,0"
         style="fill:#fc5858;fill-opacity:1;fill-rule:nonzero;stroke:none"
         id="path765" />
    </g>
    <g
       id="g767"
       transform="matrix(1.3333333,0,0,-1.3333333,1272.7059,535.14697)">
      <path
         d="m 0,0 c -9.493,-11.43 -15.689,-34.026 -45.479,-34.026 -38.192,0 -107.702,55.975 -129.088,40.698 -5.022,-3.586 1.145,-8.021 4.583,-9.166 13.749,-6.874 28.643,-11.457 42.785,-18.315 1.678,-0.912 3.339,-1.853 4.978,-2.827 1.64,-0.973 3.259,-1.979 4.855,-3.02 1.646,-1.08 3.283,-2.193 4.912,-3.338 1.843,-1.179 3.695,-2.351 5.567,-3.506 1.924,-1.279 3.832,-2.587 5.725,-3.942 1.893,-1.354 3.77,-2.755 5.63,-4.213 1.395,-1.136 2.816,-2.26 4.26,-3.361 12.987,-9.902 27.452,-17.863 42.766,-23.538 11.864,-4.395 25.973,-7.173 36.529,-0.198 10.531,6.956 13.499,20.856 15.244,33.356 1.405,10.072 2.592,20.175 3.562,30.298 C 7.383,0.679 3.793,4.567 0,0"
         style="fill:#f02c3e;fill-opacity:1;fill-rule:nonzero;stroke:none"
         id="path769" />
    </g>
    <g
       id="g771"
       transform="matrix(1.3333333,0,0,-1.3333333,945.25673,578.34884)">
      <path
         d="M 0,0 C -0.114,-1.038 -0.685,-2.223 -1.687,-3.022 -2.664,-3.856 -3.91,-4.271 -5.064,-4.4 c -1.172,-0.145 -2.307,-0.022 -3.386,0.258 -1.082,0.283 -2.113,0.742 -3.077,1.388 -0.975,0.63 -1.861,1.486 -2.616,2.56 -0.74,1.071 -1.296,2.428 -1.478,3.893 -0.31,2.443 0.199,4.805 1.111,6.833 0.939,1.997 2.207,3.616 3.535,4.995 1.334,1.37 2.739,2.526 4.161,3.569 l 1.07,0.757 1.033,0.68 c 0.693,0.448 1.372,0.92 2.078,1.348 1.41,0.858 2.822,1.714 4.279,2.491 2.911,1.556 5.908,2.949 8.974,4.147 3.062,1.206 6.173,2.293 9.349,3.116 6.332,1.718 12.807,2.791 19.292,3.239 26.009,1.792 51.63,-4.84 74.854,-15.021 2.902,-1.296 5.834,-2.544 8.689,-3.931 2.903,-1.304 5.729,-2.734 8.587,-4.123 5.638,-2.893 11.262,-5.808 16.79,-8.863 11.053,-6.102 21.898,-12.456 32.539,-18.881 l 7.938,-4.75 c 2.58,-1.533 5.135,-2.971 7.666,-4.285 5.065,-2.604 10.113,-4.645 14.823,-5.419 2.351,-0.367 4.587,-0.46 6.709,-0.187 2.113,0.292 4.159,0.894 6.035,1.875 3.769,1.906 7.109,5.336 9.795,9.706 2.724,4.343 4.806,9.501 6.345,14.905 0.391,1.352 0.735,2.727 1.057,4.111 0.328,1.376 0.598,2.78 0.869,4.254 0.285,1.452 0.541,2.909 0.772,4.372 0.256,1.458 0.482,2.922 0.673,4.391 1.635,11.743 1.97,23.691 1.16,35.585 -1.666,23.784 -8.233,47.384 -19.487,68.622 -2.819,5.304 -5.926,10.458 -9.311,15.427 -3.302,4.948 -6.996,9.474 -11.155,13.542 -4.137,4.046 -8.706,7.607 -13.629,10.123 -4.903,2.555 -10.187,3.925 -15.346,3.647 -5.191,-0.267 -10.136,-2.208 -14.402,-5.497 -4.255,-3.293 -7.748,-7.806 -10.252,-12.801 -2.498,-5 -4.088,-10.643 -4.974,-16.451 -0.902,-5.827 -1.185,-11.855 -1.247,-17.972 -0.027,-2.532 -2.1,-4.564 -4.631,-4.537 -2.351,0.024 -4.271,1.813 -4.512,4.096 l -0.001,0.015 v 0.001 c -0.406,4.004 -1.261,7.969 -2.698,11.503 -1.429,3.528 -3.507,6.579 -6.115,8.35 -1.303,0.89 -2.734,1.477 -4.303,1.771 -0.754,0.148 -1.694,0.224 -2.554,0.257 -0.879,0.026 -1.763,-0.024 -2.647,-0.115 -3.539,-0.398 -7.054,-1.79 -10.165,-3.878 -3.114,-2.09 -5.833,-4.865 -7.886,-8.023 -2.028,-3.112 -3.447,-6.82 -4.286,-10.622 -1.672,-7.672 -1.018,-16.002 1.068,-23.933 l 0.006,-0.023 c 0.643,-2.444 -0.818,-4.946 -3.262,-5.59 -1.374,-0.36 -2.783,-0.045 -3.853,0.724 -5.467,3.971 -13.163,4.876 -20.024,2.946 -3.432,-0.953 -6.681,-2.58 -9.361,-4.795 -1.34,-1.105 -2.539,-2.351 -3.556,-3.713 -1.01,-1.356 -1.885,-2.88 -2.389,-4.279 -1.076,-2.912 -1.143,-6.373 -0.425,-9.836 0.716,-3.468 2.157,-6.926 4.068,-10.116 1.926,-3.185 4.318,-6.127 7.044,-8.6 2.72,-2.467 5.818,-4.464 8.992,-5.536 l 0.022,-0.007 c 2.397,-0.81 3.686,-3.411 2.876,-5.808 -0.81,-2.399 -3.41,-3.687 -5.808,-2.877 l -0.014,0.005 c -4.742,1.618 -8.759,4.308 -12.211,7.422 -3.45,3.132 -6.368,6.731 -8.758,10.68 -2.365,3.961 -4.214,8.293 -5.19,12.997 -0.962,4.672 -1.014,9.873 0.795,14.827 0.933,2.517 2.189,4.629 3.658,6.618 1.478,1.978 3.195,3.755 5.072,5.302 3.759,3.096 8.139,5.269 12.733,6.548 4.599,1.272 9.452,1.653 14.249,0.991 4.786,-0.658 9.537,-2.415 13.582,-5.33 L 87.166,79.8 c -2.353,9.007 -3.22,18.679 -1.16,28.228 0.541,2.372 1.2,4.738 2.145,7.017 0.445,1.151 0.977,2.256 1.524,3.383 0.566,1.127 1.208,2.209 1.888,3.262 2.738,4.202 6.287,7.829 10.464,10.638 4.171,2.797 9.034,4.783 14.239,5.373 2.622,0.284 5.197,0.248 7.92,-0.239 2.75,-0.505 5.466,-1.616 7.786,-3.212 2.327,-1.591 4.25,-3.602 5.778,-5.739 1.538,-2.143 2.709,-4.417 3.654,-6.717 1.867,-4.613 2.846,-9.331 3.331,-14.055 l 10e-4,-0.001 -9.143,-0.425 c 0.024,6.337 0.266,12.797 1.226,19.302 0.962,6.499 2.606,13.049 5.598,19.258 2.989,6.171 7.194,11.839 12.697,16.33 2.763,2.221 5.867,4.114 9.24,5.495 3.384,1.374 6.961,2.253 10.603,2.51 7.316,0.562 14.53,-1.281 20.749,-4.271 6.275,-2.988 11.749,-7.06 16.648,-11.568 4.88,-4.516 9.261,-9.567 13.089,-14.838 3.827,-5.196 7.366,-10.606 10.604,-16.193 12.971,-22.338 21.26,-47.465 24.012,-73.335 1.408,-12.931 1.373,-26.046 -0.072,-39.039 -1.501,-12.759 -3.984,-26.465 -11.519,-39.07 -1.924,-3.127 -4.2,-6.171 -6.958,-8.946 -2.752,-2.765 -5.996,-5.27 -9.664,-7.139 -3.649,-1.906 -7.663,-3.123 -11.719,-3.675 -4.063,-0.529 -8.118,-0.372 -11.908,0.302 -7.608,1.363 -14.143,4.389 -19.999,7.729 -2.937,1.673 -5.715,3.466 -8.388,5.285 -1.353,0.91 -2.629,1.812 -3.902,2.72 l -3.832,2.721 c -10.203,7.241 -20.125,14.683 -30.303,21.645 -10.176,6.943 -20.621,13.415 -31.591,18.78 C 99.201,16.598 87.782,20.934 75.936,23.338 64.104,25.792 51.942,26.559 40.071,25.385 28.217,24.189 16.619,21.118 6.202,15.721 4.885,15.075 3.609,14.355 2.332,13.637 1.693,13.278 1.08,12.878 0.451,12.501 L -0.487,11.928 -1.344,11.363 C -2.461,10.602 -3.492,9.797 -4.362,8.963 -5.217,8.123 -5.899,7.268 -6.376,6.483 -6.82,5.718 -7.106,4.961 -7.215,4.283 -7.387,4.145 -7.386,3.515 -6.898,2.787 -6.439,2.08 -5.629,1.362 -4.852,0.976 -4.066,0.631 -3.443,0.248 -2.396,1.014 l 0.287,0.209 C -1.515,1.656 -0.682,1.525 -0.248,0.932 -0.044,0.652 0.035,0.318 0,0"
         style="fill:#fc5858;fill-opacity:1;fill-rule:nonzero;stroke:none"
         id="path773" />
    </g>
    <g
       id="g775"
       transform="matrix(1.3333333,0,0,-1.3333333,942.5042,582.90217)">
      <path
         d="m 0,0 c -0.778,-0.761 -1.576,-1.387 -2.377,-1.972 -0.801,-0.59 -1.601,-1.154 -2.414,-1.647 -1.615,-1.036 -3.259,-1.913 -4.919,-2.735 -3.354,-1.543 -6.68,-3.119 -9.954,-4.78 -6.513,-3.351 -13.028,-6.762 -18.833,-11.065 -1.444,-1.074 -2.851,-2.196 -4.19,-3.367 -0.711,-0.594 -1.287,-1.125 -1.842,-1.703 -0.557,-0.571 -1.08,-1.16 -1.554,-1.753 -0.942,-1.19 -1.694,-2.394 -2.192,-3.408 -0.477,-1.041 -0.733,-1.741 -0.705,-2.518 0.039,-0.424 0.117,-0.785 0.327,-1.193 0.204,-0.403 0.535,-0.838 0.998,-1.225 0.922,-0.776 2.286,-1.395 3.731,-1.654 1.487,-0.251 3.227,-0.194 5.008,0.093 1.793,0.276 3.651,0.76 5.557,1.212 0.502,0.12 1.005,-0.19 1.125,-0.691 0.088,-0.371 -0.059,-0.743 -0.344,-0.96 -1.563,-1.187 -3.186,-2.337 -5.017,-3.331 -1.834,-0.981 -3.877,-1.824 -6.234,-2.15 -2.385,-0.313 -4.893,-0.096 -7.359,0.943 -1.227,0.518 -2.453,1.255 -3.532,2.28 -1.076,1.018 -1.995,2.337 -2.599,3.721 -0.619,1.407 -0.966,2.991 -0.996,4.502 -0.039,1.521 0.197,2.957 0.581,4.263 0.781,2.613 2.091,4.71 3.52,6.528 0.713,0.917 1.467,1.762 2.246,2.568 0.775,0.808 1.614,1.574 2.355,2.234 1.509,1.402 3.092,2.692 4.672,3.981 6.37,5.061 13.199,9.407 20.508,12.713 3.664,1.624 7.421,3.027 11.267,4.141 1.933,0.528 3.934,0.861 5.973,0.994 2.041,0.129 4.13,0.049 6.273,-0.44 C 0.199,3.325 0.899,2.211 0.644,1.092 0.551,0.687 0.347,0.338 0.07,0.068 Z"
         style="fill:#fc5858;fill-opacity:1;fill-rule:nonzero;stroke:none"
         id="path777" />
    </g>
    <g
       id="g779"
       transform="matrix(1.3333333,0,0,-1.3333333,883.91033,642.3423)">
      <path
         d="m 0,0 c -2.591,-4.542 -5.882,-8.541 -9.257,-12.494 -3.386,-3.951 -6.843,-7.865 -10.443,-11.684 -3.629,-3.797 -7.375,-7.512 -11.337,-11.041 -3.991,-3.5 -8.154,-6.844 -12.574,-9.891 -4.452,-3.004 -9.119,-5.736 -14.021,-8.062 -4.931,-2.25 -10.075,-4.135 -15.348,-5.455 -10.541,-2.708 -21.508,-3.321 -32.241,-2.31 -10.746,0.996 -21.293,3.735 -31.211,7.911 -9.922,4.144 -19.18,9.707 -27.63,16.216 -4.231,3.252 -8.269,6.74 -12.111,10.419 -3.835,3.688 -7.441,7.597 -10.87,11.646 -0.863,1.008 -1.712,2.027 -2.531,3.069 l -2.408,3.025 c -0.708,0.89 -1.343,1.567 -1.827,1.932 -0.491,0.371 -0.716,0.41 -1.06,0.482 -0.335,0.025 -0.838,-0.02 -1.521,-0.264 -0.68,-0.254 -1.483,-0.694 -2.299,-1.256 -0.824,-0.568 -1.648,-1.23 -2.502,-2.018 l -2.666,-2.518 c -14.044,-13.634 -23.784,-31.699 -27.518,-50.868 -0.246,-1.197 -0.48,-2.396 -0.623,-3.608 -0.161,-1.209 -0.356,-2.415 -0.494,-3.626 -0.194,-2.429 -0.455,-4.858 -0.455,-7.295 -0.131,-2.438 0.049,-4.866 0.106,-7.298 0.249,-2.423 0.382,-4.859 0.816,-7.262 0.303,-2.422 0.874,-4.798 1.367,-7.189 0.295,-1.184 0.636,-2.358 0.949,-3.539 0.293,-1.186 0.681,-2.344 1.076,-3.501 0.407,-1.152 0.728,-2.335 1.202,-3.462 l 1.355,-3.408 c 0.463,-1.13 1.017,-2.222 1.52,-3.336 l 0.773,-1.664 0.867,-1.614 c 2.227,-4.355 4.935,-8.448 7.891,-12.327 2.919,-3.922 6.332,-7.43 9.88,-10.758 7.171,-6.603 15.609,-11.723 24.734,-15.325 18.261,-7.152 39.277,-7.939 58.352,-1.087 l 0.022,0.008 c 0.717,0.258 1.508,-0.115 1.766,-0.832 0.237,-0.661 -0.061,-1.385 -0.67,-1.695 -4.676,-2.397 -9.618,-4.345 -14.742,-5.75 -5.142,-1.291 -10.415,-2.196 -15.751,-2.486 -10.663,-0.581 -21.486,0.902 -31.692,4.383 -1.298,0.374 -2.524,0.944 -3.791,1.411 -1.259,0.487 -2.522,0.967 -3.734,1.567 l -3.675,1.723 -3.554,1.971 c -4.65,2.777 -9.159,5.862 -13.182,9.498 -4.06,3.587 -7.835,7.513 -11.125,11.809 -3.316,4.27 -6.345,8.777 -8.854,13.565 l -0.971,1.779 -0.873,1.828 c -0.568,1.226 -1.186,2.429 -1.71,3.674 l -1.531,3.753 c -0.531,1.243 -0.905,2.545 -1.364,3.816 -0.447,1.276 -0.885,2.554 -1.225,3.865 -0.36,1.302 -0.745,2.599 -1.082,3.908 -0.578,2.643 -1.222,5.273 -1.59,7.959 -0.497,2.664 -0.683,5.373 -0.973,8.068 -0.099,2.709 -0.308,5.424 -0.195,8.132 -0.016,2.715 0.24,5.411 0.439,8.113 0.141,1.346 0.341,2.685 0.511,4.027 0.15,1.347 0.395,2.677 0.654,4.004 0.931,5.33 2.386,10.554 4.181,15.645 1.77,5.105 4.044,10.017 6.59,14.769 5.116,9.498 11.69,18.203 19.421,25.748 l 2.947,2.783 c 1.038,0.953 2.213,1.922 3.508,2.814 1.304,0.892 2.751,1.741 4.483,2.39 1.73,0.635 3.822,1.055 6.054,0.817 1.113,-0.146 2.209,-0.413 3.246,-0.853 1.031,-0.437 1.948,-1.004 2.73,-1.602 1.562,-1.207 2.633,-2.486 3.534,-3.597 l 2.402,-3.014 c 0.77,-0.981 1.568,-1.939 2.38,-2.885 6.439,-7.614 13.576,-14.626 21.411,-20.702 15.586,-12.218 34.202,-20.575 53.767,-22.468 9.736,-0.972 19.636,-0.466 29.063,1.905 4.722,1.155 9.283,2.8 13.728,4.793 4.413,2.068 8.662,4.518 12.76,7.247 4.072,2.776 7.963,5.863 11.729,9.127 3.745,3.298 7.331,6.814 10.835,10.438 3.482,3.652 6.862,7.434 10.196,11.281 3.307,3.875 6.588,7.8 10.534,11.208 1.495,1.294 3.757,1.13 5.05,-0.365 C 0.616,2.94 0.727,1.28 0,0"
         style="fill:#fc5858;fill-opacity:1;fill-rule:nonzero;stroke:none"
         id="path781" />
    </g>
    <g
       id="g783"
       transform="matrix(1.3333333,0,0,-1.3333333,643.98594,861.69123)">
      <path
         d="m 0,0 c -1.64,-3.329 -2.545,-6.873 -2.597,-10.527 -0.095,-3.647 0.632,-7.373 1.939,-10.966 2.676,-7.289 7.539,-13.543 14.053,-18.156 3.209,-2.341 6.788,-4.262 10.56,-5.743 3.747,-1.537 7.772,-2.529 11.875,-3.259 8.243,-1.375 16.894,-1.223 25.594,-0.294 l 0.007,10e-4 c 0.911,0.096 1.728,-0.563 1.825,-1.474 0.084,-0.784 -0.395,-1.499 -1.11,-1.744 -8.539,-2.938 -17.736,-4.502 -27.11,-4.028 -4.687,0.208 -9.379,1.023 -13.993,2.382 -4.579,1.418 -9.016,3.415 -13.131,6.034 -2.042,1.328 -4.023,2.78 -5.866,4.42 -1.847,1.627 -3.625,3.372 -5.183,5.324 -0.81,0.947 -1.519,1.984 -2.252,2.998 -0.685,1.053 -1.382,2.104 -1.982,3.175 -1.232,2.145 -2.283,4.411 -3.132,6.772 -1.724,4.707 -2.606,9.856 -2.268,15.055 0.352,5.181 2.001,10.374 4.864,14.666 1.406,2.109 4.257,2.678 6.366,1.272 1.94,-1.294 2.578,-3.81 1.571,-5.846 z"
         style="fill:#fc5858;fill-opacity:1;fill-rule:nonzero;stroke:none"
         id="path785" />
    </g>
    <g
       id="g787"
       transform="matrix(1.3333333,0,0,-1.3333333,1482.3075,1021.16)">
      <path
         d="m 0,0 c -36.098,-97.523 -107.312,-181.624 -197.552,-233.3 0,0 39.627,45.529 43.375,63.111 -68.385,-26.283 -175.347,-23.245 -237.172,8.02 -2.701,-16.57 18.052,-65.515 18.052,-65.515 -50.502,44.316 -90.503,100.519 -115.832,162.75 -8.918,21.911 -16.978,45.861 -35.794,60.198 -10.793,8.222 -24.046,12.358 -36.815,16.944 -12.77,4.585 -25.785,10.075 -34.878,20.146 -9.093,10.069 -13,25.033 -7.046,35.519"
         style="fill:none;stroke:#fc5858;stroke-width:9.166;stroke-linecap:round;stroke-linejoin:round;stroke-miterlimit:10;stroke-dasharray:none;stroke-opacity:1"
         id="path789" />
    </g>
    <g
       id="g791"
       transform="matrix(1.3333333,0,0,-1.3333333,1483.5185,1020.513)">
      <path
         d="M 0,0 C 18.669,2.009 36.481,11.146 49.003,25.139 61.524,39.13 68.638,60.038 68.569,78.814"
         style="fill:none;stroke:#fc5858;stroke-width:9.166;stroke-linecap:round;stroke-linejoin:round;stroke-miterlimit:10;stroke-dasharray:none;stroke-opacity:1"
         id="path793" />
    </g>
    <g
       id="g795"
       transform="matrix(1.3333333,0,0,-1.3333333,1515.1447,922.67696)">
      <path
         d="m 0,0 c 7.559,0.877 14.865,2.164 21.949,4.142 7.081,1.951 13.922,4.526 20.47,7.67 13.123,6.241 24.695,15.559 33.472,26.911 4.386,5.722 8.106,11.957 11.122,18.494 2.997,6.55 5.205,13.447 6.639,20.493 0.709,3.526 1.194,7.096 1.473,10.681 0.295,3.583 0.367,7.186 0.213,10.781 -0.3,7.191 -1.461,14.354 -3.468,21.308 l -0.002,0.007 c -0.702,2.433 0.701,4.975 3.135,5.677 2.336,0.674 4.777,-0.607 5.589,-2.863 5.4,-15.119 6.54,-31.785 3.53,-47.61 -1.455,-7.927 -3.963,-15.646 -7.315,-22.96 C 93.472,45.403 89.212,38.522 84.222,32.22 74.223,19.506 60.947,9.685 46.364,3.213 39.053,-0.004 31.301,-2.199 23.428,-3.245 15.561,-4.265 7.55,-4.194 -0.126,-2.58 c -0.707,0.148 -1.159,0.842 -1.011,1.549 0.119,0.564 0.585,0.967 1.127,1.03 z"
         style="fill:#fc5858;fill-opacity:1;fill-rule:nonzero;stroke:none"
         id="path797" />
    </g>
    <g
       id="g799"
       transform="matrix(1.3333333,0,0,-1.3333333,1285.9742,541.25644)">
      <path
         d="m 0,0 c 14.229,-5.121 28.055,-11.055 41.667,-17.882 l 5.031,-2.695 c 1.678,-0.897 3.292,-1.907 4.941,-2.856 3.315,-1.875 6.479,-3.985 9.689,-6.023 6.312,-4.233 12.509,-8.646 18.39,-13.444 11.872,-9.466 22.788,-20.045 32.93,-31.27 10.148,-11.229 19.367,-23.245 27.912,-35.69 l -0.374,0.478 8.514,-9.031 -0.49,0.426 c 1.972,-1.465 4.309,-2.46 6.821,-2.888 1.255,-0.214 2.546,-0.297 3.843,-0.251 l 0.977,0.061 1.12,0.119 c 0.838,0.076 1.495,0.146 2.22,0.256 5.74,0.814 11.523,2.91 17.413,5.23 1.475,0.537 2.918,1.158 4.362,1.777 l 4.334,1.845 4.265,2.004 2.132,1.001 c 0.706,0.344 1.399,0.717 2.099,1.072 l 4.188,2.16 c 1.39,0.733 2.744,1.532 4.118,2.294 2.763,1.497 5.416,3.186 8.1,4.819 10.657,6.669 20.629,14.411 29.897,22.897 9.22,8.543 17.62,17.958 25.125,28.028 l 0.01,0.012 c 1.504,2.019 4.353,2.445 6.382,0.967 8.02,-5.843 14.008,-14.019 17.815,-22.871 3.82,-8.881 5.629,-18.485 5.518,-28.075 -0.117,-9.54 -2.015,-18.917 -5.011,-27.766 -3.001,-8.865 -7.071,-17.244 -11.718,-25.187 -4.656,-7.968 -9.896,-15.606 -15.799,-22.749 -5.902,-7.137 -12.551,-13.73 -19.99,-19.365 -1.875,-1.386 -3.817,-2.689 -5.72,-4.032 -1.95,-1.284 -3.986,-2.441 -5.982,-3.642 -2.053,-1.117 -4.141,-2.173 -6.218,-3.229 -2.138,-0.948 -4.31,-1.821 -6.452,-2.726 -8.732,-3.269 -18.003,-5.221 -27.216,-5.069 -0.763,0.01 -1.373,0.636 -1.363,1.399 0.009,0.629 0.444,1.157 1.023,1.315 17.191,4.613 32.496,12.862 45.835,23.769 13.317,10.843 25.165,23.915 33.972,38.959 4.403,7.524 8.195,15.364 10.945,23.492 2.748,8.118 4.426,16.538 4.529,24.947 0.101,8.331 -1.495,16.73 -4.769,24.325 -3.263,7.588 -8.29,14.36 -14.806,19.104 l 6.392,0.98 c -7.855,-10.542 -16.641,-20.387 -26.279,-29.314 -9.683,-8.872 -20.104,-16.958 -31.241,-23.929 -2.805,-1.708 -5.578,-3.469 -8.466,-5.036 -1.436,-0.798 -2.851,-1.631 -4.304,-2.398 l -4.379,-2.258 c -0.732,-0.373 -1.456,-0.76 -2.195,-1.121 l -2.229,-1.047 -4.461,-2.095 -4.534,-1.933 c -1.511,-0.646 -3.021,-1.294 -4.565,-1.857 -6.051,-2.37 -12.43,-4.755 -19.451,-5.771 -0.864,-0.13 -1.805,-0.23 -2.567,-0.298 l -1.277,-0.134 c -0.469,-0.033 -0.952,-0.071 -1.428,-0.089 -1.914,-0.069 -3.846,0.051 -5.758,0.379 -3.821,0.648 -7.574,2.207 -10.757,4.586 l -0.083,0.062 c -0.144,0.108 -0.288,0.237 -0.408,0.363 l -8.865,9.4 c -0.108,0.116 -0.207,0.238 -0.295,0.365 l -0.079,0.114 c -8.328,12.127 -17.299,23.82 -27.145,34.715 -9.842,10.891 -20.408,21.128 -31.856,30.252 -5.669,4.63 -11.633,8.871 -17.697,12.942 -3.083,1.954 -6.121,3.985 -9.299,5.779 -1.582,0.908 -3.128,1.881 -4.737,2.739 l -4.825,2.584 c -13.038,6.535 -26.647,12.39 -40.475,17.362 l -0.049,0.018 c -2.382,0.856 -3.619,3.482 -2.761,5.864 0.855,2.381 3.481,3.618 5.863,2.762 z"
         style="fill:#fc5858;fill-opacity:1;fill-rule:nonzero;stroke:none"
         id="path801" />
    </g>
    <g
       id="g803"
       transform="matrix(1.3333333,0,0,-1.3333333,1106.3193,817.65617)">
      <path
         d="m 0,0 c 0,-10.599 -5.886,-19.191 -13.145,-19.191 -7.259,0 -13.145,8.592 -13.145,19.191 0,10.6 5.886,19.191 13.145,19.191 C -5.886,19.191 0,10.6 0,0"
         style="fill:#fc5858;fill-opacity:1;fill-rule:nonzero;stroke:none"
         id="path805" />
    </g>
    <g
       id="g807"
       transform="matrix(1.3333333,0,0,-1.3333333,1365.5171,817.65617)">
      <path
         d="m 0,0 c 0,-10.599 -5.885,-19.191 -13.145,-19.191 -7.259,0 -13.144,8.592 -13.144,19.191 0,10.6 5.885,19.191 13.144,19.191 C -5.885,19.191 0,10.6 0,0"
         style="fill:#fc5858;fill-opacity:1;fill-rule:nonzero;stroke:none"
         id="path809" />
    </g>
    <g
       id="g811"
       transform="matrix(1.3333333,0,0,-1.3333333,1211.4455,800.26817)">
      <path
         d="m 0,0 c 11.245,-5.846 21.626,-13.238 31.302,-21.44 9.647,-8.245 18.654,-17.268 26.951,-26.91 l 6.097,-7.339 5.856,-7.538 5.568,-7.755 5.319,-7.932 5.074,-8.092 4.819,-8.25 4.552,-8.404 c 1.42,-2.852 2.853,-5.7 4.067,-8.649 l 0.204,-0.495 c 0.882,-2.141 -0.139,-4.594 -2.282,-5.476 -0.574,-0.237 -1.191,-0.334 -1.773,-0.313 h -0.003 c -11.439,-0.727 -22.993,-0.386 -34.43,1.122 -5.721,0.734 -11.412,1.771 -17.034,3.121 -2.815,0.655 -5.609,1.412 -8.389,2.214 -2.767,0.847 -5.52,1.744 -8.243,2.73 -5.439,1.979 -10.805,4.194 -15.959,6.845 -2.59,1.295 -5.119,2.71 -7.627,4.151 -1.238,0.75 -2.492,1.47 -3.709,2.254 l -1.842,1.166 c -0.64,0.417 -1.268,0.847 -1.886,1.289 -4.911,3.549 -9.131,7.979 -12.178,13.198 -1.514,2.605 -2.724,5.412 -3.408,8.348 -0.651,2.932 -0.863,5.993 -0.151,8.825 1.484,-5.596 4.545,-10.002 8.059,-13.927 3.56,-3.882 7.648,-7.272 12.01,-10.061 0.547,-0.346 1.098,-0.681 1.654,-1 l 1.778,-0.993 c 1.186,-0.675 2.408,-1.287 3.611,-1.929 2.439,-1.225 4.888,-2.426 7.392,-3.508 4.998,-2.176 10.084,-4.152 15.276,-5.819 5.196,-1.654 10.47,-3.063 15.797,-4.256 2.666,-0.592 5.346,-1.119 8.041,-1.575 2.691,-0.475 5.393,-0.899 8.105,-1.269 10.855,-1.441 21.836,-2.048 32.866,-2.118 h 0.003 l -3.851,-6.283 c -1.555,2.679 -2.891,5.46 -4.24,8.237 l -4.3,8.205 -4.564,8.063 -4.827,7.914 -5.089,7.749 -5.335,7.585 -5.526,7.45 -5.756,7.279 c -7.814,9.598 -16.138,18.793 -24.91,27.592 C 18.346,-17.153 9.216,-8.681 0,0"
         style="fill:#fc5858;fill-opacity:1;fill-rule:nonzero;stroke:none"
         id="path813" />
    </g>
    <g
       id="g815"
       transform="matrix(1.3333333,0,0,-1.3333333,1313.1994,957.55456)">
      <path
         d="m 0,0 c -3.83,-5.868 -8.661,-11.057 -14.047,-15.493 -5.378,-4.458 -11.367,-8.12 -17.66,-11.001 -1.588,-0.693 -3.201,-1.322 -4.793,-1.981 l -4.889,-1.681 -4.984,-1.318 c -1.684,-0.347 -3.361,-0.688 -5.04,-0.988 -6.745,-1.086 -13.612,-1.235 -20.243,-0.192 6.597,1.187 12.931,2.84 18.995,5.047 1.499,0.615 2.998,1.188 4.491,1.756 l 4.373,1.971 4.268,2.133 c 1.383,0.784 2.746,1.597 4.133,2.346 5.442,3.222 10.5,6.987 15.175,11.127 4.666,4.158 8.89,8.743 12.776,13.621 l 0.015,0.018 c 1.578,1.983 4.465,2.309 6.447,0.731 C 0.879,4.612 1.268,1.957 0,0"
         style="fill:#fc5858;fill-opacity:1;fill-rule:nonzero;stroke:none"
         id="path817" />
    </g>
    <g
       id="g819"
       transform="matrix(1.3333333,0,0,-1.3333333,830.13567,1107.7382)">
      <path
         d="m 0,0 c 0,0 43.93,-106.975 219.23,-106.975 183.705,0 239.275,106.387 239.275,106.387 0,0 -48.536,-92.638 -150.478,-157.867 l 3.132,14.141 22.833,35.847 c 0,0 -48.29,-14.556 -108.451,-14.556 -85.749,0 -127.761,25.788 -127.761,25.788 0,0 5.502,-39.356 15.355,-63.121 0,0 -77.798,69.422 -113.135,160.356"
         style="fill:#fc5858;fill-opacity:1;fill-rule:nonzero;stroke:none"
         id="path821" />
    </g>
    <g
       id="g823"
       transform="matrix(1.3333333,0,0,-1.3333333,972.07313,1303.3527)">
      <path
         d="m 0,0 c 0,0 -8.852,-62.604 30.027,-87.519 0,0 19.69,74.24 -30.027,87.519"
         style="fill:#fc5858;fill-opacity:1;fill-rule:nonzero;stroke:none"
         id="path825" />
    </g>
    <g
       id="g827"
       transform="matrix(1.3333333,0,0,-1.3333333,1232.9611,1309.9647)">
      <path
         d="m 0,0 c 0,0 -51.128,-37.195 -41.978,-82.456 0,0 67.028,37.505 41.978,82.456"
         style="fill:#fc5858;fill-opacity:1;fill-rule:nonzero;stroke:none"
         id="path829" />
    </g>
    <g
       id="g831"
       transform="matrix(1.3333333,0,0,-1.3333333,1409.5653,713.58977)">
      <path
         d="M 0,0 C 2.298,-1.22 4.917,-3.245 4.343,-5.782 3.95,-7.517 2.195,-8.542 0.575,-9.275 -6.696,-12.567 -14.604,-14.157 -22.439,-15.683 -36.769,-18.472 -111.913,-32.406 -91.781,2.19 -75.438,30.277 -21.477,11.401 0,0"
         style="fill:#fc5858;fill-opacity:1;fill-rule:nonzero;stroke:none"
         id="path833" />
    </g>
    <g
       id="g835"
       transform="matrix(1.3333333,0,0,-1.3333333,1024.4715,707.5507)">
      <path
         d="m 0,0 c -2.406,-0.988 -5.211,-2.747 -4.889,-5.328 0.221,-1.765 1.867,-2.958 3.407,-3.847 6.914,-3.989 14.627,-6.347 22.275,-8.634 13.986,-4.181 87.401,-25.42 70.76,10.985 C 78.043,22.731 22.491,9.239 0,0"
         style="fill:#fc5858;fill-opacity:1;fill-rule:nonzero;stroke:none"
         id="path837" />
    </g>
  </g>
</svg>
