<?xml version="1.0" encoding="UTF-8" standalone="no"?>
<!-- Created with Inkscape (http://www.inkscape.org/) -->

<svg
   width="275.72873mm"
   height="367.53098mm"
   viewBox="0 0 275.72873 367.53098"
   version="1.1"
   id="svg313"
   inkscape:version="1.1.1 (3bf5ae0d25, 2021-09-20)"
   sodipodi:docname="pollo4.svg"
   xmlns:inkscape="http://www.inkscape.org/namespaces/inkscape"
   xmlns:sodipodi="http://sodipodi.sourceforge.net/DTD/sodipodi-0.dtd"
   xmlns="http://www.w3.org/2000/svg"
   xmlns:svg="http://www.w3.org/2000/svg">
  <sodipodi:namedview
     id="namedview315"
     pagecolor="#ffffff"
     bordercolor="#666666"
     borderopacity="1.0"
     inkscape:pageshadow="2"
     inkscape:pageopacity="0.0"
     inkscape:pagecheckerboard="0"
     inkscape:document-units="px"
     showgrid="false"
     units="mm"
     width="211mm"
     fit-margin-top="0"
     fit-margin-left="0"
     fit-margin-right="0"
     fit-margin-bottom="0"
     inkscape:zoom="0.3884119"
     inkscape:cx="-392.62443"
     inkscape:cy="590.86759"
     inkscape:window-width="1920"
     inkscape:window-height="1057"
     inkscape:window-x="-8"
     inkscape:window-y="-8"
     inkscape:window-maximized="1"
     inkscape:current-layer="layer1" />
  <defs
     id="defs310" />
  <g
     inkscape:label="Capa 1"
     inkscape:groupmode="layer"
     id="layer1"
     transform="translate(-50.14481,-62.826257)">
    <g
       id="g47"
       transform="matrix(0.35277778,0,0,-0.35277778,254.25683,281.03589)">
      <path
         d="m 0,0 c -1.028,-11.106 -6.386,-21.348 -12.527,-30.659 -11.94,-18.104 -30.833,-36.857 -51.935,-46.845 33.993,10.781 66.314,26.851 95.331,47.587 16.977,12.131 31.954,25.405 43.198,42.983 5.475,8.558 11.733,16.59 18.13,24.518 C 65.805,23.308 35.264,10.621 0.065,0.961 0.043,0.641 0.03,0.321 0,0"
         style="fill:#e6b172;fill-opacity:1;fill-rule:nonzero;stroke:none"
         id="path49" />
    </g>
    <g
       id="g51"
       transform="matrix(0.35277778,0,0,-0.35277778,160.21108,308.30177)">
      <path
         d="m 0,0 c -3.859,1.019 -7.715,2.097 -11.401,3.628 -16.475,6.847 -28.553,23.262 -30.185,41.028 -1.157,12.587 2.474,24.503 8.592,35.567 -75.728,23.927 -127.801,64.915 -163.114,105.897 1.487,-4.647 3.052,-9.266 4.677,-13.845 7.24,-20.402 16.037,-41.167 32.151,-55.624 21.346,-19.154 33.629,-46.876 56.546,-64.12 22.916,-17.244 48.151,-31.116 73.289,-44.925 50.24,-27.599 111.217,-28.1 168.155,-21.472 10.218,1.189 20.377,2.858 30.443,4.977 C 112.953,-17.521 54.979,-14.509 0,0"
         style="fill:#e6b172;fill-opacity:1;fill-rule:nonzero;stroke:none"
         id="path53" />
    </g>
    <g
       id="g55"
       transform="matrix(0.35277778,0,0,-0.35277778,301.80122,245.06635)">
      <path
         d="m 0,0 c 5.481,10.7 10.963,21.401 16.212,32.217 3.906,-6.144 8.977,-12.474 12.883,-18.617 0.634,-0.998 2.503,-1.768 2.593,-0.588 3.653,47.804 14.737,94.783 5.535,141.836 -9.203,47.052 -28.443,91.841 -53.765,132.553 -9.417,15.14 -21.408,28.852 -33.09,42.321 -9.332,10.758 -16.274,23.394 -25.364,34.359 -11.664,14.07 -26.556,25.038 -41.287,35.856 -22.646,16.629 -45.291,33.259 -67.936,49.888 -3.824,2.809 -9.948,4.472 -14.629,5.248 -17.337,2.876 -33.102,11.458 -49.462,17.876 -20.125,7.895 -41.358,12.567 -62.613,16.517 -10.39,1.931 -20.95,3.705 -31.478,2.798 -10.529,-0.908 -21.174,-4.785 -28.291,-12.597 -2.667,-2.927 -4.839,-6.498 -5.227,-10.438 -0.974,-9.869 8.8,-17.048 17.373,-22.032 -4.273,0.938 -8.93,1.757 -13.203,2.696 -6.929,1.52 -14.873,2.842 -20.54,-1.427 -4.374,-3.295 -6.043,-8.988 -7.451,-14.281 -0.343,-1.29 -0.675,-2.719 -0.076,-3.913 0.567,-1.13 1.812,-1.728 2.989,-2.189 6.339,-2.485 14.426,-2.817 21.181,-1.968 -42.352,-10.799 -80.029,-34.92 -115.122,-60.972 -11.035,-8.193 -21.915,-16.626 -32.064,-25.894 -25.445,-23.236 -46.115,-51.679 -60.357,-83.055 -6.172,-13.595 -12.423,-29.739 -14.254,-44.557 -3.807,-30.823 -19.753,-61.063 -16.613,-91.959 4.92,4.236 9.659,9.468 14.579,13.704 -4.728,-17.529 -8.371,-35 -9.484,-53.122 -1.53,-24.875 3.861,-49.551 11.495,-73.39 35.313,-40.982 87.386,-81.97 163.114,-105.897 6.5,11.756 15.81,22.551 25.201,32.155 6.364,6.508 12.928,12.882 20.346,18.158 14.608,10.389 31.929,16.123 48.959,21.714 14.601,4.793 29.361,9.62 44.671,10.942 12.358,1.068 24.794,-0.177 37.094,-1.775 31.477,-4.091 63.534,-10.864 90.019,-28.355 18.72,-12.364 34.91,-32.534 33.356,-54.812 35.199,9.66 65.739,22.347 92.132,36.623 12.172,15.086 24.857,29.793 33.671,46.998 C -5.935,-11.586 -2.968,-5.793 0,0"
         style="fill:#f0c788;fill-opacity:1;fill-rule:nonzero;stroke:none"
         id="path57" />
    </g>
    <g
       id="g59"
       transform="matrix(0.35277778,0,0,-0.35277778,224.95733,310.56932)">
      <path
         d="M 0,0 C 6.305,1.199 12.539,3.348 18.591,6.213 7.753,2.775 -3.255,-0.12 -14.38,-2.461 -9.573,-1.723 -4.778,-0.909 0,0"
         style="fill:#ffff8a;fill-opacity:1;fill-rule:nonzero;stroke:none"
         id="path61" />
    </g>
    <g
       id="g63"
       transform="matrix(0.35277778,0,0,-0.35277778,254.27991,280.6969)">
      <path
         d="m 0,0 c 1.554,22.278 -14.636,42.448 -33.355,54.812 -26.486,17.491 -58.543,24.264 -90.02,28.355 -12.3,1.598 -24.736,2.843 -37.094,1.775 -15.31,-1.322 -30.07,-6.149 -44.671,-10.942 -17.03,-5.591 -34.351,-11.325 -48.959,-21.714 -7.418,-5.276 -13.982,-11.65 -20.346,-18.158 -9.391,-9.604 -18.701,-20.399 -25.201,-32.155 41.638,-13.157 90.421,-21.16 147.516,-21.16 58.428,0 108.808,7.299 152.13,19.187"
         style="fill:#ffff8a;fill-opacity:1;fill-rule:nonzero;stroke:none"
         id="path65" />
    </g>
    <g
       id="g67"
       transform="matrix(0.35277778,0,0,-0.35277778,249.83745,291.85177)">
      <path
         d="m 0,0 c 6.142,9.312 11.499,19.553 12.527,30.659 0.03,0.321 0.043,0.641 0.066,0.961 -43.322,-11.888 -93.702,-19.187 -152.131,-19.187 -57.094,0 -105.877,8.004 -147.515,21.16 -6.118,-11.064 -9.749,-22.98 -8.592,-35.567 1.632,-17.766 13.709,-34.181 30.185,-41.028 3.686,-1.531 7.542,-2.609 11.401,-3.628 54.979,-14.509 112.953,-17.521 169.153,-8.889 11.125,2.341 22.133,5.237 32.971,8.674 C -30.833,-36.856 -11.94,-18.104 0,0"
         style="fill:#fff06b;fill-opacity:1;fill-rule:nonzero;stroke:none"
         id="path69" />
    </g>
    <g
       id="g71"
       transform="matrix(0.35277778,0,0,-0.35277778,306.82503,165.25105)">
      <path
         d="m 0,0 c -0.633,0.607 -1.292,1.218 -1.977,1.834 0.31,0.134 0.6,0.27 0.903,0.404 l -28.278,58.937 -35.875,48.48 -61.939,63.445 -53.585,37.473 -67.639,33.722 -78.251,21.965 -36.239,1.342 -19.563,-9.197 -3.436,-16.355 7.926,-15.394 -9.728,-2.655 -18.848,-1.783 -7.788,-11.645 8.087,-15.593 -83.327,-39.84 -57.085,-51.953 -48.105,-68.63 -9.232,-27.251 c 0.969,-0.427 1.962,-0.85 3.006,-1.266 -1.762,-1.354 -3.344,-2.684 -4.786,-3.99 l -7.614,-22.477 c 3.438,-4.641 10.925,-8.389 22.43,-11.034 -20.352,-17.122 -15.853,-27.459 12.415,-28.588 -16.133,-22.52 -7.95,-35.575 22.555,-36.06 -8.571,-28.857 6.119,-44.566 40.407,-43.266 -8.117,-23.96 2.249,-31.879 28.649,-21.88 15.401,-38.101 50.672,-54.2 96.375,-43.455 23.183,-29.138 55.73,-33.542 89.465,-11.616 22.743,-21.926 44.948,-19.924 61.284,5.366 37.289,-15.759 67.756,-5.963 83.68,26.527 48.595,-2.027 80.922,21.038 87.987,62.544 44.348,11.796 64.095,41.537 53.405,81.249 12.331,3.108 20.352,7.554 24.005,13.077 L 1.115,-2.324 Z"
         style="fill:#f3d296;fill-opacity:1;fill-rule:nonzero;stroke:none"
         id="path73" />
    </g>
    <g
       id="g75"
       transform="matrix(0.35277778,0,0,-0.35277778,195.97735,184.03854)">
      <path
         d="m 0,0 c -12.637,-11.736 -20.075,-29.354 -18.007,-46.477 1.777,-14.712 10.046,-27.793 18.974,-39.622 3.193,-4.23 6.539,-8.417 10.698,-11.702 8.205,-6.48 19.573,-11.726 30.02,-12.147 15.452,-0.622 32.392,7.127 39.238,20.993 6.833,-5.929 10.887,-14.935 10.795,-23.98 21.711,17.821 38.364,46.022 31.645,73.294 -2.99,12.141 -10.267,22.762 -18.111,32.499 -3.99,4.953 -8.211,9.801 -13.334,13.571 C 65.563,25.826 23.555,21.875 0,0"
         style="fill:#ffff6e;fill-opacity:1;fill-rule:nonzero;stroke:none"
         id="path77" />
    </g>
    <g
       id="g79"
       transform="matrix(0.35277778,0,0,-0.35277778,175.14709,184.53808)">
      <path
         d="m 0,0 c -0.939,4.402 -4.252,8.024 -8.162,10.255 -3.91,2.23 -8.39,3.239 -12.832,3.968 -10.446,1.715 -21.389,2.002 -31.4,-1.441 C -62.405,9.34 -71.371,1.685 -74.365,-8.47 c -0.368,-1.247 -0.646,-2.571 -0.362,-3.841 0.654,-2.914 3.863,-4.377 6.711,-5.275 C -54.476,-21.851 6.654,-31.208 0,0"
         style="fill:#eb4e63;fill-opacity:1;fill-rule:nonzero;stroke:none"
         id="path81" />
    </g>
    <g
       id="g83"
       transform="matrix(0.35277778,0,0,-0.35277778,266.51138,193.05918)">
      <path
         d="m 0,0 c 5.192,2.209 10.417,5.63 12.188,10.987 1.689,5.106 -0.292,10.914 -3.94,14.865 -3.649,3.95 -8.721,6.297 -13.856,7.891 -14.587,4.529 -31.068,3.492 -44.398,-3.964 C -66.612,20.492 -61.665,2.521 -44.807,-2.977 -31.742,-7.237 -12.29,-5.229 0,0"
         style="fill:#eb4e63;fill-opacity:1;fill-rule:nonzero;stroke:none"
         id="path85" />
    </g>
    <g
       id="g87"
       transform="matrix(0.35277778,0,0,-0.35277778,163.45049,86.17887)">
      <path
         d="m 0,0 c -8.56,-6.191 -9.995,-20.127 -2.875,-27.933 -43.393,-18.065 -83.419,-44.181 -117.433,-76.621 -2.711,-2.585 -5.407,-5.228 -8.554,-7.259 -3.559,-2.298 -7.587,-3.745 -11.53,-5.292 -19.277,-7.567 -37.301,-17.951 -55.242,-28.294 12.388,18.74 24.777,37.48 37.165,56.22 -9.895,-3.034 -18.827,-8.542 -28.364,-12.561 -15.745,-6.636 -33.209,-9.141 -50.184,-7.198 -9.659,1.106 -18.848,-1.585 -28.53,-0.699 -9.841,0.903 -18.635,6.296 -26.878,11.747 -7.938,5.25 -15.943,10.88 -21.232,18.792 -5.289,7.911 -7.345,18.676 -2.723,26.995 8.795,15.831 7.599,34.304 15.805,50.448 14.749,29.014 41.612,52.033 72.724,61.59 10.136,3.113 21.113,4.472 31.339,1.67 10.226,-2.801 19.541,-10.317 22.517,-20.495 2.975,-10.176 -1.795,-22.615 -11.63,-26.576 -7.19,-2.896 -15.287,-1.104 -22.938,0.141 -12.85,2.09 -27.708,1.866 -36.754,-7.495 -6.4,-6.623 -8.316,-16.282 -9.592,-25.402 -1.355,-9.688 5.582,-18.719 13.794,-24.038 8.473,-5.487 18.437,-8.65 28.524,-9.056 26.909,-1.083 50.379,16.498 73.949,29.525 24.783,13.697 52.001,22.975 79.991,27.267 9.849,1.51 19.829,2.41 29.781,1.903 C -18.937,6.873 -9.402,3.243 0,0"
         style="fill:#f5a7b1;fill-opacity:1;fill-rule:nonzero;stroke:none"
         id="path89" />
    </g>
    <g
       id="g91"
       transform="matrix(0.35277778,0,0,-0.35277778,75.641881,189.5779)">
      <path
         d="m 0,0 c -7.604,-21.59 -9.993,-44.675 -10.667,-67.555 -0.236,-7.995 -0.269,-16.02 0.65,-23.966 2.265,-19.568 10.256,-38.104 20.468,-54.948 13.828,-22.807 32.371,-43.413 56.045,-55.699 -1.036,3.54 -2.072,7.081 -3.108,10.621 -4.976,5.194 -8.048,11.89 -10.767,18.55 -18.476,45.262 -24.597,96.261 -12.589,143.65 -3.795,-1.456 -7.59,-2.913 -11.385,-4.369 0.696,0.267 1.006,35.631 1.467,39.328 0.813,6.518 1.907,12.999 3.281,19.422 1.089,5.096 5.132,13.309 3.755,18.407 C 33.623,56.504 19.841,36.35 16.503,31.784 9.433,22.112 3.976,11.287 0,0"
         style="fill:#f5a7b1;fill-opacity:1;fill-rule:nonzero;stroke:none"
         id="path93" />
    </g>
    <g
       id="g95"
       transform="matrix(0.35277778,0,0,-0.35277778,281.42002,276.14695)">
      <path
         d="m 0,0 c 32.28,35.058 57.251,76.814 72.86,121.842 6.334,-5.999 10.871,-13.605 15.326,-21.106 6.21,9.034 7.851,20.364 8.934,31.271 5.11,51.449 1.526,103.751 -10.555,154.022 15.936,-24.258 26.998,-51.702 32.339,-80.23 4.113,-21.973 6.78,-44.828 3.738,-66.975 C 119.348,114.842 108.58,92.624 97.958,70.871 95.921,66.7 93.849,62.474 90.79,58.982 87.312,55.013 82.476,51.826 81,46.759 78.984,39.839 70.696,36.595 65.928,31.189 63.01,27.882 60.071,24.554 56.597,21.837 52.841,18.9 48.547,16.744 44.285,14.608 30.347,7.624 15.564,-0.896 0,0"
         style="fill:#f5a7b1;fill-opacity:1;fill-rule:nonzero;stroke:none"
         id="path97" />
    </g>
    <g
       id="g99"
       transform="matrix(0.35277778,0,0,-0.35277778,138.91589,299.35416)">
      <path
         d="m 0,0 c -17.073,-34.574 -30.292,-71.051 -39.333,-108.536 -1.536,-6.365 -2.928,-13.195 -0.642,-19.331 2.287,-6.136 9.767,-10.769 15.543,-7.683 -13.143,-29.195 -22.12,-59.362 -29.409,-90.539 -2.208,-9.444 -4.15,-19.151 -3.04,-28.787 1.11,-9.636 5.743,-19.324 14.062,-24.311 6.188,-3.709 13.644,-4.467 20.827,-5.137 -3.954,-13.817 -4.801,-29.075 -2.789,-43.305 1.064,-7.515 3.049,-15.103 7.471,-21.271 5.609,-7.824 14.617,-12.6 23.851,-15.32 6.494,-1.913 13.312,-2.944 20.056,-2.342 15.57,1.388 29.114,11.231 40.158,22.295 11.395,11.417 21.652,26.625 18.851,42.51 -1.035,5.872 -2.544,9.818 -3.928,15.616 -0.378,1.583 -0.758,3.22 -0.467,4.821 0.29,1.6 1.437,3.164 3.046,3.407 2.036,0.308 4.141,-1.51 6.028,-0.684 7.079,3.099 15.544,4.956 20.271,11.07 4.727,6.113 7.373,13.55 9.666,20.93 7.506,24.155 12.039,49.231 13.464,74.485 2.447,43.377 5.243,86.718 6.351,130.15 -26.78,3.541 -54.328,9.281 -80.162,17.177 -7.758,2.371 -15.461,4.935 -23.029,7.86 C 24.057,-11.983 11.839,-6.916 0,0"
         style="fill:#f5a7b1;fill-opacity:1;fill-rule:nonzero;stroke:none"
         id="path101" />
    </g>
    <g
       id="g103"
       transform="matrix(0.35277778,0,0,-0.35277778,147.78063,304.11803)">
      <path
         d="m 0,0 c 11.79,-4.217 23.579,-8.433 35.369,-12.649 2.389,-0.855 4.978,-1.872 6.215,-4.088 0.844,-1.511 0.898,-3.323 0.929,-5.053 0.631,-35.367 0.153,-70.755 -1.433,-106.092 -0.043,-1.015 -11.274,0.394 -12.482,1.884 -2.577,3.179 -2.328,14.144 -3.078,18.37 -2.135,12.023 -4.498,24.004 -7.085,35.937 C 13.205,-47.571 7.055,-23.651 0,0"
         style="fill:#fff06b;fill-opacity:1;fill-rule:nonzero;stroke:none"
         id="path105" />
    </g>
    <g
       id="g111"
       transform="matrix(0.35277778,0,0,-0.35277778,149.23517,352.85203)">
      <path
         d="m 0,0 c -1.232,-0.915 -2.056,-2.279 -2.67,-3.687 -3.637,-8.331 -0.7,-17.925 2.365,-26.483 1.008,-2.813 2.241,-5.874 4.898,-7.239 4.221,-2.169 10.431,0.798 13.59,-2.744 0.741,-0.83 1.165,-1.914 1.955,-2.698 0.866,-0.86 2.085,-1.269 3.287,-1.484 4.312,-0.769 8.968,0.778 11.963,3.974 1.81,1.93 3.602,4.665 6.23,4.361 1.067,-0.123 1.99,-0.761 2.961,-1.22 3.677,-1.735 8.245,-0.801 11.485,1.656 3.241,2.457 5.29,6.213 6.469,10.106 2.16,7.133 1.606,15.053 -1.528,21.815 -1.602,3.458 -3.984,6.727 -7.39,8.437 C 50.209,6.505 45.655,6.28 43.013,3.534 40.241,8.047 34.777,10.752 29.508,10.221 23.437,9.608 20.937,4.4 15.75,2.382 10.84,0.471 4.437,3.291 0,0"
         style="fill:#fff06b;fill-opacity:1;fill-rule:nonzero;stroke:none"
         id="path113" />
    </g>
    <g
       id="g123"
       transform="matrix(0.35277778,0,0,-0.35277778,221.67982,347.68369)">
      <path
         d="m 0,0 c 5.175,1.059 10.761,-0.069 15.119,-3.054 4.164,7.666 4.969,16.648 5.691,25.342 2.483,29.883 4.965,59.767 7.448,89.65 C 28.088,109.886 6.641,107.006 3.952,102.815 -0.225,96.306 2.657,77.718 2.392,69.974 1.595,46.649 0.797,23.324 0,0"
         style="fill:#fff06b;fill-opacity:1;fill-rule:nonzero;stroke:none"
         id="path125" />
    </g>
    <g
       id="g127"
       transform="matrix(0.35277778,0,0,-0.35277778,212.89999,353.8101)">
      <path
         d="m 0,0 c -1.082,-4.204 -0.965,-8.615 -0.694,-12.948 0.307,-4.91 0.87,-10.012 3.484,-14.18 2.614,-4.169 7.865,-7.083 12.523,-5.498 2.696,0.917 5.213,3.23 7.975,2.535 0.684,-4.015 4.977,-6.801 9.04,-6.518 4.064,0.281 7.65,3.115 9.646,6.666 0.507,0.9 0.971,1.898 1.851,2.44 1.928,1.19 4.269,-0.466 6.416,-1.19 3.915,-1.323 8.34,0.758 10.951,3.961 2.612,3.202 3.79,7.309 4.818,11.311 1.683,6.557 2.865,14.342 -1.643,19.392 -4.581,5.133 -12.785,4.717 -19.284,2.46 -4.158,4.197 -9.495,7.628 -15.395,7.931 C 21.12,16.804 19.86,8.849 14.211,7.312 6.696,5.267 3.115,12.103 0,0"
         style="fill:#fff06b;fill-opacity:1;fill-rule:nonzero;stroke:none"
         id="path129" />
    </g>
    <g
       id="g155"
       transform="matrix(0.35277778,0,0,-0.35277778,211.9054,214.31231)">
      <path
         d="m 0,0 c -0.712,-7.617 -6.218,-14.087 -7.255,-21.667 -0.064,-0.468 -0.104,-0.973 0.126,-1.386 0.262,-0.469 0.803,-0.698 1.312,-0.872 10.631,-3.631 21.882,2.53 31.423,8.459 5.373,3.339 11.141,7.173 13.02,13.211 C 33.584,-0.919 28.95,1.601 24.371,4.099 17.34,7.935 4.285,18.728 -3.76,17.259 -2.958,11.589 0.589,6.302 0,0"
         style="fill:#fff06b;fill-opacity:1;fill-rule:nonzero;stroke:none"
         id="path157" />
    </g>
    <g
       id="g159"
       transform="matrix(0.35277778,0,0,-0.35277778,223.74378,348.8643)">
      <path
         d="m 0,0 c -1.342,0.074 -2.702,0.147 -4.016,-0.132 -3.765,-0.8 -6.417,-4.408 -7.268,-8.163 -0.851,-3.754 -0.253,-7.666 0.347,-11.468 0.268,-1.691 0.544,-3.415 1.314,-4.945 0.77,-1.529 2.127,-2.863 3.813,-3.163 1.384,-0.246 2.79,0.22 4.082,0.772 6.133,2.623 14.223,9.11 15.64,16.097 C 15.566,-2.85 6.367,-0.354 0,0"
         style="fill:#ffff8a;fill-opacity:1;fill-rule:nonzero;stroke:none"
         id="path161" />
    </g>
    <g
       id="g163"
       transform="matrix(0.35277778,0,0,-0.35277778,156.10312,352.93055)">
      <path
         d="m 0,0 c -2.305,-3.945 -3.008,-8.929 -1.325,-13.177 0.663,-1.674 1.732,-3.258 3.299,-4.145 1.153,-0.653 2.505,-0.888 3.83,-0.871 5.536,0.068 10.102,4.172 13.951,8.152 1.596,1.649 3.225,3.42 3.807,5.641 0.87,3.322 -0.904,6.894 -3.543,9.092 C 12.434,11.009 4.734,8.103 0,0"
         style="fill:#ffff8a;fill-opacity:1;fill-rule:nonzero;stroke:none"
         id="path165" />
    </g>
    <g
       id="g167"
       transform="matrix(0.35277778,0,0,-0.35277778,90.440627,172.45717)">
      <path
         d="M 0,0 7.614,22.477 C -2.019,13.742 -4.516,6.098 0,0"
         style="fill:#f3d296;fill-opacity:1;fill-rule:nonzero;stroke:none"
         id="path169" />
    </g>
    <g
       id="g171"
       transform="matrix(0.35277778,0,0,-0.35277778,306.82503,165.25105)">
      <path
         d="M 0,0 1.115,-2.324 9.284,-27.563 C 14.204,-20.124 11.186,-10.729 0,0"
         style="fill:#f3d296;fill-opacity:1;fill-rule:nonzero;stroke:none"
         id="path173" />
    </g>
    <g
       id="g175"
       transform="matrix(0.35277778,0,0,-0.35277778,94.248687,246.23217)">
      <path
         d="m 0,0 c 0,0 28.143,-48.039 41.826,-52.743 13.683,-4.703 14.137,4.476 14.137,4.476 0,0 9.345,-31.962 23.884,-15.071 -1.07,-7.269 6.074,-16.119 11.688,-18.71 8.338,-3.848 16.078,4.299 16.078,4.299 0,0 12.873,-25.451 32.561,-25.451 11.57,0 13.812,7.477 13.812,7.477 L 94.849,-30.08 Z"
         style="fill:#f0c788;fill-opacity:1;fill-rule:nonzero;stroke:none"
         id="path177" />
    </g>
    <g
       id="g179"
       transform="matrix(0.35277778,0,0,-0.35277778,148.57146,280.00098)">
      <path
         d="m 0,0 c 0,0 7.357,-18.595 27.132,-21.16 19.776,-2.566 24.272,8.408 24.272,8.408 0,0 9.615,-20.381 33.56,-22.947 23.946,-2.566 27.382,14.539 27.382,14.539 0,0 0.84,-7.697 16.234,-9.407 15.393,-1.711 15.139,9.421 15.139,9.421 0,0 7.095,-9.421 20.779,-8.994 13.683,0.428 11.548,9.577 11.548,9.577 0,0 6.411,-17.371 23.515,-15.398 17.104,1.973 16.819,18.403 16.819,18.403 0,0 3.838,-8.734 18.738,-8.734 14.9,0 12.761,13.024 12.761,13.024 0,0 5.988,-7.892 18.388,-7.892 12.4,0 12.551,13.962 12.551,13.962 0,0 0.704,-5.41 10.967,-5.41 10.262,0 9.861,10.635 9.861,10.635 L 133.283,18.179 Z"
         style="fill:#ffff8a;fill-opacity:1;fill-rule:nonzero;stroke:none"
         id="path181" />
    </g>
    <g
       id="g183"
       transform="matrix(0.35277778,0,0,-0.35277778,254.27991,280.6969)">
      <path
         d="m 0,0 c 0,0 3.982,-6.039 8.152,-6.039 10.583,0 16.014,13.371 16.014,13.371 0,0 2.854,-3.216 8.199,-3.216 5.344,0 6.051,8.233 6.051,8.233 0,0 1.646,-3.101 4.532,-3.101 2.886,0 4.607,6.608 4.607,6.608 0,0 3.127,-4.216 7.082,-4.216 3.955,0 9.483,11.193 9.483,11.193 0,0 -0.22,-4.071 3.629,-4.071 3.848,0 6.733,8.866 6.733,8.866 0,0 -0.018,-2.986 2.451,-2.986 2.467,0 9.949,9.192 9.949,9.192 L 61.655,37.684 2.433,5.827 Z"
         style="fill:#f0c788;fill-opacity:1;fill-rule:nonzero;stroke:none"
         id="path185" />
    </g>
    <g
       id="g187"
       transform="matrix(0.35277778,0,0,-0.35277778,163.06498,87.196916)">
      <path
         d="m 0,0 c -4.135,1.225 -8.293,2.364 -12.532,3.146 -2.102,0.467 -4.243,0.742 -6.366,1.09 -1.063,0.17 -2.14,0.257 -3.208,0.39 -1.072,0.113 -2.137,0.27 -3.215,0.328 -8.593,0.707 -17.258,0.569 -25.876,-0.324 -17.269,-1.708 -34.203,-6.516 -50.657,-12.559 -16.469,-6.094 -32.439,-13.714 -48.106,-21.984 l -5.866,-3.132 c -1.917,-1.04 -3.835,-2.09 -5.76,-3.179 -3.853,-2.172 -7.739,-4.429 -11.744,-6.609 -7.991,-4.334 -16.549,-8.488 -26.107,-10.52 -9.575,-1.992 -19.457,-1.666 -28.883,1.047 -4.701,1.37 -9.276,3.408 -13.428,6.223 -4.148,2.806 -7.863,6.404 -10.71,10.629 -5.749,8.558 -7.567,19.178 -5.613,29.025 0.973,4.931 2.938,9.72 5.866,13.882 2.913,4.155 6.662,7.634 10.89,10.278 4.232,2.644 8.946,4.482 13.864,5.364 2.46,0.437 4.968,0.634 7.481,0.562 2.525,-0.064 5.012,-0.439 7.338,-0.935 4.673,-1.002 8.928,-2.455 13.027,-3.395 4.082,-0.948 8.008,-1.346 11.508,-0.426 3.433,0.836 6.474,3.13 8.632,6.219 2.165,3.078 3.514,6.873 3.824,10.715 0.167,1.92 0.071,3.853 -0.281,5.714 -0.358,1.876 -0.97,3.596 -1.885,5.343 -1.789,3.445 -4.476,6.456 -7.707,8.833 -3.234,2.377 -6.974,4.156 -10.909,5.277 -3.963,1.12 -8.015,1.592 -12.195,1.369 -8.342,-0.357 -16.578,-3.112 -24.341,-6.856 -15.553,-7.73 -29.842,-18.381 -41.882,-31.022 -12.025,-12.687 -21.912,-27.386 -29.02,-43.302 -3.532,-7.906 -6.225,-16.18 -7.501,-24.582 -1.279,-8.372 -1.095,-16.93 1.426,-24.685 2.448,-7.772 7.36,-14.54 13.817,-19.575 6.448,-5.078 14.259,-8.554 22.437,-10.803 8.199,-2.249 16.788,-3.336 25.401,-3.524 8.69,-0.173 17.4,0.3 26.015,1.493 34.518,4.537 67.532,19.755 93.58,42.922 l 0.002,0.002 5.08,-6.222 c -29.977,-21.624 -54.335,-51.027 -70.004,-84.503 l -5.661,5.187 c 10.413,5.985 21.11,11.024 31.709,16.108 10.588,5.076 21.173,10.076 31.145,15.81 l 0.023,0.014 c 1.926,1.107 4.386,0.444 5.494,-1.482 1.108,-1.926 0.444,-4.386 -1.482,-5.495 h -0.001 c -10.413,-5.985 -21.11,-11.023 -31.709,-16.108 -10.588,-5.075 -21.174,-10.075 -31.146,-15.81 l -0.011,-0.006 c -1.926,-1.109 -4.386,-0.445 -5.494,1.481 -0.675,1.175 -0.682,2.568 -0.156,3.713 16.263,34.734 41.482,65.176 72.585,87.617 l 0.024,0.018 c 1.802,1.3 4.315,0.892 5.615,-0.908 1.211,-1.679 0.941,-3.976 -0.559,-5.333 l -0.002,-0.002 c -26.6,-25.228 -61.499,-41.299 -97.832,-46.081 -9.093,-1.186 -18.282,-1.618 -27.451,-1.363 -9.237,0.276 -18.501,1.503 -27.521,4.05 -8.985,2.56 -17.839,6.479 -25.398,12.564 -3.768,3.028 -7.156,6.615 -9.935,10.642 -2.78,4.024 -4.936,8.491 -6.353,13.146 -1.439,4.651 -2.167,9.463 -2.325,14.23 -0.168,4.772 0.205,9.507 0.979,14.129 1.543,9.256 4.559,18.087 8.398,26.436 7.654,16.63 18.19,31.863 30.878,44.973 12.651,13.175 27.464,24.182 43.935,32.307 8.288,3.971 17.361,7.003 26.931,7.453 9.578,0.573 19.47,-2.003 27.457,-7.749 3.981,-2.88 7.454,-6.654 9.822,-11.13 0.602,-1.11 1.1,-2.267 1.568,-3.495 0.427,-1.225 0.79,-2.47 1.035,-3.734 0.5,-2.522 0.64,-5.092 0.443,-7.623 -0.383,-5.059 -2.059,-10.002 -4.992,-14.261 -1.467,-2.127 -3.291,-4.054 -5.417,-5.655 -2.143,-1.573 -4.584,-2.827 -7.199,-3.527 -2.573,-0.711 -5.21,-0.942 -7.742,-0.845 -2.534,0.094 -4.963,0.479 -7.277,0.969 -4.626,0.991 -8.873,2.356 -12.958,3.144 -2.048,0.397 -4.003,0.649 -5.946,0.664 -1.955,0.022 -3.918,-0.165 -5.85,-0.544 -3.864,-0.762 -7.596,-2.291 -10.902,-4.439 -3.307,-2.148 -6.177,-4.929 -8.336,-8.133 -2.16,-3.188 -3.602,-6.867 -4.289,-10.709 -1.404,-7.676 0.248,-15.973 4.632,-22.197 2.209,-3.148 5.065,-5.835 8.35,-7.975 3.285,-2.145 6.996,-3.723 10.87,-4.829 7.757,-2.18 16.271,-2.391 24.159,-0.653 7.959,1.753 15.679,5.486 23.307,9.727 3.823,2.125 7.644,4.387 11.552,6.637 1.955,1.124 3.938,2.249 5.947,3.339 l 5.964,3.163 c 15.945,8.359 32.317,16.126 49.388,22.392 8.529,3.139 17.242,5.866 26.142,7.976 4.435,1.103 8.939,1.966 13.45,2.771 4.532,0.717 9.079,1.376 13.669,1.737 C -33.776,15.694 -14.9,13.8 2.556,7.631 4.651,6.891 5.75,4.592 5.01,2.496 4.293,0.47 2.121,-0.624 0.084,-0.024 Z"
         style="fill:#4c6fa3;fill-opacity:1;fill-rule:nonzero;stroke:none"
         id="path189" />
    </g>
    <g
       id="g191"
       transform="matrix(0.35277778,0,0,-0.35277778,179.04676,85.410626)">
      <path
         d="m 0,0 c -11.566,-2.654 -22.873,2.72 -34.477,2.008 -9.183,-0.564 -17.966,-5.05 -21.261,-14.099 -2.771,-7.607 0.326,-15.87 7.666,-19.443 7.301,-3.554 16.552,-2.058 23.995,0.264 5.772,1.801 3.39,10.661 -2.507,9.094 -5.043,-1.34 -11.075,-3.062 -16.232,-1.303 -6.64,2.262 -4.901,9.564 -0.341,13.135 6.009,4.707 15.139,2.927 22.021,1.788 7.88,-1.304 15.709,-2.46 23.457,0.139 C 7.631,-6.636 5.507,1.265 0,0"
         style="fill:#4c6fa3;fill-opacity:1;fill-rule:nonzero;stroke:none"
         id="path193" />
    </g>
    <g
       id="g195"
       transform="matrix(0.35277778,0,0,-0.35277778,212.25991,177.23653)">
      <path
         d="m 0,0 c 8.028,1.673 16.5,1.379 24.6,-0.432 8.112,-1.835 15.865,-5.173 22.964,-9.555 7.093,-4.401 13.529,-9.926 18.927,-16.396 5.397,-6.463 9.745,-13.898 12.573,-21.96 2.837,-8.062 4.044,-16.654 3.844,-25.168 -0.205,-8.523 -1.827,-16.993 -4.706,-25.025 -2.866,-8.038 -7.071,-15.615 -12.395,-22.367 -5.323,-6.748 -11.846,-12.649 -19.322,-17.12 -2.419,-1.448 -5.554,-0.66 -7.001,1.76 -0.881,1.473 -0.934,3.21 -0.295,4.671 l 0.264,0.59 c 0.591,1.417 0.913,2.835 1.006,4.319 0.087,1.493 -0.237,3.059 -0.656,4.639 -0.417,1.588 -1.228,3.169 -2.112,4.69 -0.866,1.545 -2.014,2.984 -3.207,4.35 -1.216,1.366 -2.622,2.536 -4.028,3.649 -1.373,1.017 -3.138,2.049 -4.866,3.002 -3.542,1.877 -7.45,3.508 -11.564,5.153 l -6.289,2.598 c -2.137,0.915 -4.279,1.925 -6.426,3.022 -2.156,1.134 -4.242,2.325 -6.409,3.852 -2.077,1.534 -4.04,3.188 -5.804,5.047 -3.496,3.721 -6.274,8.288 -7.442,13.459 -0.536,2.584 -0.714,5.276 -0.224,7.87 0.514,2.586 1.6,4.998 3.206,6.868 l 1.365,-0.554 c 0.009,-2.312 0.261,-4.346 0.794,-6.233 0.54,-1.886 1.382,-3.605 2.322,-5.226 1.925,-3.24 4.51,-6.09 7.359,-8.633 1.429,-1.27 2.981,-2.396 4.58,-3.404 1.572,-0.925 3.425,-1.855 5.276,-2.701 3.766,-1.66 7.817,-3.11 12.051,-4.636 2.118,-0.782 4.27,-1.598 6.45,-2.485 2.185,-0.903 4.373,-1.915 6.561,-3.047 2.201,-1.174 4.289,-2.422 6.509,-4.069 2.115,-1.635 4.045,-3.465 5.762,-5.476 1.686,-2.041 3.276,-4.17 4.517,-6.574 1.217,-2.408 2.293,-4.93 2.874,-7.71 0.606,-2.755 0.816,-5.691 0.386,-8.654 -0.441,-2.957 -1.551,-5.836 -3.149,-8.324 v -0.001 l -7.033,7.021 c 6.398,3.726 12.133,8.667 16.921,14.447 4.797,5.78 8.613,12.405 11.41,19.44 5.575,14.066 6.709,30.07 2.223,44.571 -4.418,14.529 -14.493,27.317 -27.325,36.002 -6.417,4.371 -13.557,7.681 -21.034,9.904 -7.479,2.251 -15.308,3.385 -23.31,3.4 z"
         style="fill:#4c6fa3;fill-opacity:1;fill-rule:nonzero;stroke:none"
         id="path197" />
    </g>
    <g
       id="g199"
       transform="matrix(0.35277778,0,0,-0.35277778,226.3078,216.78211)">
      <path
         d="m 0,0 c -2.664,-6.046 -7.257,-11.144 -12.584,-14.858 -5.347,-3.734 -11.47,-6.149 -17.735,-7.233 -6.265,-1.088 -12.715,-0.862 -18.738,0.76 -6,1.638 -11.609,4.682 -15.68,9.052 l 0.517,0.763 c 5.416,-2.077 10.83,-3.089 16.157,-3.116 5.315,-0.056 10.513,0.8 15.386,2.377 4.87,1.59 9.416,3.893 13.415,6.795 4.015,2.903 7.408,6.418 10.278,10.42 z"
         style="fill:#4c6fa3;fill-opacity:1;fill-rule:nonzero;stroke:none"
         id="path201" />
    </g>
    <g
       id="g203"
       transform="matrix(0.35277778,0,0,-0.35277778,212.25628,188.90335)">
      <path
         d="m 0,0 c -1.975,7.335 -12.877,12.552 -18.854,6.337 -2.998,-3.115 -0.02,-8.525 4.266,-7.328 1.79,0.5 2.262,0.948 3.801,0.388 0.783,-0.284 1.61,-1.01 1.867,-1.856 C -7.195,-8.139 1.555,-5.774 0,0"
         style="fill:#4c6fa3;fill-opacity:1;fill-rule:nonzero;stroke:none"
         id="path205" />
    </g>
    <g
       id="g207"
       transform="matrix(0.35277778,0,0,-0.35277778,184.35222,165.10704)">
      <path
         d="m 0,0 c -1.168,0.351 -2.197,0.741 -3.206,1.099 -1.034,0.338 -2.037,0.652 -2.964,0.986 -1.004,0.268 -1.913,0.578 -2.824,0.847 -0.948,0.231 -1.821,0.503 -2.701,0.728 -3.527,0.9 -6.796,1.515 -9.889,1.975 C -27.78,6.517 -33.283,6.757 -38.508,6.44 -43.73,6.113 -49.16,5.234 -55.202,3.629 -58.216,2.81 -61.391,1.822 -64.788,0.521 c -0.848,-0.327 -1.688,-0.694 -2.601,-1.036 -0.876,-0.37 -1.741,-0.785 -2.709,-1.166 -0.884,-0.438 -1.845,-0.865 -2.835,-1.32 -0.963,-0.472 -1.942,-0.978 -3.066,-1.461 -0.182,1.17 -0.219,2.316 -0.242,3.497 0.061,1.129 0.152,2.287 0.318,3.434 0.186,1.131 0.474,2.227 0.751,3.369 0.337,1.091 0.746,2.158 1.148,3.266 1.782,4.27 4.494,8.193 7.871,11.499 6.731,6.639 16.158,10.882 26.141,11.445 9.981,0.579 19.831,-2.529 27.286,-8.341 3.736,-2.889 6.888,-6.462 9.158,-10.49 0.528,-1.051 1.064,-2.059 1.523,-3.105 C -1.633,9.016 -1.22,7.959 -0.9,6.86 -0.599,5.744 -0.372,4.606 -0.178,3.494 -0.059,2.321 0.041,1.181 0,0"
         style="fill:#4c6fa3;fill-opacity:1;fill-rule:nonzero;stroke:none"
         id="path209" />
    </g>
    <g
       id="g211"
       transform="matrix(0.35277778,0,0,-0.35277778,263.84022,168.24175)">
      <path
         d="m 0,0 c -1.06,0.501 -1.975,1.013 -2.875,1.489 -0.927,0.464 -1.827,0.895 -2.647,1.332 -0.906,0.386 -1.711,0.797 -2.524,1.167 -0.855,0.342 -1.628,0.707 -2.415,1.031 -3.152,1.29 -6.075,2.26 -8.832,3.065 -5.529,1.574 -10.399,2.46 -15.035,2.865 -4.635,0.395 -9.576,0.39 -15.289,-0.182 -2.852,-0.303 -5.901,-0.734 -9.232,-1.441 L -61.41,8.747 c -0.868,-0.216 -1.732,-0.477 -2.694,-0.694 -0.888,-0.282 -1.852,-0.545 -2.848,-0.834 -0.974,-0.307 -1.966,-0.647 -3.103,-0.948 -0.084,1.132 -0.024,2.227 0.055,3.355 0.153,1.068 0.341,2.162 0.604,3.237 0.278,1.058 0.655,2.072 1.027,3.13 0.424,1.003 0.917,1.976 1.41,2.987 2.119,3.873 5.119,7.302 8.699,10.044 7.141,5.517 16.657,8.355 26.219,7.475 9.561,-0.862 18.414,-5.342 24.453,-12.042 3.032,-3.335 5.376,-7.236 6.775,-11.42 C -0.508,11.955 -0.19,10.916 0.046,9.852 0.228,8.747 0.417,7.683 0.506,6.594 0.576,5.492 0.568,4.383 0.532,3.306 0.413,2.184 0.279,1.098 0,0"
         style="fill:#4c6fa3;fill-opacity:1;fill-rule:nonzero;stroke:none"
         id="path213" />
    </g>
    <g
       id="g215"
       transform="matrix(0.35277778,0,0,-0.35277778,89.898055,167.36394)">
      <path
         d="m 0,0 c -31.259,-27.81 -50.8,-67.661 -55.698,-109.025 -4.889,-41.294 7.107,-82.417 30.923,-116.235 13.392,-19.015 30.117,-35.564 49.592,-48.315 5.144,-3.368 9.902,4.86 4.805,8.221 -32.475,21.413 -57.749,54.309 -69.751,91.355 -12.1,37.348 -8.69,78.459 7.668,114.02 9.344,20.315 22.581,38.29 38.981,53.459 C 10.899,-2.468 4.411,3.925 0,0"
         style="fill:#4c6fa3;fill-opacity:1;fill-rule:nonzero;stroke:none"
         id="path217" />
    </g>
    <g
       id="g219"
       transform="matrix(0.35277778,0,0,-0.35277778,308.08885,169.88538)">
      <path
         d="m 0,0 c 24.92,-46.135 43.33,-97.046 40.816,-150.225 -2.079,-43.992 -20.353,-86.793 -53.284,-116.534 -17.661,-15.95 -39.164,-26.992 -62.657,-31.083 -6.075,-1.058 -3.502,-10.316 2.552,-9.259 44.386,7.757 80.829,39.585 101.763,78.553 24.291,45.218 25.986,98.037 13.873,147.167 C 35.648,-51.308 23.439,-22.146 7.996,4.674 5.016,9.85 -2.833,5.243 0,0"
         style="fill:#4c6fa3;fill-opacity:1;fill-rule:nonzero;stroke:none"
         id="path221" />
    </g>
    <g
       id="g223"
       transform="matrix(0.35277778,0,0,-0.35277778,147.3755,305.01239)">
      <path
         d="m 0,0 c 5.619,-20.587 11.487,-40.974 15.802,-61.897 4.355,-21.12 7.306,-42.357 9.995,-63.738 0.741,-5.887 9.997,-6.144 9.451,0 -1.92,21.589 -5.57,43.169 -9.923,64.389 C 20.939,-39.868 15.961,-18.218 8.862,2.442 6.958,7.982 -1.575,5.768 0,0"
         style="fill:#4c6fa3;fill-opacity:1;fill-rule:nonzero;stroke:none"
         id="path225" />
    </g>
    <g
       id="g227"
       transform="matrix(0.35277778,0,0,-0.35277778,160.8453,309.48826)">
      <path
         d="m 0,0 c -1.136,-18.524 0.076,-37.46 0.206,-56.02 0.129,-18.672 0.26,-37.345 0.39,-56.018 0.042,-6.092 9.513,-6.106 9.47,0 C 9.935,-93.365 9.802,-74.692 9.67,-56.02 9.54,-37.458 10.484,-18.508 9.09,0 8.651,5.817 0.36,5.876 0,0"
         style="fill:#4c6fa3;fill-opacity:1;fill-rule:nonzero;stroke:none"
         id="path229" />
    </g>
    <g
       id="g231"
       transform="matrix(0.35277778,0,0,-0.35277778,221.6154,310.31507)">
      <path
         d="m 0,0 c -1.515,-4.018 -1.142,-8.588 -1.289,-12.844 -0.158,-4.583 -0.315,-9.166 -0.467,-13.75 -0.293,-8.839 -0.586,-17.677 -0.878,-26.517 -0.596,-18.001 -1.404,-36.01 -1.773,-54.017 -0.125,-6.097 9.163,-6.048 9.441,0 0.825,17.992 1.216,36.015 1.816,54.017 0.294,8.84 0.588,17.678 0.883,26.517 0.153,4.583 0.3,9.167 0.446,13.75 C 8.315,-8.568 8.932,-4.135 7.673,0 6.468,3.957 1.351,3.582 0,0"
         style="fill:#4c6fa3;fill-opacity:1;fill-rule:nonzero;stroke:none"
         id="path233" />
    </g>
    <g
       id="g235"
       transform="matrix(0.35277778,0,0,-0.35277778,230.98677,307.51041)">
      <path
         d="m 0,0 c -3.354,-19.311 -5.351,-38.948 -7.954,-58.374 -2.641,-19.709 -5.282,-39.418 -7.923,-59.127 -0.803,-5.989 8.625,-5.93 9.42,0 2.6,19.381 5.199,38.761 7.798,58.142 2.593,19.337 5.824,38.716 7.665,58.14 C 9.49,3.879 0.885,5.096 0,0"
         style="fill:#4c6fa3;fill-opacity:1;fill-rule:nonzero;stroke:none"
         id="path237" />
    </g>
    <g
       id="g239"
       transform="matrix(0.35277778,0,0,-0.35277778,165.87531,351.9656)">
      <path
         d="m 0,0 c -3.47,15.943 -22.701,17.445 -30.821,4.267 -4.616,-7.491 -4.926,-17.372 -4.677,-25.905 0.22,-7.532 0.547,-16.85 4.794,-23.345 3.858,-5.899 11.239,-7.544 17.457,-4.524 7.401,3.594 10.046,11.454 10.963,19.1 0.601,5.013 1.217,10.029 1.782,15.048 0.547,4.868 1.696,10.484 0.318,15.309 -1.338,4.686 -8.961,3.946 -8.711,-1.179 0.304,-6.212 -0.889,-12.729 -1.638,-18.876 -0.759,-6.228 -0.297,-20.268 -8.416,-21.372 -8.932,-1.213 -7.291,24.743 -6.801,29.956 0.48,5.117 1.672,11.476 6.44,14.38 5.196,3.165 8.868,-0.338 10.39,-5.318 C -7.174,-8.172 1.264,-5.81 0,0"
         style="fill:#4c6fa3;fill-opacity:1;fill-rule:nonzero;stroke:none"
         id="path241" />
    </g>
    <g
       id="g243"
       transform="matrix(0.35277778,0,0,-0.35277778,229.82041,349.54643)">
      <path
         d="m 0,0 c -8.339,11.892 -26.382,13.238 -32.575,-1.344 -3.256,-7.666 -2.65,-16.579 -1.559,-24.637 1.039,-7.678 2.546,-16.92 7.53,-23.125 4.936,-6.144 12.517,-7.218 19.091,-3.11 6.873,4.295 10.042,12.597 11.546,20.226 1.964,9.959 2.872,24.826 -5.255,32.441 -2.75,2.577 -7.927,0.07 -6.633,-3.86 1.815,-5.515 3.827,-11.597 3.807,-17.48 -0.016,-4.736 -1.152,-10.092 -2.731,-14.553 -1.446,-4.088 -5.917,-12.714 -11.345,-8.698 -4.099,3.035 -5.115,11.098 -6.01,15.752 -1.065,5.536 -1.658,11.429 -1.149,17.066 0.376,4.164 1.677,9.798 6.281,11.154 4.656,1.372 8.939,-2.193 11.675,-5.485 C -3.971,-9.692 3.045,-4.343 0,0"
         style="fill:#4c6fa3;fill-opacity:1;fill-rule:nonzero;stroke:none"
         id="path245" />
    </g>
    <g
       id="g247"
       transform="matrix(0.35277778,0,0,-0.35277778,136.96408,298.3499)">
      <path
         d="m 0,0 c -13.951,-28.439 -24.129,-58.902 -32.458,-89.409 -2.101,-7.696 -4.127,-15.424 -5.958,-23.189 -1.517,-6.433 -2.667,-13.359 -0.116,-19.689 4.034,-10.013 18.104,-13.764 24.805,-4.346 3.556,4.998 -4.703,9.776 -8.221,4.806 -2.494,-3.526 -7.486,1.755 -8.198,4.11 -1.643,5.44 0.527,11.753 1.822,17.046 2.983,12.19 6.262,24.312 9.886,36.326 7.207,23.895 16.222,46.943 26.261,69.772 C 10.122,0.655 2.604,5.31 0,0"
         style="fill:#4c6fa3;fill-opacity:1;fill-rule:nonzero;stroke:none"
         id="path249" />
    </g>
    <g
       id="g251"
       transform="matrix(0.35277778,0,0,-0.35277778,188.4672,355.38416)">
      <path
         d="m 0,0 c 2.758,38.474 3.446,77.044 4.096,115.6 0.105,6.231 -9.576,6.233 -9.681,0 C -6.235,77.044 -6.923,38.474 -9.681,0 -10.127,-6.217 -0.444,-6.189 0,0"
         style="fill:#4c6fa3;fill-opacity:1;fill-rule:nonzero;stroke:none"
         id="path253" />
    </g>
    <g
       id="g255"
       transform="matrix(0.35277778,0,0,-0.35277778,119.76133,369.68852)">
      <path
         d="m 0,0 c -6.281,-19.142 -11.091,-41.338 -5.898,-61.313 4.43,-17.039 20.56,-32.184 39.145,-26.671 -1.973,1.973 -3.946,3.946 -5.919,5.92 -2.623,-17.853 -5.419,-36.589 -0.016,-54.222 4.439,-14.485 14.096,-27.425 28.653,-32.768 30.125,-11.058 64.656,11.021 78.723,37.124 9.405,17.451 11.561,38.002 6.627,57.131 -1.984,-1.985 -3.969,-3.97 -5.954,-5.955 20.724,-8.575 38.342,13.968 45.177,30.548 8.882,21.548 10.223,46.477 12.435,69.425 0.597,6.197 -9.088,6.156 -9.681,0 -1.904,-19.743 -3.378,-40.345 -9.373,-59.362 -4.355,-13.813 -17.682,-38.848 -35.984,-31.275 -3.58,1.48 -6.784,-2.742 -5.955,-5.955 7.142,-27.691 -3.494,-57.588 -27.327,-73.723 -11.212,-7.591 -25.328,-12.663 -38.996,-10.508 -13.658,2.154 -23.445,12.346 -28.074,24.99 -6.106,16.676 -3.482,34.875 -0.975,51.991 0.503,3.432 -2.053,7.067 -5.92,5.919 -16.531,-4.91 -26.93,12.472 -28.613,26.402 -2.03,16.795 1.85,33.918 7.048,49.787 C 11.022,3.285 1.893,5.768 0,0"
         style="fill:#4c6fa3;fill-opacity:1;fill-rule:nonzero;stroke:none"
         id="path257" />
    </g>
    <g
       id="g259"
       transform="matrix(0.35277778,0,0,-0.35277778,128.95955,345.23869)">
      <path
         d="m 0,0 c -4.42,-13.986 -10.032,-27.531 -15.541,-41.112 -2.283,-5.631 6.859,-8.091 9.114,-2.513 5.49,13.586 11.105,27.126 15.376,41.158 C 10.694,3.267 1.795,5.679 0,0"
         style="fill:#4c6fa3;fill-opacity:1;fill-rule:nonzero;stroke:none"
         id="path261" />
    </g>
    <g
       id="g343"
       transform="matrix(0.35277778,0,0,-0.35277778,220.21773,350.59411)">
      <path
         d="m 0,0 c -4.932,5.421 -13.918,7.689 -19.191,1.634 -5.051,-5.802 -6.823,-15.636 -6.054,-23.063 0.872,-8.414 2.566,-19.775 10.863,-24.139 7.439,-3.912 16.758,1.3 19.436,8.672 1.495,4.116 -4.58,7.625 -7.421,4.319 -2.439,-2.839 -6.143,-7.164 -9.525,-2.931 -2.923,3.659 -3.745,11.292 -4.03,15.791 -0.246,3.882 0.506,7.816 1.887,11.448 0.412,1.085 1.187,3.677 2.314,4.207 1.526,0.718 4.226,-1.546 5.229,-2.43 C -2.064,-10.39 4,-4.397 0,0"
         style="fill:#4c6fa3;fill-opacity:1;fill-rule:nonzero;stroke:none"
         id="path345" />
    </g>
    <g
       id="g347"
       transform="matrix(0.35277778,0,0,-0.35277778,229.8602,352.11303)">
      <path
         d="m 0,0 c 5.11,3.368 11.145,1.927 13.468,-4.013 1.294,-3.307 0.913,-6.874 0.324,-10.284 -0.669,-3.874 -1.618,-7.973 -3.468,-11.469 -0.488,-0.921 -1.21,-2.542 -2.227,-3.033 -0.61,-0.295 -1.644,-0.218 -2.241,-0.179 -1.427,0.094 -2.532,1.302 -2.293,-0.536 -0.749,5.772 -9.801,6.073 -9.301,0 0.685,-8.314 12.025,-11.283 18.581,-7.405 6.173,3.65 8.55,12.533 9.826,19.064 1.45,7.419 1.748,15.024 -2.794,21.532 C 13.947,12.167 2.501,13.329 -5.301,6.871 -9.117,3.712 -4.131,-2.722 0,0"
         style="fill:#4c6fa3;fill-opacity:1;fill-rule:nonzero;stroke:none"
         id="path349" />
    </g>
    <g
       id="g351"
       transform="matrix(0.35277778,0,0,-0.35277778,156.77287,353.54104)">
      <path
         d="m 0,0 c -0.977,8.555 -10.507,12.657 -18.126,9.387 -9.16,-3.933 -11.978,-15.474 -11.259,-24.529 0.722,-9.116 4.719,-20.369 13.21,-25.05 7.311,-4.033 20.079,1.378 16.558,11.058 -1.677,4.613 -8.868,4.155 -8.878,-1.201 -0.01,-5.668 -7.001,2.428 -7.9,4.022 -2.323,4.114 -3.563,8.827 -3.595,13.55 -0.025,3.888 0.594,8.621 3.283,11.662 2.877,3.253 6.727,2.605 8.462,-1.131 C -6.448,-6.104 0.493,-4.314 0,0"
         style="fill:#4c6fa3;fill-opacity:1;fill-rule:nonzero;stroke:none"
         id="path353" />
    </g>
    <g
       id="g355"
       transform="matrix(0.35277778,0,0,-0.35277778,165.94989,353.32365)">
      <path
         d="m 0,0 c 1.606,6.01 8.536,2.439 10.231,-1.4 2.126,-4.817 2.001,-10.988 1.368,-16.115 -0.56,-4.539 -1.743,-10.547 -5.273,-13.808 -1.649,-1.523 -3.3,-1.965 -5.471,-1.527 -0.977,0.198 -3.724,0.908 -3.824,2.144 -0.489,6.031 -9.972,6.07 -9.46,0 0.709,-8.416 10.028,-13.049 17.84,-11.448 10.565,2.164 14.346,14.495 15.479,23.766 1.219,9.976 0.484,23.479 -9.289,29.139 C 4.67,14.764 -9.62,11.125 -8.495,1.149 -7.98,-3.407 -1.354,-5.062 0,0"
         style="fill:#4c6fa3;fill-opacity:1;fill-rule:nonzero;stroke:none"
         id="path357" />
    </g>
    <g
       id="g359"
       transform="matrix(0.35277778,0,0,-0.35277778,92.743349,198.48554)">
      <path
         d="m 0,0 c -3.488,-8.689 -6.161,-17.699 -7.954,-26.891 -1.739,-9.2 -2.764,-18.548 -2.903,-27.935 -0.323,-18.779 2.429,-37.602 7.487,-55.762 5.089,-18.163 12.329,-35.749 21.426,-52.31 1.151,-2.063 2.286,-4.134 3.5,-6.161 0.606,-1.013 1.177,-2.045 1.81,-3.045 l 1.912,-2.994 3.821,-5.985 1.909,-2.993 c 0.646,-0.991 1.366,-1.934 2.045,-2.903 l 4.131,-5.778 c 1.398,-1.909 2.691,-3.896 4.213,-5.714 2.97,-3.688 5.856,-7.444 8.887,-11.08 12.175,-14.514 25.84,-27.761 40.511,-39.728 14.664,-11.983 30.383,-22.677 46.937,-31.866 33.1,-18.407 69.494,-30.779 106.979,-36.033 75.005,-10.276 153.552,6.01 218.183,45.627 32.275,19.822 60.781,45.723 84.358,75.544 11.796,14.912 22.507,30.72 31.913,47.305 l 3.468,6.254 1.735,3.128 c 0.579,1.042 1.084,2.123 1.629,3.183 l 3.217,6.391 c 1.051,2.141 2.201,4.235 3.147,6.427 1.959,4.35 4.014,8.661 5.93,13.035 l 5.465,13.247 8.409,-3.151 -5.228,-13.698 c -1.847,-4.524 -3.812,-9.005 -5.732,-13.504 -0.927,-2.264 -2.059,-4.436 -3.094,-6.652 l -3.17,-6.621 c -0.538,-1.099 -1.036,-2.218 -1.608,-3.3 l -1.715,-3.246 -3.434,-6.492 c -9.352,-17.205 -19.959,-33.776 -31.964,-49.315 -23.968,-31.081 -53.192,-58.333 -86.576,-79.396 l -12.708,-7.578 -13.05,-6.939 c -4.407,-2.197 -8.894,-4.237 -13.339,-6.361 -2.206,-1.101 -4.516,-1.965 -6.779,-2.937 l -6.82,-2.842 c -18.291,-7.328 -37.22,-13.047 -56.498,-17.115 -19.276,-4.077 -38.9,-6.525 -58.601,-7.275 -19.701,-0.728 -39.474,0.289 -59.012,3.056 -19.527,2.825 -38.814,7.447 -57.485,13.829 -18.674,6.372 -36.745,14.461 -53.946,24.087 -17.198,9.632 -33.546,20.783 -48.736,33.348 -15.15,12.604 -29.23,26.526 -41.758,41.753 -3.119,3.814 -6.09,7.751 -9.138,11.622 -1.562,1.908 -2.895,3.988 -4.331,5.99 l -4.24,6.055 c -0.697,1.016 -1.434,2.004 -2.098,3.043 l -1.959,3.135 -3.918,6.27 -1.957,3.135 c -0.649,1.048 -1.24,2.136 -1.862,3.202 -1.248,2.132 -2.415,4.309 -3.597,6.478 -9.314,17.415 -16.812,35.844 -21.797,55.006 -5.004,19.137 -7.602,39.001 -6.946,58.886 0.317,9.934 1.522,19.857 3.578,29.603 2.114,9.736 5.164,19.274 9.073,28.438 z"
         style="fill:#4c6fa3;fill-opacity:1;fill-rule:nonzero;stroke:none"
         id="path361" />
    </g>
    <g
       id="g363"
       transform="matrix(0.35277778,0,0,-0.35277778,307.40295,229.66675)">
      <path
         d="m 0,0 19.948,-28.91 -9.134,-1.425 h 10e-4 c 8.962,29.876 12.08,61.394 10.441,92.616 -1.652,31.251 -7.859,62.276 -17.713,92.068 -4.892,14.915 -10.735,29.507 -17.311,43.76 l -2.513,5.325 c -0.843,1.772 -1.651,3.562 -2.578,5.294 l -5.396,10.467 -5.744,10.284 -1.438,2.57 -1.527,2.518 -3.053,5.038 c -8.217,13.384 -17.095,26.374 -26.727,38.794 -9.658,12.399 -19.956,24.296 -30.83,35.647 -10.839,11.389 -22.426,22.051 -34.434,32.191 -12.032,10.112 -24.499,19.735 -37.566,28.487 -13.034,8.793 -26.509,16.928 -40.368,24.355 -13.866,7.419 -28.184,13.968 -42.767,19.829 -7.273,2.988 -14.698,5.572 -22.113,8.176 l -11.23,3.585 c -3.749,1.177 -7.555,2.16 -11.33,3.25 -15.163,4.127 -30.551,7.417 -46.078,9.829 -7.731,1.172 -15.293,2.021 -22.353,1.071 -1.756,-0.246 -3.485,-0.57 -5.147,-1.054 -1.623,-0.475 -3.185,-1.074 -4.701,-1.818 -1.499,-0.766 -2.929,-1.657 -4.258,-2.658 -1.323,-1.01 -2.507,-2.155 -3.558,-3.374 -1.063,-1.215 -1.903,-2.555 -2.571,-3.933 -0.665,-1.38 -1.146,-2.817 -1.34,-4.289 -0.445,-2.29 0.478,-5.419 2.092,-8.315 1.583,-2.913 3.9,-5.543 6.308,-7.675 1.208,-1.077 2.472,-1.981 3.716,-2.702 0.622,-0.329 1.245,-0.641 1.855,-0.863 0.612,-0.213 1.216,-0.38 1.869,-0.495 l 0.752,-0.133 c 1.777,-0.314 2.964,-2.008 2.65,-3.786 -0.206,-1.169 -1.015,-2.084 -2.046,-2.484 -2.63,-1.01 -5.541,-0.891 -7.998,-0.208 -2.488,0.672 -4.675,1.834 -6.596,3.208 -1.94,1.368 -3.608,2.989 -5.093,4.741 -1.488,1.752 -2.802,3.635 -3.931,5.667 -1.133,2.027 -2.086,4.204 -2.733,6.608 -0.32,1.204 -0.573,2.458 -0.672,3.802 -0.071,0.657 -0.062,1.363 -0.057,2.055 0.041,0.72 0.098,1.45 0.212,2.025 0.335,2.474 1.117,4.864 2.168,7.064 1.053,2.201 2.365,4.25 3.908,6.043 1.534,1.801 3.229,3.429 5.063,4.842 1.84,1.402 3.795,2.625 5.837,3.672 2.05,1.021 4.209,1.859 6.404,2.504 2.157,0.633 4.347,1.054 6.527,1.365 8.766,1.184 17.206,0.149 25.167,-1.009 15.929,-2.418 31.712,-5.737 47.265,-9.914 3.871,-1.103 7.775,-2.101 11.62,-3.292 l 11.518,-3.635 c 7.605,-2.638 15.22,-5.263 22.679,-8.297 14.956,-5.952 29.64,-12.611 43.862,-20.158 14.215,-7.555 28.04,-15.838 41.414,-24.797 13.406,-8.916 26.205,-18.721 38.561,-29.035 12.317,-10.36 24.173,-21.292 35.285,-32.949 11.143,-11.621 21.698,-23.808 31.599,-36.512 9.876,-12.725 18.984,-26.041 27.418,-39.766 l 3.132,-5.167 1.566,-2.584 1.478,-2.636 5.896,-10.551 5.544,-10.743 c 0.95,-1.777 1.782,-3.613 2.648,-5.433 l 2.583,-5.465 C 2.839,188.052 8.848,173.059 13.876,157.735 23.901,127.089 30.206,95.131 31.811,62.813 33.402,30.53 30.081,-2.198 20.635,-33.313 c -0.745,-2.7 -3.537,-4.285 -6.237,-3.54 -1.192,0.331 -2.168,1.059 -2.82,2.003 l -0.077,0.111 -19.948,28.911 C -10.056,-3.495 -9.47,-0.3 -7.138,1.31 -4.805,2.919 -1.609,2.333 0,0"
         style="fill:#4c6fa3;fill-opacity:1;fill-rule:nonzero;stroke:none"
         id="path365" />
    </g>
    <g
       id="g367"
       transform="matrix(0.35277778,0,0,-0.35277778,170.27279,92.87304)">
      <path
         d="m 0,0 c -52.225,-13.272 -101.036,-41.077 -140.517,-77.565 -41.108,-37.992 -71.787,-86.432 -89.29,-139.557 -10.132,-30.75 -15.697,-62.951 -16.597,-95.311 -0.116,-4.178 5.352,-6.352 8.226,-3.407 5.401,5.533 12.273,9.258 17.678,14.796 4.337,4.442 -2.475,11.268 -6.817,6.816 -5.4,-5.534 -12.271,-9.258 -17.675,-14.797 2.742,-1.136 5.484,-2.272 8.226,-3.408 1.54,55.75 17.665,110.724 46.38,158.536 27.285,45.429 65.901,83.545 111.428,110.626 25.511,15.175 52.84,26.438 81.354,34.583 C 7.968,-7.096 5.633,1.432 0,0"
         style="fill:#4c6fa3;fill-opacity:1;fill-rule:nonzero;stroke:none"
         id="path369" />
    </g>
    <g
       id="g371"
       transform="matrix(0.35277778,0,0,-0.35277778,162.44864,309.48826)">
      <path
         d="m 0,0 -37.969,12.075 9.466,-33.168 c 0,0 6.569,4.947 14.266,4.947 7.697,0 14.404,-7.697 14.404,-7.697 z"
         style="fill:#4c6fa3;fill-opacity:1;fill-rule:nonzero;stroke:none"
         id="path373" />
    </g>
    <g
       id="g375"
       transform="matrix(0.35277778,0,0,-0.35277778,222.66721,319.76877)">
      <path
         d="m 0,0 c 0,0 6.363,8.024 13.258,6.742 6.895,-1.283 10.078,-8.036 10.078,-8.036 l 4.353,31.607 H 11.33 L 0,23.616 Z"
         style="fill:#4c6fa3;fill-opacity:1;fill-rule:nonzero;stroke:none"
         id="path377" />
    </g>
    <g
       id="g379"
       transform="matrix(0.35277778,0,0,-0.35277778,83.095864,246.05818)">
      <path
         d="m 0,0 34.315,-19.883 6.414,-22.183 c 0,0 -28.222,23.465 -40.729,42.066"
         style="fill:#4c6fa3;fill-opacity:1;fill-rule:nonzero;stroke:none"
         id="path381" />
    </g>
    <g
       id="g383"
       transform="matrix(0.35277778,0,0,-0.35277778,289.11551,266.64813)">
      <path
         d="m 0,0 c 0,0 24.804,-1.214 51.315,10.51 0,0 -38.291,-37.337 -73.129,-36.969 z"
         style="fill:#4c6fa3;fill-opacity:1;fill-rule:nonzero;stroke:none"
         id="path385" />
    </g>
    <g
       id="g387"
       transform="matrix(0.35277778,0,0,-0.35277778,109.75814,273.58794)">
      <path
         d="m 0,0 c 0,0 88.456,-90.704 247.766,-90.704 159.31,0 234.675,79.437 234.675,79.437 0,0 -83.547,-103.758 -234.675,-103.758 C 86.375,-115.025 0,0 0,0"
         style="fill:#4c6fa3;fill-opacity:1;fill-rule:nonzero;stroke:none"
         id="path389" />
    </g>
    <g
       id="g391"
       transform="matrix(0.35277778,0,0,-0.35277778,148.93852,361.07958)">
      <path
         d="m 0,0 c 0,0 5.886,-9.194 15.721,-4.276 l 4.49,-1.448 c 0,0 3.39,-3.683 10.247,-3.683 6.857,0 7.838,7.482 7.838,7.482 l 5.798,-0.641 c 0,0 3.419,-4.704 8.583,-4.704 5.163,0 9.653,8.124 9.653,8.124 0,0 -2.138,-15.821 -11.759,-15.821 -9.621,0 -11.071,1.325 -11.071,1.325 l -10.249,-6.801 -11.195,5.904 -10.104,-0.297 z"
         style="fill:#4c6fa3;fill-opacity:1;fill-rule:nonzero;stroke:none"
         id="path393" />
    </g>
    <g
       id="g395"
       transform="matrix(0.35277778,0,0,-0.35277778,213.99417,360.77813)">
      <path
         d="m 0,0 c 0,0 7.758,-8.295 14.676,0.343 l 5.635,-3.93 c 0,0 4.416,-4.109 9.905,-4.109 5.489,0 11.529,9.193 11.529,9.193 l 5.933,2.565 c 0,0 1.654,-5.209 5.21,-5.209 3.555,0 9.525,7.989 9.525,7.989 L 54.997,-7.696 42.767,-9.132 30.982,-18.049 19.67,-11.545 7.667,-13.344 0.138,-6.039 Z"
         style="fill:#4c6fa3;fill-opacity:1;fill-rule:nonzero;stroke:none"
         id="path397" />
    </g>
    <g
       id="g399"
       transform="matrix(0.35277778,0,0,-0.35277778,135.50009,303.50861)">
      <path
         d="m 0,0 c 0,0 51.673,-32.868 147.351,-45.271 l 2.047,22.636 -137.793,40.301 z"
         style="fill:#4c6fa3;fill-opacity:1;fill-rule:nonzero;stroke:none"
         id="path401" />
    </g>
    <g
       id="g403"
       transform="matrix(0.35277778,0,0,-0.35277778,120.20869,373.98387)">
      <path
         d="m 0,0 c 0,0 6.3,-39.708 42.646,-37.57 36.347,2.137 17.634,-33.073 45.603,-33.073 26.871,0 18.129,36.247 45.867,36.247 27.737,0 26.543,-14.118 49.634,44.036 0,0 0.873,-59.492 -34.627,-74.002 l -8.767,-2.538 -2.564,-12.797 -6.323,-33.095 -22.122,-28.938 -27.908,-11.85 H 57.18 l -23.518,20.829 -5.987,29.932 3.421,27.794 -9.684,3.054 -18.503,11.8 -7.273,30.696 z"
         style="fill:#4c6fa3;fill-opacity:1;fill-rule:nonzero;stroke:none"
         id="path405" />
    </g>
  </g>
</svg>
