<?xml version="1.0" encoding="UTF-8" standalone="no"?>
<!-- Created with Inkscape (http://www.inkscape.org/) -->

<svg
   width="1326.5587"
   height="1050.823"
   viewBox="0 0 1326.5587 1050.823"
   version="1.1"
   id="SVGRoot"
   sodipodi:docname="pollo3.svg"
   inkscape:version="1.1.1 (3bf5ae0d25, 2021-09-20)"
   xmlns:inkscape="http://www.inkscape.org/namespaces/inkscape"
   xmlns:sodipodi="http://sodipodi.sourceforge.net/DTD/sodipodi-0.dtd"
   xmlns="http://www.w3.org/2000/svg"
   xmlns:svg="http://www.w3.org/2000/svg">
  <sodipodi:namedview
     id="namedview7286"
     pagecolor="#ffffff"
     bordercolor="#666666"
     borderopacity="1.0"
     inkscape:pageshadow="2"
     inkscape:pageopacity="0.0"
     inkscape:pagecheckerboard="0"
     inkscape:document-units="px"
     showgrid="false"
     inkscape:zoom="0.19420595"
     inkscape:cx="-2453.5809"
     inkscape:cy="738.90631"
     inkscape:window-width="1920"
     inkscape:window-height="1057"
     inkscape:window-x="-8"
     inkscape:window-y="-8"
     inkscape:window-maximized="1"
     inkscape:current-layer="layer1"
     fit-margin-top="0"
     fit-margin-left="0"
     fit-margin-right="0"
     fit-margin-bottom="0" />
  <defs
     id="defs7281" />
  <g
     inkscape:label="Capa 1"
     inkscape:groupmode="layer"
     id="layer1"
     transform="translate(-109.09654,-535.31808)">
    <g
       id="g555"
       transform="matrix(1.3333333,0,0,-1.3333333,1417.6278,676.61592)">
      <path
         d="m 0,0 c -3.072,10.241 -10.838,19.691 -19.09,26.49 -8.251,6.799 -20.049,10.134 -29.92,6.026 -10.192,-4.242 -15.895,-14.89 -21.045,-24.655 -11.835,-22.439 -24.924,-44.217 -39.187,-65.197 -8.152,-11.99 -16.811,-23.856 -27.959,-33.126 -11.148,-9.27 -25.141,-15.818 -39.637,-15.545 -9.979,0.189 -18.685,8.268 -25.269,15.771 -6.584,7.502 -11.273,16.436 -16.094,25.175 -17.587,31.882 -38.387,63.052 -67.815,84.492 -6.419,4.676 -13.19,8.845 -19.991,12.946 -46.438,28.004 -96.06,53.579 -149.938,59.74 1.104,1.056 -82.743,8.203 -125.096,7.532 -17.396,-0.275 -34.833,-0.934 -52.027,-3.587 -8.976,-1.385 -17.991,-3.355 -26.059,-7.524 -8.068,-4.169 -15.18,-10.768 -18.41,-19.256 -1.507,-3.959 -2.1,-8.528 -0.298,-12.362 1.123,-2.392 3.073,-4.288 4.481,-6.524 2.204,-3.5 3.105,-7.861 6.055,-10.76 1.82,-1.787 4.229,-2.818 6.578,-3.81 7.324,-3.09 14.646,-6.18 21.969,-9.271 -12.127,-1.882 -25.667,-2.921 -37.794,-4.803 -2.335,-0.362 -4.74,-0.75 -6.751,-1.99 -2.012,-1.24 -3.549,-3.565 -3.132,-5.891 0.399,-2.223 2.363,-3.773 4.186,-5.107 3.082,-2.255 6.165,-4.509 9.247,-6.764 -9.466,-3.762 -18.404,-7.553 -26.508,-13.723 -5.142,-3.915 -9.562,-8.683 -13.954,-13.423 -7.216,-7.791 -14.431,-15.58 -21.647,-23.37 -5.941,-6.413 -11.905,-12.857 -16.843,-20.07 -7.149,-10.445 -12.06,-22.384 -20.042,-32.206 -7.982,-9.824 -20.462,-17.535 -32.843,-14.909 -13.068,2.772 -21.94,13.752 -29.899,24.481 l -23.573,31.777 c -9.203,12.406 -20.31,28.761 -28.22,42.029 -6.475,10.859 -14.277,22.715 -26.624,25.426 -8.777,1.927 -18.071,-1.463 -25.095,-7.066 -7.024,-5.602 -12.135,-13.211 -16.845,-20.863 -7.832,-12.726 -15.592,-26.085 -17.838,-40.858 -6.296,-41.411 14.339,-81.073 18.689,-84.829 -17.633,-16.609 -23.227,-43.475 -16.257,-66.673 6.971,-23.199 25.885,-41.977 48.422,-50.855 -1.502,-12.415 5.907,-24.276 12.79,-34.717 4.139,-6.28 17.869,-19.626 43.794,-27.97 10.72,-2.002 21.47,-3.77 32.412,-3.91 2.793,-0.035 4.744,-1.251 5.903,-2.991 4.624,-0.279 9.442,-0.412 14.5,-0.345 -0.249,-16.17 27.085,-64.511 30.926,-74.275 7.408,-18.833 17.464,-36.623 29.781,-52.681 -12.737,-9.587 -20.069,-26.184 -25.059,-41.326 -1.738,-5.274 -3.326,-10.735 -3.028,-16.281 0.611,-11.376 9.324,-21.145 19.702,-25.842 7.249,-3.28 15.413,-4.51 23.306,-3.512 18.608,2.353 33.406,16.175 46.808,29.295 15.569,-9.803 31.658,-16.872 48.706,-23.79 8.607,-3.492 41.457,-15.146 49.126,-17.867 30.152,-10.698 61.288,-7.691 93.28,-7.304 8.897,0.107 17.841,0.445 26.565,2.196 5.685,1.141 78.171,13.038 97.545,25.726 20.002,13.1 81.707,52.811 91.828,60.923 6.87,5.508 30.501,27.661 36.202,36.401 5.88,9.013 40.536,62.641 43.489,72.989 l 4.825,16.909 c 13,2.836 25.32,6.656 36.976,13.075 8.765,4.827 16.609,11.136 24.882,16.768 16.339,11.127 34.746,19.931 47.718,34.848 13.828,15.9 19.897,36.918 25.582,57.209 0.848,3.024 2.277,4.744 4.373,7.082 3.428,3.822 6.856,7.644 10.283,11.465 1.524,1.701 2.337,4.664 3.446,6.661 8.676,15.624 17.621,32.36 16.526,50.198 10.292,12.833 20.401,27.833 26.18,43.235 3.282,8.748 4.963,18.009 6.269,27.261 C 7.495,-55.831 8.089,-26.959 0,0"
         style="fill:#d89bc5;fill-opacity:1;fill-rule:nonzero;stroke:none"
         id="path557" />
    </g>
    <g
       id="g559"
       transform="matrix(1.3333333,0,0,-1.3333333,1138.2671,833.19271)">
      <path
         d="m 0,0 c 14.583,5.522 21.628,12.246 20.528,19.31 -5.611,12.393 -18.757,19.065 -30.56,20.836 1.597,0.641 3.142,1.445 4.619,2.372 -2.165,0.805 -3.949,2.606 -4.524,5.59 -1.032,5.358 -4.847,9.2 -8.267,13.231 -3.617,4.263 -7.084,8.629 -10.412,13.122 -6.947,9.374 -13.367,19.122 -20.663,28.236 -5.722,7.149 -11.759,14.031 -17.818,20.892 -8.844,7.557 -20.76,17.895 -23.303,20.015 -16.456,13.164 -35.484,20.672 -54.832,28.952 -3.862,1.655 -7.737,3.343 -11.675,5.163 -8.026,4.235 -15.974,8.518 -23.906,12.745 -3.966,2.113 -7.929,4.212 -11.889,6.277 -21.914,9.634 -45.377,13.135 -68.957,15.873 -3.93,0.456 -7.867,0.891 -11.819,1.33 -9.972,1.692 -20.056,2.804 -30.161,3.791 -3.368,0.33 -6.741,0.645 -10.149,0.956 -14.808,-2.217 -30.096,-1.455 -45.476,0.049 -10.719,-0.785 -21.498,-0.527 -32.157,-1.89 -12.017,-1.537 -23.791,-4.398 -35.843,-5.876 -2.085,-0.256 -4.186,-0.547 -6.292,-0.86 -3.034,-1.489 -6.032,-3.042 -9,-4.596 -6.687,-3.503 -13.463,-7.787 -17.923,-14.021 -2.342,-3.274 -3.624,-7.713 -3.747,-12.227 0.396,-3.102 1.039,-6.165 2.026,-9.103 2.198,-3.059 4.916,-5.902 7.249,-8.901 0.772,-0.352 1.594,-0.641 2.468,-0.855 0.154,-0.015 0.307,-0.034 0.462,-0.048 0.209,0.071 0.419,0.141 0.635,0.196 3.538,0.893 6.845,-1.283 8.625,-4.154 -1.195,1.928 -0.432,0.805 -0.002,0.312 0.665,-0.76 1.226,-1.649 1.757,-2.506 1.485,-2.396 0.924,-5.564 -0.389,-7.854 -1.178,-2.054 -2.806,-3.385 -4.692,-4.211 -1.351,-1.781 -3.481,-2.997 -6.361,-2.919 -6.834,0.184 -14.776,-1.919 -20.159,-6.449 0.151,-0.548 0.268,-1.1 0.31,-1.654 0.373,-0.458 0.739,-0.921 1.131,-1.367 0.701,-0.801 1.438,-1.57 2.187,-2.327 2.957,-2.985 2.567,-8.159 -0.335,-10.992 -0.099,-1.76 -0.934,-3.526 -2.802,-4.997 -3.786,-2.983 -7.699,-5.793 -11.577,-8.643 -22.01,-19.101 -42.977,-40.088 -61.171,-62.733 -8.009,-9.969 -14.07,-21.013 -21.461,-31.356 -3.247,-4.544 -7.399,-8.751 -12.199,-11.043 1.559,-4.744 9.316,-9.114 14.192,-12.04 -7.899,-1.316 -15.798,-3.949 -21.535,-8.959 -2.9,-2.406 -5.246,-5.279 -6.788,-8.608 -1.544,-3.331 -2.285,-7.117 -1.956,-11.395 0,-15.798 15.798,-26.33 31.645,-23.712 -6.632,-9.2 -18.48,-15.783 -18.538,-29.024 -1.154,-15.795 19.446,-22.363 32.237,-17.089 -7.595,-9.219 -18.946,-23.705 -5.881,-34.226 7.851,-5.259 14.147,2.643 21.879,3.965 -7.565,-9.219 -17.618,-22.388 -5.749,-31.593 6.655,-6.576 16.818,2.644 23.189,7.914 -6.199,-11.85 -12.188,-31.598 2.3,-36.853 9.261,-3.942 19.557,2.646 25.93,9.233 -2.213,-14.482 -4.232,-36.862 14.245,-39.485 10.611,-2.627 18.333,5.274 24.75,14.458 3.042,-15.793 10.033,-31.606 23.64,-38.334 16.33,-8.075 35.917,0.545 44.679,14.527 9.663,-14.578 16.078,-32.854 37.181,-34.829 19.718,-1.929 35.227,8.981 45.792,22.662 7.414,-12.968 20.417,-34.787 40.832,-21.32 7.253,4.964 11.084,13.813 16.676,22.72 7.637,-11.508 19.766,-21.647 36.467,-21.871 10.726,1.885 20.855,12.548 29.709,32.094 16.431,-12.752 30.334,-16.553 41.28,-11.971 10.94,4.58 19.65,17.82 25.514,39.682 16.23,-8.8 29.292,-9.22 38.142,-2.091 8.849,7.13 13.671,22.101 13.9,44.537 13.687,-7.305 23.097,-7.704 27.484,-1.886 4.388,5.817 3.71,18.036 -2.316,36.259 14.534,-4.121 23.832,-2.435 27.128,4.357 3.297,6.793 0.408,18.885 -8.892,35.669 14.488,-2.457 22.937,-0.489 24.649,5.409 1.711,5.897 -3.567,15.89 -15.827,29.363 15.937,5.152 24.797,13.789 25.585,24.86 C 23.807,-28.839 16.115,-15.212 0,0"
         style="fill:#ecafdb;fill-opacity:1;fill-rule:nonzero;stroke:none"
         id="path561" />
    </g>
    <g
       id="g563"
       transform="matrix(1.3333333,0,0,-1.3333333,622.79059,1070.8927)">
      <path
         d="m 0,0 c 0,0 32.45,-36.203 38.935,-53.976 6.483,-17.772 42.522,-57.924 130.808,-57.924 88.286,0 54.193,61.874 54.193,61.874 0,0 -142.315,-7.899 -223.936,50.026"
         style="fill:#d89bc5;fill-opacity:1;fill-rule:nonzero;stroke:none"
         id="path565" />
    </g>
    <g
       id="g567"
       transform="matrix(1.3333333,0,0,-1.3333333,983.15645,953.71884)">
      <path
         d="m 0,0 c -12.742,16.768 -30.608,29.587 -50.574,36.287 -24.766,8.31 -52.237,7.102 -76.987,-1.254 -24.75,-8.355 -46.859,-23.579 -65.21,-42.17 -7.393,-7.49 -14.296,-15.604 -22.923,-21.633 -8.626,-6.028 -19.503,-9.825 -29.732,-7.346 -9.303,2.255 -20.411,8.391 -28.752,3.689 -8.433,-4.754 -10.459,-15.826 -11.206,-25.478 -0.241,-3.118 -0.44,-6.296 0.285,-9.339 1.528,-6.408 6.874,-11.183 12.439,-14.711 5.564,-3.526 11.699,-6.311 16.442,-10.883 1.319,-1.27 2.54,-2.687 4.126,-3.602 1.552,-0.896 3.346,-1.25 5.05,-1.802 9.708,-3.143 15.932,-12.359 21.402,-20.972 7.109,-11.192 14.879,-22.667 25.07,-31.15 9.014,-7.504 19.812,-12.483 30.471,-17.376 12.877,-5.911 26.554,-11.963 40.641,-10.448 6.247,0.672 11.755,-0.124 18.037,-0.064 21.465,0.206 43.631,0.558 63.241,9.289 19.611,8.731 36.131,28.173 34.503,49.577 -0.819,10.767 -6.038,21.49 -3.381,31.955 1.433,5.641 5.01,10.446 8.25,15.281 6.851,10.22 12.577,21.444 14.7,33.563 C 8.015,-26.467 7.444,-9.797 0,0"
         style="fill:#ffd244;fill-opacity:1;fill-rule:nonzero;stroke:none"
         id="path569" />
    </g>
    <g
       id="g571"
       transform="matrix(1.3333333,0,0,-1.3333333,983.92205,1016.7234)">
      <path
         d="m 0,0 c 1.686,4.59 3.202,9.342 3.226,14.231 0.071,14.79 -13.051,26.071 -25.912,33.378 -20.467,11.631 -43.695,18.98 -67.236,18.817 -23.542,-0.164 -47.352,-8.23 -64.649,-24.2 -4.861,-4.487 -9.172,-9.538 -14.002,-14.057 -15.186,-14.209 -34.883,-22.613 -54.731,-28.821 -7.882,-2.466 -17.355,-6.312 -18.232,-14.524 21.515,-6.136 43.894,-3.241 66.206,0.818 1.593,0.29 3.186,0.586 4.765,0.879 15.566,1.156 30.047,5.106 45.421,4.367 1.57,-0.142 3.123,-0.338 4.661,-0.586 7.673,-1.254 14.977,-3.833 21.027,-8.99 1.115,-0.94 2.208,-1.906 3.279,-2.887 3.214,-2.944 6.23,-6.022 9.044,-8.919 0.848,-1.072 1.702,-2.143 2.581,-3.197 2.634,-3.168 5.491,-6.191 8.864,-8.795 0.924,-1.02 1.9,-1.996 2.942,-2.917 1.042,-0.922 2.149,-1.789 3.337,-2.592 0.859,-1.139 1.674,-2.273 2.514,-3.389 0.842,-1.118 1.714,-2.219 2.625,-3.295 0.59,-1.189 1.264,-2.344 2.13,-3.416 0.867,-1.072 1.927,-2.06 3.244,-2.937 9.215,-5.266 19.642,2.343 26.225,2.593 12.61,0.479 14.726,-6.522 15.683,-5.466 0.956,1.057 0.488,25.41 1.227,26.743 0.74,1.333 6.96,14.715 7.546,15.965 C -4.699,-13.694 -2.095,-5.704 0,0"
         style="fill:#ffab38;fill-opacity:1;fill-rule:nonzero;stroke:none"
         id="path573" />
    </g>
    <g
       id="g575"
       transform="matrix(1.3333333,0,0,-1.3333333,674.70339,1035.9382)">
      <path
         d="m 0,0 c 17.789,-3.622 36.189,2.261 52.431,10.373 16.242,8.111 31.378,18.529 48.347,24.979 14.981,5.693 31.182,8.15 47.176,7.153 11.285,-0.703 23.487,-3.736 30.23,-12.814 7.105,-9.568 5.994,-22.862 3.117,-34.428 -2.878,-11.566 -7.231,-23.263 -5.534,-35.06 0.303,-2.108 0.795,-4.29 0.178,-6.329 -0.54,-1.791 -1.868,-3.224 -3.21,-4.526 -7.324,-7.109 -16.38,-12.42 -26.16,-15.343 -21.862,-6.532 -45.686,1.628 -67.131,9.426 C 58,-48.772 38.122,-37.253 18.7,-25.276 13.408,-22.013 8.043,-18.627 4.078,-13.838 0.925,-10.03 0.902,-4.861 0,0"
         style="fill:#714b7f;fill-opacity:1;fill-rule:nonzero;stroke:none"
         id="path577" />
    </g>
    <g
       id="g579"
       transform="matrix(1.3333333,0,0,-1.3333333,697.76193,1068.4766)">
      <path
         d="m 0,0 c 0,0 36.227,23.792 97.36,12.636 61.134,-11.157 56.609,-40.558 56.609,-40.558 0,0 -26.398,-21.448 -79.242,-9.408 C 21.882,-25.289 0,0 0,0"
         style="fill:#eb4e63;fill-opacity:1;fill-rule:nonzero;stroke:none"
         id="path581" />
    </g>
    <g
       id="g583"
       transform="matrix(1.3333333,0,0,-1.3333333,636.83233,992.78191)">
      <path
         d="m 0,0 c 0,0 34.229,29.621 77.672,34.229 0,0 -27.448,-45.085 -49.269,-43.771 C 6.582,-8.228 0,0 0,0"
         style="fill:#ffd244;fill-opacity:1;fill-rule:nonzero;stroke:none"
         id="path585" />
    </g>
    <g
       id="g587"
       transform="matrix(1.3333333,0,0,-1.3333333,501.2242,1451.1407)">
      <path
         d="m 0,0 c -5.94,-10.356 -11.946,-20.874 -14.892,-32.443 -2.186,-8.589 -2.39,-18.428 2.89,-25.546 2.228,-3.005 5.271,-5.297 8.372,-7.388 11.131,-7.509 23.614,-13.008 36.669,-16.152 14.168,-3.412 28.855,-4.047 43.429,-4.037 5.015,0.003 10.146,0.101 14.854,1.834 4.707,1.732 8.989,5.42 10.091,10.315 0.849,3.771 -0.255,7.684 -1.455,11.36 -4.551,13.945 -10.614,27.382 -14.686,41.475 -4.071,14.093 -6.09,29.218 -2.37,43.408 C 82.973,23.093 39.164,44.872 32.957,43.452 16.674,39.727 7.248,12.638 0,0"
         style="fill:#ffd244;fill-opacity:1;fill-rule:nonzero;stroke:none"
         id="path589" />
    </g>
    <g
       id="g591"
       transform="matrix(1.3333333,0,0,-1.3333333,783.72166,1508.989)">
      <path
         d="m 0,0 c -7.555,-6.31 -17.288,-12.833 -17.171,-22.675 0.109,-9.014 8.721,-15.43 16.906,-19.208 24.556,-11.335 52.785,-12.44 79.545,-8.532 7.7,1.125 15.554,2.727 22.104,6.93 10.386,6.664 15.97,19.063 17.332,31.328 1.362,12.265 -0.93,24.609 -3.211,36.736 -3.421,18.181 -6.843,36.362 -10.264,54.543 -0.113,0.602 -0.266,1.267 -0.773,1.611 -0.489,0.331 -1.136,0.248 -1.718,0.151 C 87.946,78.404 73.285,75.071 58.863,70.912 49.658,68.257 35.098,66.314 29.465,57.504 24.388,49.563 24.739,37.832 21.146,29.085 16.547,17.894 9.297,7.765 0,0"
         style="fill:#ffd244;fill-opacity:1;fill-rule:nonzero;stroke:none"
         id="path593" />
    </g>
    <g
       id="g595"
       transform="matrix(1.3333333,0,0,-1.3333333,614.2542,1563.7376)">
      <path
         d="m 0,0 c -0.019,1.513 -0.087,3.024 -0.205,4.531 -3.925,15.578 -2.608,36.642 -18.409,45.858 -1.84,0.657 -3.526,1 -5.067,1.069 -13.869,0.622 -16.069,-20.885 -16.747,-33.344 -0.089,-1.54 -0.185,-3.056 -0.32,-4.53 0.011,-1.016 0.042,-2.054 0.097,-3.109 0.163,-3.163 0.532,-6.477 1.152,-9.786 1.971,-0.253 3.95,-0.468 5.936,-0.647 1.984,-0.179 3.974,-0.322 5.965,-0.432 7.67,-0.564 14.252,-0.564 21.783,0.015 C -3.864,-0.273 -1.925,-0.147 0,0"
         style="fill:#ffab38;fill-opacity:1;fill-rule:nonzero;stroke:none"
         id="path597" />
    </g>
    <g
       id="g599"
       transform="matrix(1.3333333,0,0,-1.3333333,545.48593,1507.8692)">
      <path
         d="m 0,0 c -1.264,7.17 -3.896,13.753 -10.479,15.069 -11.848,1.317 -19.747,-7.899 -24.325,-17.664 -0.624,-1.01 -1.25,-1.986 -1.894,-2.912 -0.522,-0.817 -1.014,-1.652 -1.48,-2.503 -0.93,-1.702 -1.755,-3.467 -2.496,-5.252 -0.629,-1.514 -1.183,-3.078 -1.681,-4.666 11.195,-10.815 25.595,-17.336 41.165,-20.93 1.669,5.293 2.661,10.545 3.004,14.622 0.09,1.066 0.153,2.138 0.182,3.217 C 1.369,-15.209 1.369,-9.944 0.878,-4.934 0.63,-3.306 0.336,-1.658 0,0"
         style="fill:#ffab38;fill-opacity:1;fill-rule:nonzero;stroke:none"
         id="path601" />
    </g>
    <g
       id="g603"
       transform="matrix(1.3333333,0,0,-1.3333333,843.23206,1522.7767)">
      <path
         d="m 0,0 c -0.771,3.87 -2.089,7.819 -6.038,9.136 -3.291,1.316 -6.253,1.563 -8.945,1.068 C -16.329,9.957 -17.608,9.523 -18.829,8.946 -28.418,2.553 -35,-6.662 -42.519,-14.23 c -0.732,-0.879 -1.451,-1.776 -2.153,-2.693 -1.404,-1.834 -2.743,-3.747 -4.005,-5.755 -1.123,-1.328 -2.222,-2.702 -3.286,-4.113 3.346,-2.392 6.918,-4.409 10.672,-6.094 1.252,-0.561 2.523,-1.086 3.813,-1.575 2.478,-1.165 5.111,-1.165 7.949,-2.527 1.357,-0.355 2.729,-0.678 4.115,-0.971 4.158,-0.877 8.436,-1.481 12.792,-1.855 0.717,1.153 1.391,2.328 2.025,3.527 0.406,1.399 0.883,2.788 1.409,4.171 0.525,1.383 1.098,2.76 1.692,4.136 2.774,6.836 6.725,12.102 6.987,18.741 0.238,1.109 0.417,2.237 0.525,3.388 0.107,1.151 0.14,2.325 0.085,3.525 C 0.1,-1.525 0.065,-0.751 0,0"
         style="fill:#ffab38;fill-opacity:1;fill-rule:nonzero;stroke:none"
         id="path605" />
    </g>
    <g
       id="g607"
       transform="matrix(1.3333333,0,0,-1.3333333,909.26845,1558.0228)">
      <path
         d="m 0,0 c -1.59,10.557 4.993,19.772 -0.273,30.305 -0.823,0.987 -1.707,1.83 -2.641,2.537 -4.667,3.536 -10.555,3.664 -16.058,1.35 -1.099,-0.463 -2.185,-1.023 -3.242,-1.674 -1.228,-1.011 -2.348,-2.079 -3.377,-3.195 -1.029,-1.115 -1.968,-2.278 -2.836,-3.478 -3.441,-4.756 -4.759,-10.022 -8.328,-15.614 -0.625,-1.351 -1.258,-2.702 -1.92,-4.043 -1.986,-4.022 -4.23,-7.957 -7.267,-11.547 -0.85,-1.383 -1.668,-2.784 -2.457,-4.202 -0.789,-1.418 -1.548,-2.853 -2.276,-4.303 5.894,-0.011 11.851,0.315 17.767,0.875 1.183,0.112 2.365,0.234 3.544,0.364 2.761,0.802 5.394,0.802 8.435,1.073 1.163,0.167 2.322,0.34 3.474,0.519 2.009,-0.395 4,0.066 5.909,0.639 0.954,0.287 1.888,0.602 2.792,0.852 0.904,0.251 1.78,0.437 2.618,0.465 0.923,0.174 1.841,0.35 2.752,0.528 0.912,0.178 1.818,0.359 2.716,0.54 0.13,1.323 0.237,2.648 0.345,3.984 C -0.216,-2.69 -0.105,-1.344 0,0"
         style="fill:#ffab38;fill-opacity:1;fill-rule:nonzero;stroke:none"
         id="path609" />
    </g>
    <g
       id="g611"
       transform="matrix(1.3333333,0,0,-1.3333333,923.61085,1154.5124)">
      <path
         d="m 0,0 c -13.657,-5.946 -28.687,-7.863 -43.512,-9.303 -4.6,-0.446 -9.216,-0.854 -13.836,-0.758 -5.006,0.104 -9.98,0.797 -14.94,1.49 -11.74,1.638 -23.482,3.277 -35.223,4.916 -11.836,1.652 -23.932,3.384 -34.549,8.874 -5.928,3.067 -11.277,7.275 -15.567,12.389 -2.442,2.912 -4.555,6.123 -7.345,8.703 -2.791,2.579 -6.48,4.515 -10.258,4.119 0.661,-2.171 1.322,-4.344 2.088,-6.48 6.144,-17.135 19.241,-31.662 35.65,-39.542 11.135,-5.346 23.444,-7.652 35.589,-9.905 5.523,-1.024 11.065,-2.051 16.674,-2.357 5.571,-0.305 11.154,0.104 16.714,0.563 16.77,1.387 33.5,3.238 50.167,5.55 2.869,0.398 5.75,0.813 8.521,1.658 6.322,1.93 11.75,5.993 17.739,8.79 5.252,2.453 6.885,3.92 11.666,7.197 4.985,3.416 8.428,10.303 9.873,16.126 0.844,3.397 6.743,13.244 0.753,13.011 C 26.56,24.898 20.607,13.948 17.67,11.274 12.482,6.554 6.422,2.795 0,0"
         style="fill:#ffab38;fill-opacity:1;fill-rule:nonzero;stroke:none"
         id="path613" />
    </g>
    <g
       id="g615"
       transform="matrix(1.3333333,0,0,-1.3333333,466.56793,1343.2566)">
      <path
         d="m 0,0 99.804,-46.955 76.604,-19.747 120.321,13.314 95.251,42.659 55.641,48.901 35.965,40.816 26.212,52.58 4.19,21.152 c -7.987,-3.611 -20.754,-3.795 -37.804,-0.462 4.512,-38.079 -16.832,-55.169 -57.936,-46.386 C 419.802,65.424 401.378,50.71 366.013,70.396 366.108,34.131 350.979,29.755 325.722,57.176 315.331,21.385 294.597,18.011 269.614,48.011 252.858,14.084 231.855,13.531 212.777,46.499 186,15.382 161.172,18.366 145.676,54.584 116.281,27.456 96.101,32.975 91.068,69.557 58.319,46.173 40.637,53.602 42.627,88.401 5.351,67.66 -12.249,74.3 -5.564,105.167 c -33.983,-23.474 -43.428,-21.361 -24.011,8.766 -35.342,-19.923 -41.224,-12.209 -17.48,18.568 -19.144,-0.984 -32.441,2.717 -39.515,10.52 -0.933,-1.243 -1.845,-2.522 -2.744,-3.82 l 27.001,-65.478 z"
         style="fill:#c483b2;fill-opacity:1;fill-rule:nonzero;stroke:none"
         id="path617" />
    </g>
    <g
       id="g619"
       transform="matrix(1.3333333,0,0,-1.3333333,438.94167,1322.7787)">
      <path
         d="m 0,0 c 0,0 -52.883,-48.949 -31.55,-55.412 21.332,-6.462 37.788,-13.045 72.675,23.817 z"
         style="fill:#e692d4;fill-opacity:1;fill-rule:nonzero;stroke:none"
         id="path621" />
    </g>
    <g
       id="g623"
       transform="matrix(1.3333333,0,0,-1.3333333,308.48327,1112.5476)">
      <path
         d="m 0,0 c -14.596,7.875 -28.995,16.262 -42.711,25.598 -10.969,7.466 -22.305,16.62 -27.024,29.463 -2.386,6.493 -9.21,7.874 -14.159,5.826 0.858,3.294 -0.06,6.942 -2.503,9.598 -5.495,5.973 -10.47,12.274 -14.97,19.025 -0.01,0.014 -0.021,0.027 -0.03,0.041 -7.896,12.524 -14.729,25.584 -17.627,40.237 -0.577,10.17 1.828,20.339 8.444,29.527 0.243,-0.053 0.491,-0.087 0.738,-0.123 0.104,-0.544 0.23,-1.083 0.35,-1.624 0.518,0.223 1.048,0.41 1.553,0.522 0.784,0.175 1.689,0.177 2.5,0.179 2.051,0.006 3.973,-1.151 5.376,-2.558 0.419,-0.419 0.741,-0.904 1.022,-1.412 0.795,-0.435 1.563,-1.045 2.27,-1.879 3.985,-4.705 8.869,-8.456 13.969,-11.981 -7.767,15.487 -10.145,32.603 -9.896,49.921 0.285,0.897 0.468,1.838 0.509,2.813 0.224,5.436 0.449,10.872 0.672,16.308 0.09,0.869 0.184,1.735 0.281,2.602 2.198,8.438 4.412,16.881 7.871,24.856 8.531,19.673 21.641,36.787 37.929,50.656 6.908,5.881 1.763,14.632 -5.248,16.207 -0.156,0.479 -0.339,0.958 -0.567,1.437 -6.712,14.091 -22.948,34.243 -40.863,29.24 -16.508,-4.61 -27.708,-24.83 -33.928,-39.388 -7.306,-17.098 -13.559,-36.965 -12.583,-55.737 1.084,-20.826 9.479,-40.902 15.912,-60.505 0.512,-1.561 1.327,-2.854 2.32,-3.909 0.001,-0.074 0.004,-0.148 0.005,-0.222 -2.594,-0.621 -4.952,-2.341 -6.681,-4.644 -8.977,-11.953 -12.37,-25.317 -11.862,-38.741 -0.023,-0.838 0.019,-1.691 0.14,-2.549 0.002,-0.012 0.005,-0.024 0.007,-0.036 0.983,-13.138 5.602,-26.25 12.322,-38.072 0.001,-0.001 0.001,-0.002 0.001,-0.003 1.561,-3.165 3.28,-6.24 5.126,-9.235 5.966,-3.298 11.768,-6.934 17.13,-11.103 5.621,-4.372 11.443,-9.489 14.03,-16.076 0.291,0.097 0.585,0.184 0.865,0.306 -0.237,-1.42 -0.107,-3.012 0.534,-4.754 5.927,-16.135 17.439,-27.74 31.088,-37.738 4.188,-3.068 8.491,-5.998 12.867,-8.83 14.45,-2.692 28.852,-5.835 43.602,-6.023 C 1.55,-2.815 3.489,-4.011 4.651,-5.725 4.117,-3.5 2.665,-1.438 0,0"
         style="fill:#ffd244;fill-opacity:1;fill-rule:nonzero;stroke:none"
         id="path625" />
    </g>
    <g
       id="g627"
       transform="matrix(1.3333333,0,0,-1.3333333,1430.5367,738.52805)">
      <path
         d="m 0,0 c -2.33,20.043 -9.823,38.761 -18.924,56.634 -8.04,15.792 -21.676,30.183 -40.859,22.276 -6.492,-2.676 -13.698,-8.035 -16.992,-14.785 -2.658,-2.435 -4.589,-5.674 -5.332,-9.875 -0.093,-0.525 -0.143,-1.04 -0.174,-1.548 -3.119,-3.534 -11.113,-19.081 -7.032,-23.541 7.801,-8.525 32.473,-16.525 32.473,-67.798 0,-11.019 -1.66,-25.745 -4.003,-40.242 -2.128,-8.145 -4.558,-16.232 -8.272,-23.572 -3.343,-6.607 -7.599,-12.684 -12.652,-18.024 -2.992,-2.669 -5.984,-5.339 -8.976,-8.008 -0.557,-0.421 -1.096,-0.86 -1.666,-1.265 -1.017,-0.721 -1.826,-1.543 -2.468,-2.423 l -13.612,-12.146 c -2.461,-2.196 -3.336,-4.756 -3.131,-7.199 3.537,1.57 7.022,3.263 10.476,5.035 1.154,0.993 2.432,1.82 3.857,2.323 1.272,0.643 2.62,0.927 4.042,0.849 0.662,-0.125 1.323,-0.25 1.985,-0.375 2.029,-0.564 3.588,-2.148 4.597,-3.926 0.392,-0.689 0.624,-1.499 0.737,-2.34 0.522,-1.15 0.8,-2.413 0.771,-3.676 -0.058,-2.434 -0.472,-4.753 -1.103,-7.01 -0.845,-11.043 -3.685,-19.317 -10.934,-29.847 -0.046,-0.067 -0.044,-0.153 -0.072,-0.228 -2.593,-0.86 -5.326,-6.676 -5.326,-6.676 0,0 5.269,-19.303 -10.152,-44.27 -2.543,-4.5 -5.404,-8.822 -8.475,-12.984 -3.036,-3.82 -6.239,-7.489 -9.104,-11.06 5.267,4.234 10.729,8.23 16.247,12.158 4.308,5.174 8.058,11.01 12.116,15.864 4.899,5.86 10.313,11.179 15.629,16.586 1.487,2.048 2.951,4.114 4.375,6.203 0.709,4.57 1.111,9.539 3.225,13.387 0.099,0.181 0.176,0.361 0.263,0.541 0.236,0.089 0.467,0.191 0.696,0.302 2.144,14.583 9.914,28.37 21.464,37.598 0.612,1.479 1.152,2.982 1.602,4.512 4.665,10.116 8.407,20.723 12.449,31.021 0.996,2.54 0.421,5.28 -1.005,7.543 2.092,4.007 4.079,8.066 5.983,12.169 C -15.883,-76.17 4.606,-39.627 0,0"
         style="fill:#ffd244;fill-opacity:1;fill-rule:nonzero;stroke:none"
         id="path629" />
    </g>
    <g
       id="g631"
       transform="matrix(1.3333333,0,0,-1.3333333,527.91046,673.94858)">
      <path
         d="m 0,0 c -5.087,-4.338 -10.925,-7.082 -16.227,-10.845 -2.724,-1.743 -5.315,-3.691 -7.949,-5.563 -1.324,-0.925 -2.569,-1.964 -3.857,-2.938 -1.268,-1.003 -2.576,-1.949 -3.809,-2.996 -10.022,-8.157 -19.336,-17.144 -27.807,-26.827 -2.092,-2.444 -4.209,-4.864 -6.171,-7.411 -2.03,-2.492 -3.947,-5.066 -5.872,-7.633 -0.986,-1.267 -1.888,-2.594 -2.803,-3.911 l -2.737,-3.953 -2.592,-4.047 -1.296,-2.022 -1.215,-2.07 c -3.275,-5.396 -6.353,-11.348 -9.914,-17.188 -3.568,-5.841 -7.549,-11.764 -12.959,-16.998 -2.71,-2.595 -5.797,-5.001 -9.316,-6.881 -3.501,-1.886 -7.423,-3.224 -11.417,-3.783 -1.992,-0.325 -4.036,-0.389 -6.063,-0.353 -2.03,0.077 -4.047,0.327 -6.015,0.735 -3.924,0.851 -7.626,2.308 -10.958,4.152 -6.709,3.687 -12.113,8.622 -16.903,13.777 -4.769,5.19 -8.916,10.718 -12.772,16.294 l -45.023,65.249 -11.224,16.255 c -1.812,2.576 -3.597,4.903 -5.463,6.712 -1.88,1.818 -3.722,3.055 -5.738,3.732 -2.012,0.685 -4.172,0.822 -6.509,0.421 -2.33,-0.398 -4.787,-1.342 -7.177,-2.664 -4.807,-2.667 -9.292,-6.676 -13.079,-11.264 -7.96,-9.554 -14.239,-20.549 -18.625,-32.265 -4.351,-11.728 -6.93,-24.152 -7.482,-36.674 -0.583,-12.52 0.937,-25.129 4.524,-37.102 3.633,-11.959 9.36,-23.334 16.798,-33.497 7.412,-10.206 16.56,-19.061 26.553,-26.827 9.996,-7.841 21.062,-14.262 32.985,-19.941 l 0.013,-0.006 c 0.706,-0.336 1.006,-1.182 0.67,-1.888 -0.268,-0.563 -0.862,-0.867 -1.448,-0.797 -6.724,0.811 -13.391,2.496 -19.769,4.966 -3.211,1.195 -6.324,2.639 -9.402,4.167 -3.043,1.586 -6.054,3.265 -8.936,5.148 -5.814,3.7 -11.19,8.073 -16.203,12.815 -4.949,4.811 -9.575,9.97 -13.712,15.512 -8.323,11.044 -14.844,23.503 -19.081,36.773 -4.19,13.284 -6.065,27.258 -5.621,41.14 0.185,6.946 0.992,13.865 2.279,20.692 1.336,6.818 3.221,13.531 5.629,20.055 4.82,13.045 11.764,25.357 20.677,36.149 4.607,5.583 10.05,10.645 16.788,14.449 3.377,1.878 7.138,3.428 11.324,4.174 4.158,0.758 8.8,0.572 13.053,-0.873 2.114,-0.702 4.152,-1.705 5.966,-2.887 1.823,-1.179 3.432,-2.532 4.864,-3.934 2.864,-2.814 5.06,-5.8 7.042,-8.624 l 11.241,-16.402 44.775,-65.419 c 3.623,-5.31 7.408,-10.39 11.558,-14.958 4.144,-4.534 8.672,-8.595 13.565,-11.301 4.886,-2.731 10.023,-3.968 15.102,-3.206 5.096,0.681 9.76,3.263 13.896,7.214 4.144,3.937 7.705,9.016 11.029,14.416 1.667,2.704 3.278,5.513 4.907,8.37 l 2.472,4.325 2.648,4.372 c 7.083,11.641 15.426,22.455 24.677,32.367 1.125,1.269 2.338,2.454 3.519,3.668 1.194,1.203 2.363,2.429 3.574,3.612 l 3.703,3.478 1.859,1.729 1.915,1.666 3.83,3.328 3.938,3.198 c 2.596,2.165 5.345,4.139 8.038,6.174 1.344,1.021 2.765,1.941 4.143,2.915 1.399,0.947 2.752,1.955 4.187,2.848 2.851,1.808 5.653,3.684 8.59,5.351 1.458,0.849 2.895,1.727 4.367,2.55 l 4.456,2.393 c 1.479,0.803 3.012,1.512 4.598,2.112 1.578,0.618 3.175,1.189 4.841,1.602 C -0.983,5.497 0.603,4.541 0.992,2.973 1.268,1.862 0.868,0.742 0.054,0.045 Z"
         style="fill:#714b7f;fill-opacity:1;fill-rule:nonzero;stroke:none"
         id="path633" />
    </g>
    <g
       id="g635"
       transform="matrix(1.3333333,0,0,-1.3333333,147.64994,880.75724)">
      <path
         d="m 0,0 c -2.646,-2.522 -4.996,-5.308 -7.074,-8.3 -2.009,-3.051 -3.652,-6.328 -5.053,-9.712 -1.326,-3.423 -2.287,-6.986 -2.965,-10.602 -0.641,-3.629 -0.924,-7.313 -0.922,-10.992 0.076,-3.682 0.512,-7.332 1.179,-10.924 0.761,-3.55 1.873,-7.098 3.244,-10.532 1.437,-3.417 3.172,-6.711 5.084,-9.921 1.975,-3.177 4.208,-6.207 6.625,-9.102 4.925,-5.723 10.65,-10.816 16.923,-15.17 3.165,-2.141 6.449,-4.081 9.872,-5.867 3.44,-1.742 6.988,-3.285 10.591,-4.741 3.625,-1.404 7.312,-2.692 11.059,-3.879 3.757,-1.153 7.569,-2.204 11.427,-3.186 3.867,-0.945 7.778,-1.82 11.731,-2.665 l 11.996,-2.395 0.012,-0.003 c 0.976,-0.195 1.609,-1.144 1.414,-2.12 -0.153,-0.765 -0.772,-1.319 -1.501,-1.43 -8.293,-1.236 -16.74,-1.4 -25.18,-0.705 -4.218,0.383 -8.433,0.978 -12.621,1.816 -4.18,0.875 -8.333,1.97 -12.42,3.327 -16.252,5.537 -31.761,15.024 -43.276,28.451 -2.867,3.361 -5.534,6.912 -7.916,10.674 -2.349,3.786 -4.38,7.782 -6.082,11.934 -1.636,4.185 -2.951,8.48 -3.864,12.952 -0.835,4.461 -1.221,8.982 -1.197,13.494 0.103,4.511 0.568,9.005 1.471,13.425 1.002,4.399 2.373,8.714 4.189,12.86 1.868,4.126 4.193,8.047 6.911,11.693 2.789,3.6 6.016,6.856 9.575,9.69 2.276,1.811 5.588,1.435 7.4,-0.84 C 2.34,5.084 2.103,2.016 0.162,0.155 Z"
         style="fill:#714b7f;fill-opacity:1;fill-rule:nonzero;stroke:none"
         id="path637" />
    </g>
    <g
       id="g639"
       transform="matrix(1.3333333,0,0,-1.3333333,186.90127,1030.17)">
      <path
         d="m 0,0 c 0.376,-23.187 18.331,-43.163 39.355,-52.95 21.025,-9.786 44.794,-11.391 67.939,-12.843"
         style="fill:none;stroke:#714b7f;stroke-width:10.532;stroke-linecap:round;stroke-linejoin:round;stroke-miterlimit:10;stroke-dasharray:none;stroke-opacity:1"
         id="path641" />
    </g>
    <g
       id="g643"
       transform="matrix(1.3333333,0,0,-1.3333333,732.20339,854.20578)">
      <path
         d="m 0,0 -6.96,6.987 c -2.267,2.24 -4.449,4.428 -6.669,6.495 -4.385,4.162 -8.74,7.951 -13.075,11.151 -4.352,3.182 -8.659,5.752 -12.884,7.452 -4.233,1.707 -8.308,2.633 -12.584,2.848 -0.552,0.015 -1.039,0.053 -1.65,0.041 -0.604,-0.016 -1.207,-0.019 -1.813,-0.007 -1.19,-0.044 -2.387,-0.083 -3.552,-0.188 -2.344,-0.188 -4.631,-0.525 -6.898,-1.004 -4.506,-1.007 -8.939,-2.668 -13.427,-5.153 -4.477,-2.481 -8.974,-5.772 -13.471,-9.671 -2.265,-1.939 -4.498,-4.042 -6.814,-6.222 -2.307,-2.186 -4.61,-4.493 -7.169,-6.78 -0.103,3.425 0.181,6.776 0.745,10.106 0.548,3.339 1.419,6.631 2.56,9.895 2.295,6.505 5.881,12.841 10.922,18.377 2.506,2.775 5.399,5.297 8.568,7.524 3.185,2.196 6.651,4.089 10.303,5.528 3.644,1.455 7.454,2.464 11.27,3.092 1.911,0.359 3.822,0.497 5.731,0.664 0.949,0.052 1.899,0.088 2.849,0.112 0.943,0.029 2.011,-0.003 3.012,-0.027 8.157,-0.302 16.341,-2.837 23.095,-6.945 6.793,-4.097 12.251,-9.504 16.4,-15.379 4.165,-5.882 7.135,-12.234 9.093,-18.761 0.954,-3.28 1.7,-6.582 2.128,-9.947 C 0.144,6.837 0.355,3.44 0,0"
         style="fill:#714b7f;fill-opacity:1;fill-rule:nonzero;stroke:none"
         id="path645" />
    </g>
    <g
       id="g647"
       transform="matrix(1.3333333,0,0,-1.3333333,1062.4026,857.56978)">
      <path
         d="m 0,0 c -1.774,2.565 -3.465,4.854 -5.203,6.996 -1.756,2.129 -3.492,4.117 -5.303,5.965 -3.57,3.708 -7.235,6.965 -10.918,9.718 -3.686,2.732 -7.383,4.969 -10.84,6.379 -1.723,0.712 -3.367,1.222 -4.886,1.512 -0.756,0.157 -1.492,0.263 -2.193,0.317 -0.35,0.029 -0.7,0.081 -1.038,0.064 l -0.51,0.015 -0.713,-0.015 c -3.917,-0.044 -7.5,-0.588 -11.093,-1.703 -3.582,-1.12 -7.235,-2.879 -10.986,-5.37 -3.742,-2.486 -7.535,-5.661 -11.38,-9.296 -1.939,-1.811 -3.853,-3.757 -5.854,-5.771 -1.987,-2.022 -3.993,-4.138 -6.233,-6.288 -0.516,3.062 -0.599,6.093 -0.44,9.123 0.148,3.038 0.606,6.051 1.295,9.06 1.408,5.994 3.904,11.936 7.758,17.39 3.822,5.443 9.119,10.382 15.549,13.798 6.396,3.452 13.78,5.252 20.835,5.367 0.45,0.011 0.868,0.037 1.345,0.03 l 1.547,-0.06 c 1.037,-0.026 2.05,-0.147 3.064,-0.269 2.026,-0.253 3.983,-0.718 5.882,-1.258 3.781,-1.14 7.229,-2.795 10.29,-4.773 C -13.9,46.954 -9.198,41.866 -5.69,36.323 -2.177,30.781 0.17,24.725 1.279,18.504 1.805,15.384 2.061,12.242 1.879,9.112 1.713,5.995 1.178,2.894 0,0"
         style="fill:#714b7f;fill-opacity:1;fill-rule:nonzero;stroke:none"
         id="path649" />
    </g>
    <g
       id="g651"
       transform="matrix(1.3333333,0,0,-1.3333333,533.21246,671.02872)">
      <path
         d="m 0,0 c -2.036,-2.456 -5.366,-3.941 -8.635,-4.191 -3.292,-0.275 -6.568,0.425 -9.463,1.892 -2.892,1.459 -5.535,3.635 -7.415,6.619 -0.949,1.478 -1.668,3.174 -2.083,4.983 -0.398,1.809 -0.476,3.738 -0.131,5.559 l 0.001,0.017 c 0.156,1.788 1.234,3.273 2.725,4.029 l 0.388,0.194 c 5.427,2.729 11.146,4.893 17.009,6.526 l 4.419,1.143 4.47,0.932 4.502,0.759 4.532,0.54 c 6.054,0.635 12.16,0.684 18.222,0.3 1.516,-0.119 3.028,-0.273 4.535,-0.457 1.502,-0.241 2.998,-0.513 4.484,-0.832 1.48,-0.357 2.943,-0.8 4.395,-1.245 1.438,-0.539 2.868,-1.07 4.251,-1.762 1.796,-0.898 2.524,-3.082 1.626,-4.878 -0.565,-1.13 -1.642,-1.838 -2.809,-1.982 l -0.219,-0.025 c -1.464,-0.171 -2.88,-0.181 -4.29,-0.197 -1.412,-0.036 -2.815,-0.07 -4.2,-0.016 -1.393,-0.021 -2.775,0.004 -4.152,0.061 -1.381,0.003 -2.757,0.036 -4.13,0.103 -5.503,0.141 -11.003,-0.171 -16.46,-0.769 L 7.49,16.755 3.426,16.101 -0.611,15.295 -4.627,14.377 C -9.956,13.049 -15.203,11.392 -20.373,9.46 l 3.111,4.223 v -0.006 c 0.112,-1.245 0.403,-2.355 1.113,-3.619 0.711,-1.232 1.808,-2.508 3.178,-3.534 1.374,-1.006 2.95,-1.844 4.603,-2.283 1.662,-0.439 3.362,-0.556 5.315,-0.064 l 0.362,0.092 C -1.27,4.627 0.173,3.765 0.531,2.343 0.745,1.495 0.515,0.628 0,0"
         style="fill:#714b7f;fill-opacity:1;fill-rule:nonzero;stroke:none"
         id="path653" />
    </g>
    <g
       id="g655"
       transform="matrix(1.3333333,0,0,-1.3333333,536.97553,1390.4616)">
      <path
         d="m 0,0 c -11.336,-19.454 -22.672,-38.908 -34.009,-58.362 -5.99,-10.281 -12.201,-21.618 -10.429,-33.385 2.092,-13.894 14.779,-23.801 27.74,-29.226 19.041,-7.969 40.079,-9.414 60.677,-10.758 11.824,-0.772 26.891,0.449 30.855,11.616 3.039,8.564 -2.749,17.429 -7.271,25.311 -12.615,21.982 -16.798,48.667 -11.514,73.455"
         style="fill:none;stroke:#714b7f;stroke-width:10.532;stroke-linecap:round;stroke-linejoin:round;stroke-miterlimit:10;stroke-dasharray:none;stroke-opacity:1"
         id="path657" />
    </g>
    <g
       id="g659"
       transform="matrix(1.3333333,0,0,-1.3333333,820.19032,1434.2468)">
      <path
         d="m 0,0 c -1.784,-20.571 -11.813,-40.31 -27.375,-53.88 -7.701,-6.715 -17.48,-13.355 -18.21,-23.547 -0.483,-6.754 3.52,-13.232 8.911,-17.329 5.392,-4.098 12.02,-6.188 18.581,-7.86 18.429,-4.697 37.547,-6.677 56.547,-5.859 14.38,0.62 29.871,3.428 39.68,13.961 11.281,12.114 11.654,30.557 10.361,47.059 -2.001,25.553 -6.412,50.917 -13.156,75.644"
         style="fill:none;stroke:#714b7f;stroke-width:10.532;stroke-linecap:round;stroke-linejoin:round;stroke-miterlimit:10;stroke-dasharray:none;stroke-opacity:1"
         id="path661" />
    </g>
    <g
       id="g663"
       transform="matrix(1.3333333,0,0,-1.3333333,584.54326,643.19218)">
      <path
         d="m 0,0 c -13.22,-1.552 -26.706,1.416 -39.015,8.477 -3.051,1.834 -6.002,4.028 -8.645,6.704 -2.623,2.69 -4.901,5.913 -6.471,9.505 -0.743,1.808 -1.404,3.668 -1.78,5.576 -0.438,1.897 -0.628,3.81 -0.698,5.799 -0.089,3.941 0.619,7.86 1.972,11.427 2.715,7.167 7.516,13.033 13.226,17.52 2.852,2.245 6.075,4.144 9.262,5.613 3.214,1.496 6.526,2.665 9.846,3.591 6.654,1.845 13.316,2.707 19.795,3.345 3.248,0.322 6.436,0.563 9.635,0.799 l 9.594,0.725 c 25.604,1.647 51.322,2.417 77.029,1.296 l 9.638,-0.419 9.63,-0.645 4.814,-0.331 4.808,-0.443 9.613,-0.9 9.593,-1.14 c 1.597,-0.195 3.199,-0.361 4.795,-0.58 l 4.781,-0.698 c 3.186,-0.474 6.378,-0.911 9.56,-1.418 l 9.522,-1.678 c 1.586,-0.292 3.179,-0.535 4.757,-0.866 l 4.735,-0.987 c 3.154,-0.671 6.32,-1.284 9.463,-2.006 6.263,-1.555 12.568,-2.929 18.765,-4.756 12.476,-3.317 24.712,-7.514 36.839,-12.003 24.098,-9.365 47.402,-20.971 68.913,-35.446 C 324.838,8.992 335.078,0.99 344.99,-7.373 l 7.27,-6.477 1.816,-1.62 c 0.596,-0.55 1.163,-1.133 1.746,-1.697 l 3.473,-3.416 3.473,-3.416 1.736,-1.709 1.652,-1.791 6.595,-7.181 c 8.519,-9.812 16.661,-20.014 23.639,-31.026 3.706,-5.363 6.794,-11.113 10.081,-16.741 3.177,-5.681 5.98,-11.341 9.072,-16.703 3.064,-5.362 6.377,-10.419 10.202,-14.757 0.992,-1.029 1.936,-2.131 2.995,-3.047 0.525,-0.465 1.013,-0.991 1.563,-1.411 l 1.628,-1.293 c 2.228,-1.605 4.532,-3.073 7.046,-4.028 4.964,-2.115 10.396,-2.71 15.826,-1.97 5.439,0.758 10.853,2.83 15.969,5.657 5.125,2.835 9.972,6.415 14.519,10.397 4.555,4 8.789,8.371 12.785,13.076 8.137,9.506 15.736,19.48 22.662,29.901 6.957,10.401 13.282,21.222 18.959,32.37 2.824,5.587 5.477,11.239 7.991,16.984 2.552,5.833 5.172,11.995 9.027,17.943 1.932,2.963 4.2,5.88 7.003,8.48 2.787,2.598 6.163,4.842 9.89,6.284 3.673,1.484 7.783,2.156 11.794,1.982 2.013,-0.076 3.979,-0.415 5.895,-0.859 1.894,-0.496 3.735,-1.117 5.474,-1.889 6.97,-3.116 12.487,-7.916 17.095,-13.157 4.597,-5.285 8.328,-11.129 11.279,-17.406 0.767,-1.597 1.32,-3.118 1.951,-4.667 l 1.844,-4.635 c 0.662,-1.529 1.102,-3.134 1.628,-4.709 l 1.525,-4.745 c 0.554,-1.569 0.882,-3.2 1.304,-4.805 l 1.206,-4.832 c 0.448,-1.601 0.662,-3.25 0.982,-4.877 l 0.887,-4.897 c 2.059,-13.107 2.385,-26.454 1.104,-39.631 -2.574,-26.33 -11.679,-52.141 -27.068,-73.855 -15.404,-21.705 -36.717,-38.816 -60.658,-49.909 -3.018,-1.334 -6.073,-2.59 -9.108,-3.884 -3.096,-1.14 -6.221,-2.208 -9.33,-3.31 -3.164,-0.941 -6.348,-1.816 -9.52,-2.721 -3.217,-0.738 -6.456,-1.396 -9.693,-2.026 -3.272,-0.448 -6.559,-0.795 -9.836,-1.101 -3.302,-0.109 -6.603,-0.142 -9.886,-0.091 -3.295,0.242 -6.574,0.574 -9.818,1.003 -3.242,0.638 -6.454,1.366 -9.597,2.301 -0.524,0.156 -0.823,0.707 -0.666,1.232 0.108,0.364 0.407,0.619 0.754,0.69 l 0.07,0.013 c 3.224,0.642 6.381,1.066 9.506,1.421 3.128,0.573 6.222,1.024 9.299,1.429 3.066,0.622 6.118,1.122 9.161,1.613 3.019,0.679 6.039,1.267 9.056,1.844 2.985,0.758 5.983,1.429 8.974,2.127 l 8.845,2.604 c 2.887,1.057 5.789,2.072 8.666,3.152 2.815,1.234 5.65,2.423 8.452,3.683 22.217,10.502 41.849,26.578 55.83,46.622 14.016,20.019 22.409,43.912 24.685,68.303 1.151,12.201 0.766,24.54 -1.133,36.621 l -0.814,4.513 c -0.293,1.499 -0.478,3.022 -0.895,4.493 l -1.105,4.446 c -0.387,1.477 -0.677,2.983 -1.19,4.421 l -1.397,4.36 c -0.48,1.447 -0.875,2.926 -1.485,4.325 l -1.688,4.25 c -0.566,1.404 -1.102,2.883 -1.719,4.16 -2.459,5.262 -5.655,10.266 -9.423,14.604 -3.761,4.322 -8.175,8.004 -12.888,10.097 -4.719,2.125 -9.535,2.367 -14.017,0.596 -4.44,-1.684 -8.176,-5.393 -11.266,-10.156 -3.111,-4.757 -5.57,-10.36 -8.114,-16.193 -2.607,-5.931 -5.38,-11.818 -8.317,-17.605 -5.919,-11.557 -12.469,-22.797 -19.747,-33.55 -7.238,-10.78 -15.168,-21.09 -23.656,-30.912 -4.279,-4.989 -8.953,-9.785 -14.002,-14.172 -5.059,-4.387 -10.532,-8.417 -16.583,-11.731 -6.038,-3.293 -12.719,-5.894 -19.936,-6.871 -7.188,-0.978 -14.882,-0.11 -21.644,2.815 -3.441,1.355 -6.571,3.334 -9.48,5.474 l -2.105,1.691 c -0.709,0.559 -1.319,1.199 -1.98,1.797 -1.339,1.19 -2.479,2.509 -3.684,3.787 -4.588,5.254 -8.232,10.967 -11.467,16.674 -3.247,5.701 -6.079,11.49 -9.104,16.944 -3.118,5.392 -6.045,10.901 -9.589,16.041 -6.647,10.556 -14.441,20.357 -22.598,29.805 l -6.323,6.918 -1.583,1.728 -1.669,1.648 -3.336,3.296 -3.336,3.297 c -0.56,0.545 -1.103,1.108 -1.676,1.64 l -1.749,1.564 -6.993,6.262 c -9.548,8.088 -19.416,15.849 -29.917,22.712 -20.779,14.061 -43.374,25.381 -66.76,34.535 -11.755,4.41 -23.681,8.459 -35.865,11.644 -6.042,1.764 -12.207,3.08 -18.32,4.58 -3.071,0.694 -6.167,1.281 -9.249,1.927 l -4.628,0.949 c -1.543,0.318 -3.103,0.55 -4.653,0.83 l -9.315,1.611 c -3.114,0.484 -6.241,0.901 -9.36,1.355 l -4.682,0.668 c -1.563,0.209 -3.133,0.366 -4.699,0.552 l -9.403,1.06 -9.431,0.817 -4.717,0.403 -4.727,0.291 -9.454,0.568 -9.469,0.346 -4.735,0.171 -4.74,0.067 L 74.4,69.741 64.916,69.669 60.174,69.633 55.432,69.512 45.945,69.27 36.462,68.851 31.721,68.64 26.98,68.348 17.502,67.76 8.029,67.021 C 4.871,66.779 1.703,66.531 -1.393,66.216 -7.589,65.604 -13.612,64.75 -19.26,63.201 c -5.632,-1.548 -10.937,-3.816 -15.193,-7.134 -4.314,-3.332 -7.842,-7.738 -9.664,-12.525 -0.915,-2.389 -1.377,-4.856 -1.347,-7.288 0.035,-1.194 0.128,-2.469 0.405,-3.681 0.214,-1.229 0.637,-2.384 1.076,-3.531 0.966,-2.259 2.383,-4.354 4.18,-6.248 1.822,-1.879 3.991,-3.562 6.385,-5.036 2.408,-1.46 5.024,-2.72 7.754,-3.811 2.736,-1.081 5.569,-2.026 8.45,-2.94 L -8.438,8.303 C -5.473,7.393 -2.471,6.477 0.559,5.357 L 0.636,5.329 C 2.064,4.8 2.795,3.213 2.267,1.783 1.895,0.778 0.996,0.119 0,0"
         style="fill:#714b7f;fill-opacity:1;fill-rule:nonzero;stroke:none"
         id="path665" />
    </g>
    <g
       id="g667"
       transform="matrix(1.3333333,0,0,-1.3333333,1387.4326,884.17844)">
      <path
         d="m 0,0 c -0.194,-6.082 -1.081,-12.153 -2.56,-18.071 l -1.215,-4.411 -1.412,-4.354 -1.643,-4.269 -1.823,-4.194 c -5.09,-11.089 -12.207,-21.189 -20.716,-29.86 -8.514,-8.669 -18.478,-15.909 -29.384,-21.209 -5.476,-2.598 -11.249,-4.588 -17.176,-5.759 -5.92,-1.172 -11.986,-1.606 -17.953,-0.877 -0.734,0.09 -1.258,0.758 -1.168,1.493 0.062,0.503 0.394,0.906 0.832,1.082 l 0.012,0.004 c 5.425,2.164 10.607,4.252 15.621,6.585 5.007,2.332 9.849,4.826 14.539,7.561 9.43,5.372 17.993,12.186 25.409,20.049 7.417,7.864 13.652,16.803 18.468,26.435 l 1.726,3.65 1.567,3.719 1.453,3.766 1.288,3.827 c 1.614,5.138 2.828,10.403 3.644,15.758 l 0.006,0.036 c 0.437,2.88 3.127,4.859 6.007,4.421 C -1.809,4.976 0.087,2.634 0,0"
         style="fill:#714b7f;fill-opacity:1;fill-rule:nonzero;stroke:none"
         id="path669" />
    </g>
    <g
       id="g671"
       transform="matrix(1.3333333,0,0,-1.3333333,874.22806,902.62898)">
      <path
         d="m 0,0 c -16.963,0.01 -33.927,-2.236 -49.804,-7.638 -7.934,-2.692 -15.554,-6.222 -22.716,-10.517 -7.167,-4.289 -13.844,-9.377 -20.031,-15.055 -6.208,-5.666 -11.903,-11.924 -17.446,-18.449 l -8.361,-9.922 c -2.853,-3.326 -5.763,-6.677 -9.091,-9.867 -3.326,-3.156 -7.085,-6.277 -11.883,-8.35 -2.383,-1.021 -5.025,-1.732 -7.719,-1.908 -2.711,-0.199 -5.351,0.131 -7.729,0.637 -4.787,1.047 -8.955,2.733 -12.999,4.26 -4.023,1.539 -7.914,3.019 -11.655,3.857 -3.733,0.839 -7.232,0.958 -9.962,-0.194 -1.393,-0.576 -2.621,-1.371 -3.836,-2.583 l -0.929,-0.961 c -0.306,-0.324 -0.649,-0.613 -0.897,-0.993 -0.52,-0.733 -1.124,-1.399 -1.598,-2.168 -3.965,-6.047 -5.273,-14.035 -3.8,-21.308 0.724,-3.639 2.128,-7.109 4.159,-10.067 1.025,-1.471 2.18,-2.833 3.49,-4.017 1.286,-1.228 2.815,-2.338 4.436,-3.345 3.267,-2.022 6.992,-3.682 10.947,-5.362 3.94,-1.685 8.131,-3.423 12.252,-5.769 8.18,-4.787 15.068,-11.298 20.74,-18.256 5.738,-6.948 10.629,-14.259 15.572,-21.226 4.945,-6.966 9.964,-13.689 15.813,-19.273 5.853,-5.553 12.551,-10.147 19.916,-13.587 7.352,-3.452 15.258,-5.863 23.394,-7.434 8.137,-1.59 16.512,-2.294 24.929,-2.5 8.423,-0.199 16.904,0.126 25.394,0.771 8.47,0.67 17.066,1.555 25.4,2.797 8.331,1.273 16.484,3.037 24.111,5.892 3.801,1.428 7.493,3.139 10.915,5.16 3.397,2.008 6.585,4.402 9.458,7.108 5.737,5.401 10.257,12.122 12.324,19.423 1.045,3.652 1.421,7.386 1.169,11.145 -0.258,3.791 -1.219,7.777 -2.238,11.943 -1.032,4.167 -2.159,8.572 -2.684,13.345 -0.219,2.4 -0.332,4.867 -0.091,7.391 0.251,2.515 0.759,5.062 1.589,7.428 1.657,4.738 4.179,8.821 6.72,12.495 2.549,3.699 5.145,7.073 7.298,10.493 1.106,1.69 1.923,3.453 2.831,5.193 0.243,0.427 0.417,0.888 0.591,1.347 l 0.54,1.371 c 0.352,0.917 0.763,1.812 0.994,2.776 l 0.825,2.841 c 0.244,0.956 0.389,1.941 0.592,2.909 l 0.287,1.459 c 0.079,0.488 0.109,0.987 0.168,1.481 l 0.318,2.968 c 0.397,7.964 -0.726,16.121 -3.528,23.737 -1.29,3.847 -3.124,7.491 -5.104,11.025 -1.083,1.714 -2.09,3.482 -3.332,5.084 -0.61,0.807 -1.15,1.672 -1.815,2.434 l -1.953,2.321 c -2.724,3.039 -5.661,5.971 -8.851,8.581 -1.549,1.365 -3.229,2.569 -4.874,3.818 -0.82,0.629 -1.704,1.169 -2.553,1.759 -0.86,0.572 -1.698,1.18 -2.597,1.692 C 33.062,-5.035 16.537,-0.157 0,0 M 0,7.699 C 9.021,7.651 18.045,6.474 26.691,3.943 c 4.35,-1.178 8.561,-2.802 12.71,-4.548 2.039,-0.957 4.114,-1.843 6.087,-2.934 0.992,-0.533 2.009,-1.024 2.981,-1.595 l 2.912,-1.72 c 0.984,-0.553 1.907,-1.204 2.852,-1.82 0.933,-0.635 1.9,-1.22 2.804,-1.897 1.813,-1.346 3.658,-2.652 5.373,-4.129 3.527,-2.841 6.766,-6.002 9.838,-9.371 l 2.245,-2.622 c 0.762,-0.865 1.39,-1.83 2.089,-2.743 1.42,-1.813 2.588,-3.791 3.824,-5.726 2.285,-3.975 4.381,-8.081 5.892,-12.425 3.238,-8.6 4.657,-17.898 4.263,-27.2 l -0.335,-3.484 c -0.064,-0.581 -0.101,-1.164 -0.189,-1.741 l -0.316,-1.728 c -0.226,-1.15 -0.397,-2.31 -0.675,-3.45 l -0.948,-3.397 c -0.278,-1.144 -0.744,-2.232 -1.159,-3.336 l -0.635,-1.652 c -0.209,-0.551 -0.417,-1.103 -0.7,-1.625 -1.054,-2.111 -2.071,-4.273 -3.317,-6.219 -2.427,-3.922 -5.088,-7.43 -7.408,-10.876 -2.345,-3.441 -4.324,-6.846 -5.494,-10.3 -0.588,-1.727 -0.896,-3.452 -1.069,-5.236 -0.158,-1.786 -0.056,-3.656 0.129,-5.557 0.451,-3.831 1.481,-7.829 2.564,-12.041 1.054,-4.216 2.209,-8.665 2.593,-13.513 0.379,-4.864 -0.095,-9.855 -1.401,-14.527 -2.605,-9.402 -8.108,-17.54 -14.867,-24.02 -3.396,-3.247 -7.144,-6.105 -11.17,-8.528 -4.008,-2.405 -8.182,-4.369 -12.459,-6.014 -8.559,-3.292 -17.41,-5.211 -26.158,-6.563 -8.77,-1.327 -17.389,-2.232 -26.157,-2.951 -8.751,-0.687 -17.574,-1.054 -26.443,-0.867 -8.865,0.196 -17.793,0.913 -26.644,2.616 -8.84,1.688 -17.629,4.289 -25.918,8.23 -8.297,3.897 -16.022,9.204 -22.686,15.583 -6.654,6.407 -11.986,13.664 -17.027,20.791 -5.037,7.151 -9.774,14.241 -15.043,20.649 -5.219,6.444 -11.151,11.949 -17.898,15.951 -3.382,1.966 -7.178,3.6 -11.174,5.339 -3.982,1.734 -8.188,3.603 -12.266,6.165 -2.036,1.291 -4.026,2.742 -5.863,4.498 -1.885,1.735 -3.528,3.698 -4.95,5.786 -2.831,4.198 -4.671,8.932 -5.596,13.777 -0.919,4.849 -0.962,9.835 -0.071,14.688 0.884,4.848 2.686,9.588 5.477,13.791 0.675,1.06 1.511,2.025 2.271,3.032 0.366,0.515 0.839,0.946 1.277,1.406 l 1.341,1.355 c 1.858,1.82 4.3,3.47 6.924,4.489 2.636,1.048 5.45,1.48 8.08,1.459 2.643,-0.008 5.135,-0.399 7.485,-0.943 4.697,-1.109 8.89,-2.792 12.926,-4.367 4.017,-1.574 7.91,-3.133 11.581,-3.954 1.841,-0.407 3.536,-0.61 5.146,-0.507 1.627,0.088 3.227,0.497 4.82,1.159 3.191,1.323 6.294,3.718 9.23,6.48 2.946,2.768 5.754,5.923 8.555,9.137 l 8.445,9.842 c 5.71,6.601 11.733,13.116 18.36,19.056 6.605,5.956 13.802,11.344 21.521,15.87 7.711,4.534 15.909,8.239 24.379,11.028 8.471,2.79 17.179,4.758 25.955,5.955 8.775,1.247 17.611,1.673 26.416,1.75"
         style="fill:#714b7f;fill-opacity:1;fill-rule:nonzero;stroke:none"
         id="path673" />
    </g>
    <g
       id="g675"
       transform="matrix(1.3333333,0,0,-1.3333333,690.90259,1045.6315)">
      <path
         d="m 0,0 c -1.594,0.027 -3.213,0.202 -4.756,0.532 -1.551,0.324 -2.973,0.801 -4.242,1.25 -2.553,0.924 -4.477,1.669 -6.445,1.967 -0.49,0.096 -0.99,0.131 -1.487,0.188 -0.25,0.023 -0.506,0.022 -0.758,0.037 l -0.381,0.018 -0.095,0.005 c -0.008,0 0.027,-0.002 0.039,-10e-4 0.042,0 0.057,0.006 0.118,0.014 0.091,0.007 0.181,0.023 0.269,0.048 0.116,0.025 0.324,0.079 0.471,0.147 0.175,0.069 0.496,0.217 0.705,0.377 0.303,0.196 0.594,0.467 0.85,0.786 0.278,0.329 0.483,0.74 0.615,1.073 0.069,0.175 0.121,0.374 0.156,0.54 0.033,0.134 0.056,0.272 0.069,0.411 0.02,0.322 0.021,0.444 0.006,0.628 -0.028,0.209 -0.029,0.25 -0.054,0.357 -0.073,0.318 -0.117,0.314 -0.068,0.232 0.031,-0.074 0.115,-0.224 0.217,-0.388 0.429,-0.69 1.147,-1.586 1.889,-2.436 0.753,-0.863 1.571,-1.732 2.411,-2.593 3.392,-3.447 7.119,-6.79 10.896,-9.992 0.946,-0.799 1.899,-1.589 2.852,-2.358 0.941,-0.755 1.94,-1.544 2.782,-2.141 l 6.253,-4.132 c 16.909,-11.171 33.652,-22.407 51.973,-30.085 4.573,-1.929 9.227,-3.591 13.923,-4.929 4.714,-1.387 9.596,-2.258 14.474,-3.048 2.456,-0.303 4.904,-0.684 7.379,-0.826 l 3.701,-0.283 3.709,-0.142 c 2.472,-0.14 4.944,-0.014 7.413,-0.011 l 3.693,0.205 1.845,0.102 1.835,0.188 3.665,0.376 3.628,0.562 1.812,0.28 1.784,0.383 3.564,0.773 c 4.682,1.229 9.241,2.778 13.462,4.863 1.039,0.539 2.025,1.153 3.041,1.72 1.084,0.553 1.858,1.205 2.711,1.812 1.55,1.315 2.783,2.72 3.474,4.334 1.378,3.231 1.01,7.766 0.391,12.791 -0.605,4.988 -1.167,10.526 -0.57,16.212 0.15,0.845 0.288,1.762 0.499,2.546 0.228,0.74 0.448,1.532 0.703,2.227 l 0.789,2.012 0.819,1.859 c 1.099,2.396 2.149,4.607 3.049,6.779 0.889,2.16 1.549,4.273 2.028,6.352 l 0.244,1.548 c 0.037,0.257 0.097,0.515 0.118,0.77 l 0.038,0.763 c 0.019,0.508 0.079,1.017 0.078,1.52 l -0.086,1.502 c -0.225,4.015 -1.932,7.754 -4.35,11.674 -1.14,1.9 -2.473,3.498 -3.876,4.974 -0.751,0.673 -1.452,1.403 -2.291,1.962 -0.768,0.643 -1.664,1.136 -2.532,1.663 -3.543,2.028 -7.924,3.17 -12.503,3.928 -4.598,0.743 -9.437,1.068 -14.342,1.166 -2.434,0.099 -4.926,0.037 -7.389,0.057 l -3.319,-0.145 c -1.113,-0.107 -2.237,-0.27 -3.356,-0.396 -1.124,-0.164 -2.263,-0.397 -3.395,-0.587 -1.134,-0.198 -2.277,-0.524 -3.416,-0.776 -1.143,-0.227 -2.29,-0.599 -3.436,-0.897 C 102.145,40.054 101,39.679 99.854,39.31 95.272,37.829 90.687,36.091 86.123,34.168 76.996,30.289 68.014,25.678 58.748,21.215 49.825,16.964 40.953,11.895 31.357,7.639 26.559,5.519 21.564,3.606 16.318,2.214 11.082,0.822 5.576,-0.028 0,0 m 0,9.805 c 9.178,0.026 18.348,2.997 27.234,7.042 8.927,4.044 17.646,9.154 26.985,13.736 8.993,4.373 17.927,9.302 27.281,13.799 4.678,2.255 9.479,4.388 14.489,6.204 1.251,0.458 2.5,0.92 3.795,1.31 1.293,0.393 2.547,0.854 3.882,1.176 1.33,0.321 2.627,0.704 3.986,0.968 1.364,0.253 2.706,0.559 4.09,0.759 1.401,0.16 2.79,0.347 4.2,0.472 1.425,0.06 2.882,0.13 4.282,0.161 2.607,-0.077 5.19,-0.07 7.82,-0.232 5.229,-0.224 10.531,-0.676 15.929,-1.666 2.694,-0.487 5.42,-1.143 8.147,-2.033 0.681,-0.189 1.361,-0.456 2.041,-0.73 l 2.036,-0.81 c 0.675,-0.291 1.34,-0.653 2.008,-0.981 0.663,-0.35 1.343,-0.639 1.979,-1.071 1.291,-0.804 2.584,-1.596 3.762,-2.59 1.241,-0.906 2.31,-2.003 3.404,-3.067 2.06,-2.219 3.896,-4.624 5.285,-7.124 0.762,-1.238 1.365,-2.496 1.986,-3.752 0.322,-0.602 0.604,-1.297 0.878,-2 l 0.822,-2.088 c 0.304,-0.678 0.435,-1.451 0.651,-2.175 0.192,-0.737 0.393,-1.469 0.564,-2.21 l 0.323,-2.282 0.15,-1.14 c 0.041,-0.381 0.03,-0.767 0.046,-1.15 l 0.037,-2.3 c -0.025,-0.762 -0.119,-1.516 -0.183,-2.273 l -0.11,-1.133 c -0.047,-0.374 -0.133,-0.735 -0.197,-1.104 l -0.435,-2.194 c -0.74,-2.845 -1.719,-5.544 -2.846,-8.039 -1.126,-2.478 -2.335,-4.81 -3.422,-6.99 -1.082,-2.151 -1.979,-4.25 -2.21,-5.656 -0.259,-2.189 -0.447,-4.466 -0.363,-6.823 0.028,-2.346 0.23,-4.769 0.433,-7.319 0.198,-2.53 0.434,-5.204 0.328,-8.109 -0.099,-2.875 -0.57,-6.072 -1.986,-9.091 -1.437,-3.032 -3.749,-5.422 -6.13,-7.27 -1.219,-0.856 -2.458,-1.756 -3.656,-2.333 -1.211,-0.643 -2.406,-1.331 -3.632,-1.924 -4.947,-2.287 -10.076,-3.864 -15.238,-5.072 -1.295,-0.265 -2.593,-0.493 -3.89,-0.739 l -1.946,-0.361 -1.953,-0.253 -3.906,-0.497 -3.91,-0.3 -1.955,-0.147 -1.955,-0.058 -3.908,-0.112 -3.901,0.056 -1.949,0.019 -1.947,0.088 c -5.197,0.156 -10.354,0.783 -15.505,1.426 -1.285,0.185 -2.566,0.411 -3.849,0.615 -1.284,0.198 -2.564,0.421 -3.838,0.704 l -3.826,0.787 -3.806,0.938 c -5.085,1.342 -10.03,3.008 -14.841,4.928 -19.342,7.667 -36.744,18.839 -53.866,29.628 l -6.528,4.12 c -1.244,0.847 -2.246,1.617 -3.303,2.424 -1.037,0.801 -2.054,1.608 -3.063,2.424 -4.027,3.274 -7.937,6.622 -11.742,10.325 -0.951,0.932 -1.894,1.889 -2.831,2.918 -0.939,1.044 -1.864,2.093 -2.823,3.526 -0.241,0.37 -0.484,0.763 -0.736,1.257 -0.242,0.479 -0.523,1.07 -0.739,2.005 -0.052,0.263 -0.1,0.457 -0.127,0.826 -0.023,0.341 -0.045,0.623 0.007,1.102 0.022,0.217 0.054,0.433 0.097,0.646 0.055,0.242 0.138,0.515 0.231,0.765 0.171,0.49 0.48,1.024 0.843,1.487 0.353,0.442 0.776,0.809 1.199,1.106 0.349,0.231 0.803,0.471 1.128,0.592 0.298,0.113 0.655,0.225 0.925,0.284 0.245,0.05 0.492,0.091 0.739,0.124 0.218,0.023 0.392,0.031 0.592,0.041 l 0.277,0.008 0.142,-0.002 0.571,-0.01 c 0.38,-0.012 0.759,-0.01 1.14,-0.035 0.766,-0.061 1.532,-0.112 2.292,-0.235 3.072,-0.406 5.927,-1.478 8.154,-2.221 C -3.602,10.125 -1.899,9.796 0,9.805"
         style="fill:#714b7f;fill-opacity:1;fill-rule:nonzero;stroke:none"
         id="path677" />
    </g>
    <g
       id="g679"
       transform="matrix(1.3333333,0,0,-1.3333333,335.23727,1110.9864)">
      <path
         d="m 0,0 c 3.82,-7.868 7.493,-15.787 11.118,-23.7 l 10.706,-23.721 c 0.044,-0.098 0.083,-0.197 0.117,-0.296 l 0.126,-0.374 c 5.027,-14.839 11.373,-29.188 19.063,-42.767 7.635,-13.609 16.666,-26.398 26.683,-38.323 10.021,-11.927 21.152,-22.904 33.08,-32.915 2.934,-2.56 6.056,-4.897 9.103,-7.318 1.51,-1.229 3.12,-2.33 4.682,-3.492 1.576,-1.144 3.134,-2.31 4.722,-3.436 6.422,-4.407 12.916,-8.709 19.64,-12.643 13.395,-7.943 27.401,-14.877 41.904,-20.561 l 5.446,-2.114 c 1.81,-0.715 3.667,-1.308 5.498,-1.968 1.84,-0.634 3.664,-1.315 5.517,-1.912 l 5.57,-1.753 2.78,-0.887 2.806,-0.807 5.614,-1.602 c 1.866,-0.554 3.769,-0.966 5.652,-1.457 1.891,-0.464 3.771,-0.966 5.667,-1.401 7.604,-1.68 15.217,-3.234 22.944,-4.339 l 5.79,-0.853 5.831,-0.706 c 3.885,-0.525 7.775,-0.829 11.664,-1.185 15.561,-1.304 31.208,-1.567 46.801,-0.764 15.594,0.806 31.133,2.683 46.471,5.62 3.828,0.76 7.645,1.587 11.458,2.42 3.786,0.953 7.6,1.798 11.364,2.833 3.763,1.036 7.552,1.991 11.272,3.18 l 5.604,1.704 5.551,1.869 c 14.785,5.031 29.25,11.054 43.145,18.21 13.908,7.12 27.378,15.132 40.164,24.153 3.188,2.263 6.318,4.612 9.462,6.942 l 4.609,3.633 c 1.535,1.213 3.09,2.403 4.568,3.686 2.975,2.542 6.038,4.986 8.924,7.633 l 4.389,3.907 c 1.444,1.322 2.844,2.693 4.268,4.038 1.41,1.361 2.865,2.677 4.237,4.075 l 4.122,4.192 c 2.785,2.739 5.404,5.757 8.103,8.644 l 4.072,4.421 c 1.317,1.457 2.635,2.915 3.928,4.395 2.582,2.962 5.164,5.929 7.653,8.974 5.001,6.071 9.775,12.334 14.318,18.766 2.267,3.218 4.473,6.487 6.621,9.782 l 1.604,2.467 1.533,2.451 c 1.015,1.651 1.999,3.32 2.956,5.005 7.632,13.484 13.423,28.022 16.966,43.225 l 0.085,0.365 c 0.423,1.812 1.801,3.158 3.474,3.629 3.716,1.227 7.619,2.669 11.401,4.137 3.806,1.475 7.587,3.032 11.343,4.645 7.512,3.23 14.915,6.716 22.172,10.466 14.499,7.507 28.482,16.021 41.275,25.946 12.748,9.923 24.392,21.311 33.089,34.535 4.292,6.621 7.877,13.662 10.247,21.069 2.447,7.383 3.633,15.105 3.68,22.846 l 10e-4,0.058 c 0.018,2.908 2.39,5.251 5.298,5.234 2.907,-0.018 5.251,-2.384 5.234,-5.292 -0.043,-8.851 -1.423,-17.725 -4.198,-26.103 C 746.29,68.055 742.269,60.179 737.538,52.888 727.954,38.331 715.487,26.237 702.097,15.801 688.651,5.375 674.155,-3.437 659.193,-11.185 c -7.487,-3.869 -15.108,-7.457 -22.842,-10.783 -3.869,-1.66 -7.761,-3.264 -11.694,-4.787 -3.954,-1.533 -7.835,-2.974 -11.999,-4.35 l 3.56,3.993 c -1.363,-8.205 -3.338,-16.336 -5.91,-24.29 -2.586,-7.951 -5.836,-15.689 -9.559,-23.182 -0.936,-1.872 -1.9,-3.728 -2.898,-5.565 l -1.529,-2.759 -1.555,-2.683 c -2.099,-3.552 -4.248,-7.06 -6.473,-10.531 -4.453,-6.934 -9.161,-13.71 -14.122,-20.303 -2.476,-3.3 -5.019,-6.552 -7.636,-9.742 -1.303,-1.6 -2.633,-3.178 -3.964,-4.756 l -3.96,-4.608 c -2.696,-3.094 -5.256,-6.256 -8.112,-9.274 l -4.196,-4.572 c -1.4,-1.524 -2.883,-2.968 -4.321,-4.456 -11.573,-11.836 -24.088,-22.782 -37.41,-32.654 -13.323,-9.865 -27.346,-18.817 -42.001,-26.612 -14.643,-7.818 -29.909,-14.452 -45.543,-20.035 -31.251,-11.283 -64.217,-17.599 -97.364,-19.496 l -3.108,-0.193 -3.113,-0.1 -6.225,-0.198 c -4.152,-0.098 -8.305,-0.04 -12.457,-0.063 -4.15,0.155 -8.303,0.232 -12.449,0.467 l -6.214,0.4 -3.108,0.202 -3.1,0.292 c -4.132,0.397 -8.274,0.748 -12.371,1.318 l -6.163,0.779 -6.161,0.937 c -8.218,1.221 -16.396,2.923 -24.512,4.766 -2.028,0.475 -4.038,1.019 -6.058,1.525 -2.012,0.535 -4.045,0.992 -6.039,1.591 l -5.998,1.743 -2.996,0.88 -2.968,0.973 -5.928,1.966 c -1.971,0.668 -3.913,1.422 -5.87,2.13 -1.947,0.735 -3.92,1.403 -5.846,2.194 l -5.787,2.345 c -15.408,6.31 -30.265,13.938 -44.455,22.642 -14.207,8.682 -27.628,18.643 -40.109,29.663 -12.47,11.023 -24.143,23.001 -34.363,36.156 l -3.822,4.936 c -1.274,1.644 -2.441,3.372 -3.666,5.053 -1.194,1.705 -2.456,3.358 -3.591,5.103 l -3.434,5.211 c -0.566,0.872 -1.155,1.729 -1.703,2.614 l -1.615,2.67 -3.226,5.339 c -1.037,1.802 -2.02,3.636 -3.031,5.452 -0.982,1.833 -2.035,3.625 -2.926,5.506 -7.524,14.824 -13.693,30.324 -18.171,46.278 l 0.243,-0.67 -9.447,24.3 c -3.1,8.091 -6.229,16.145 -9.493,24.125 -1.103,2.692 0.185,5.769 2.878,6.872 C -4.154,3.632 -1.209,2.472 0,0"
         style="fill:#714b7f;fill-opacity:1;fill-rule:nonzero;stroke:none"
         id="path681" />
    </g>
    <g
       id="g683"
       transform="matrix(1.3333333,0,0,-1.3333333,417.081,1292.3607)">
      <path
         d="m 0,0 c -8.995,-9.069 -18.139,-18.342 -23.887,-29.749 -5.748,-11.407 -7.64,-25.513 -1.778,-36.861 6.73,-13.031 22.603,-19.637 37.207,-18.281 14.604,1.357 39.891,19.866 50.485,30.007"
         style="fill:none;stroke:#714b7f;stroke-width:10.532;stroke-linecap:round;stroke-linejoin:round;stroke-miterlimit:10;stroke-dasharray:none;stroke-opacity:1"
         id="path685" />
    </g>
    <g
       id="g687"
       transform="matrix(1.3333333,0,0,-1.3333333,506.94553,1441.9968)">
      <path
         d="M 0,0 C 0,0 20.401,9.767 41.794,3.514 63.187,-2.74 77.339,-29.398 77.339,-29.398 l 0.658,43.114 -49.368,22.945 h -11.19 z"
         style="fill:#714b7f;fill-opacity:1;fill-rule:nonzero;stroke:none"
         id="path689" />
    </g>
    <g
       id="g691"
       transform="matrix(1.3333333,0,0,-1.3333333,806.61739,1481.1947)">
      <path
         d="M 0,0 C 0,0 18.79,23.587 51.264,24.026 83.736,24.465 97.527,0 97.527,0 L 85.491,56.499 53.019,52.988 13.963,38.946 C 13.963,38.946 9.668,11.137 0,0"
         style="fill:#714b7f;fill-opacity:1;fill-rule:nonzero;stroke:none"
         id="path693" />
    </g>
    <g
       id="g695"
       transform="matrix(1.3333333,0,0,-1.3333333,367.88567,1204.2663)">
      <path
         d="m 0,0 c 0,0 72.823,-156.902 281.138,-156.902 208.313,0 293.229,165.847 293.229,165.847 0,0 -77.327,-181.474 -294.985,-181.474 C 61.725,-172.529 0,0 0,0"
         style="fill:#714b7f;fill-opacity:1;fill-rule:nonzero;stroke:none"
         id="path697" />
    </g>
    <g
       id="g699"
       transform="matrix(1.3333333,0,0,-1.3333333,428.26713,1304.2286)">
      <path
         d="m 0,0 c 0,0 42.744,-61.053 3.152,-75.99 0,0 25.574,0.862 44.662,29.166 z"
         style="fill:#714b7f;fill-opacity:1;fill-rule:nonzero;stroke:none"
         id="path701" />
    </g>
  </g>
</svg>
